  0
SECTION
  2
HEADER
  9
$ACADVER
  1
AC1009
  9
$EXTMIN
 10
0.0
 20
0.0
 30
0.0
  9
$EXTMAX
 10
1000.0
 20
1000.0
 30
0.0
  9
$FILLMODE
 70
 0
  9
$SPLFRAME
 70
 1
  0
ENDSEC
  0
SECTION
  2
TABLES
  0
TABLE
  2
LAYER
 70
1
  0
LAYER
  2
0
 70
     0
 62
     7
  6
CONTINUOUS
  0
ENDTAB
  0
ENDSEC
  0
SECTION
  2
ENTITIES
  0
LINE
  8
0
 62
     0
 10
0.0950846
 20
95.5075
 30
0.0
 11
285.845
 21
95.5075
 31
0.0
  0
LINE
  8
0
 62
     0
 10
285.845
 20
95.5075
 30
0.0
 11
285.845
 21
0.257693
 31
0.0
  0
LINE
  8
0
 62
     0
 10
285.845
 20
0.257693
 30
0.0
 11
0.0950846
 21
0.257693
 31
0.0
  0
LINE
  8
0
 62
     0
 10
0.0950846
 20
0.257693
 30
0.0
 11
0.0950846
 21
95.5075
 31
0.0
  0
LINE
  8
0
 62
     0
 10
147.876
 20
16.7831
 30
0.0
 11
147.876
 21
16.1837
 31
0.0
  0
LINE
  8
0
 62
     0
 10
147.876
 20
16.1837
 30
0.0
 11
147.075
 21
16.1837
 31
0.0
  0
LINE
  8
0
 62
     0
 10
147.075
 20
16.1837
 30
0.0
 11
147.075
 21
12.0826
 31
0.0
  0
LINE
  8
0
 62
     0
 10
147.075
 20
12.0826
 30
0.0
 11
146.351
 21
12.0826
 31
0.0
  0
LINE
  8
0
 62
     0
 10
146.351
 20
12.0826
 30
0.0
 11
146.351
 21
15.3128
 31
0.0
  0
LINE
  8
0
 62
     0
 10
146.351
 20
15.3128
 30
0.0
 11
144.625
 21
15.3128
 31
0.0
  0
LINE
  8
0
 62
     0
 10
144.625
 20
15.3128
 30
0.0
 11
144.625
 21
16.2333
 31
0.0
  0
LINE
  8
0
 62
     0
 10
144.625
 20
16.2333
 30
0.0
 11
141.326
 21
16.2333
 31
0.0
  0
LINE
  8
0
 62
     0
 10
141.326
 20
16.2333
 30
0.0
 11
141.326
 21
15.3128
 31
0.0
  0
LINE
  8
0
 62
     0
 10
141.326
 20
15.3128
 30
0.0
 11
139.601
 21
15.3128
 31
0.0
  0
LINE
  8
0
 62
     0
 10
139.601
 20
15.3128
 30
0.0
 11
139.601
 21
12.0826
 31
0.0
  0
LINE
  8
0
 62
     0
 10
139.601
 20
12.0826
 30
0.0
 11
138.775
 21
12.0826
 31
0.0
  0
LINE
  8
0
 62
     0
 10
138.775
 20
12.0826
 30
0.0
 11
138.775
 21
9.28384
 31
0.0
  0
LINE
  8
0
 62
     0
 10
138.775
 20
9.28384
 30
0.0
 11
139.601
 21
9.28384
 31
0.0
  0
LINE
  8
0
 62
     0
 10
139.601
 20
9.28384
 30
0.0
 11
139.601
 21
3.01377
 31
0.0
  0
LINE
  8
0
 62
     0
 10
139.601
 20
3.01377
 30
0.0
 11
141.326
 21
3.01377
 31
0.0
  0
LINE
  8
0
 62
     0
 10
141.326
 20
3.01377
 30
0.0
 11
141.326
 21
2.03261
 31
0.0
  0
LINE
  8
0
 62
     0
 10
141.326
 20
2.03261
 30
0.0
 11
144.625
 21
2.03261
 31
0.0
  0
LINE
  8
0
 62
     0
 10
144.625
 20
2.03261
 30
0.0
 11
144.625
 21
3.01377
 31
0.0
  0
LINE
  8
0
 62
     0
 10
144.625
 20
3.01377
 30
0.0
 11
146.351
 21
3.01377
 31
0.0
  0
LINE
  8
0
 62
     0
 10
146.351
 20
3.01377
 30
0.0
 11
146.351
 21
7.48273
 31
0.0
  0
LINE
  8
0
 62
     0
 10
146.351
 20
7.48273
 30
0.0
 11
147.075
 21
7.48273
 31
0.0
  0
LINE
  8
0
 62
     0
 10
147.075
 20
7.48273
 30
0.0
 11
147.075
 21
3.38308
 31
0.0
  0
LINE
  8
0
 62
     0
 10
147.075
 20
3.38308
 30
0.0
 11
147.876
 21
3.38308
 31
0.0
  0
LINE
  8
0
 62
     0
 10
147.876
 20
3.38308
 30
0.0
 11
147.876
 21
2.78364
 31
0.0
  0
LINE
  8
0
 62
     0
 10
147.876
 20
2.78364
 30
0.0
 11
161.875
 21
2.78364
 31
0.0
  0
LINE
  8
0
 62
     0
 10
161.875
 20
2.78364
 30
0.0
 11
161.875
 21
3.38308
 31
0.0
  0
LINE
  8
0
 62
     0
 10
161.875
 20
3.38308
 30
0.0
 11
162.676
 21
3.38308
 31
0.0
  0
LINE
  8
0
 62
     0
 10
162.676
 20
3.38308
 30
0.0
 11
162.676
 21
7.48273
 31
0.0
  0
LINE
  8
0
 62
     0
 10
162.676
 20
7.48273
 30
0.0
 11
163.401
 21
7.48273
 31
0.0
  0
LINE
  8
0
 62
     0
 10
163.401
 20
7.48273
 30
0.0
 11
163.401
 21
3.01377
 31
0.0
  0
LINE
  8
0
 62
     0
 10
163.401
 20
3.01377
 30
0.0
 11
165.125
 21
3.01377
 31
0.0
  0
LINE
  8
0
 62
     0
 10
165.125
 20
3.01377
 30
0.0
 11
165.125
 21
2.03261
 31
0.0
  0
LINE
  8
0
 62
     0
 10
165.125
 20
2.03261
 30
0.0
 11
168.425
 21
2.03261
 31
0.0
  0
LINE
  8
0
 62
     0
 10
168.425
 20
2.03261
 30
0.0
 11
168.425
 21
3.01377
 31
0.0
  0
LINE
  8
0
 62
     0
 10
168.425
 20
3.01377
 30
0.0
 11
170.15
 21
3.01377
 31
0.0
  0
LINE
  8
0
 62
     0
 10
170.15
 20
3.01377
 30
0.0
 11
170.15
 21
9.28384
 31
0.0
  0
LINE
  8
0
 62
     0
 10
170.15
 20
9.28384
 30
0.0
 11
170.976
 21
9.28384
 31
0.0
  0
LINE
  8
0
 62
     0
 10
170.976
 20
9.28384
 30
0.0
 11
170.976
 21
12.0826
 31
0.0
  0
LINE
  8
0
 62
     0
 10
170.976
 20
12.0826
 30
0.0
 11
170.15
 21
12.0826
 31
0.0
  0
LINE
  8
0
 62
     0
 10
170.15
 20
12.0826
 30
0.0
 11
170.15
 21
15.3128
 31
0.0
  0
LINE
  8
0
 62
     0
 10
170.15
 20
15.3128
 30
0.0
 11
168.425
 21
15.3128
 31
0.0
  0
LINE
  8
0
 62
     0
 10
168.425
 20
15.3128
 30
0.0
 11
168.425
 21
16.2333
 31
0.0
  0
LINE
  8
0
 62
     0
 10
168.425
 20
16.2333
 30
0.0
 11
165.125
 21
16.2333
 31
0.0
  0
LINE
  8
0
 62
     0
 10
165.125
 20
16.2333
 30
0.0
 11
165.125
 21
15.3128
 31
0.0
  0
LINE
  8
0
 62
     0
 10
165.125
 20
15.3128
 30
0.0
 11
163.401
 21
15.3128
 31
0.0
  0
LINE
  8
0
 62
     0
 10
163.401
 20
15.3128
 30
0.0
 11
163.401
 21
12.0826
 31
0.0
  0
LINE
  8
0
 62
     0
 10
163.401
 20
12.0826
 30
0.0
 11
162.676
 21
12.0826
 31
0.0
  0
LINE
  8
0
 62
     0
 10
162.676
 20
12.0826
 30
0.0
 11
162.676
 21
16.1837
 31
0.0
  0
LINE
  8
0
 62
     0
 10
162.676
 20
16.1837
 30
0.0
 11
161.875
 21
16.1837
 31
0.0
  0
LINE
  8
0
 62
     0
 10
161.875
 20
16.1837
 30
0.0
 11
161.875
 21
16.7831
 31
0.0
  0
LINE
  8
0
 62
     0
 10
161.875
 20
16.7831
 30
0.0
 11
147.876
 21
16.7831
 31
0.0
  0
LINE
  8
0
 62
     0
 10
95.4871
 20
16.7831
 30
0.0
 11
95.4871
 21
16.1837
 31
0.0
  0
LINE
  8
0
 62
     0
 10
95.4871
 20
16.1837
 30
0.0
 11
94.6877
 21
16.1837
 31
0.0
  0
LINE
  8
0
 62
     0
 10
94.6877
 20
16.1837
 30
0.0
 11
94.6877
 21
12.0826
 31
0.0
  0
LINE
  8
0
 62
     0
 10
94.6877
 20
12.0826
 30
0.0
 11
93.9631
 21
12.0826
 31
0.0
  0
LINE
  8
0
 62
     0
 10
93.9631
 20
12.0826
 30
0.0
 11
93.9631
 21
15.3128
 31
0.0
  0
LINE
  8
0
 62
     0
 10
93.9631
 20
15.3128
 30
0.0
 11
92.2376
 21
15.3128
 31
0.0
  0
LINE
  8
0
 62
     0
 10
92.2376
 20
15.3128
 30
0.0
 11
92.2376
 21
16.2333
 31
0.0
  0
LINE
  8
0
 62
     0
 10
92.2376
 20
16.2333
 30
0.0
 11
88.937
 21
16.2333
 31
0.0
  0
LINE
  8
0
 62
     0
 10
88.937
 20
16.2333
 30
0.0
 11
88.937
 21
15.3128
 31
0.0
  0
LINE
  8
0
 62
     0
 10
88.937
 20
15.3128
 30
0.0
 11
87.212
 21
15.3128
 31
0.0
  0
LINE
  8
0
 62
     0
 10
87.212
 20
15.3128
 30
0.0
 11
87.212
 21
12.0826
 31
0.0
  0
LINE
  8
0
 62
     0
 10
87.212
 20
12.0826
 30
0.0
 11
86.3879
 21
12.0826
 31
0.0
  0
LINE
  8
0
 62
     0
 10
86.3879
 20
12.0826
 30
0.0
 11
86.3879
 21
9.28384
 31
0.0
  0
LINE
  8
0
 62
     0
 10
86.3879
 20
9.28384
 30
0.0
 11
87.212
 21
9.28384
 31
0.0
  0
LINE
  8
0
 62
     0
 10
87.212
 20
9.28384
 30
0.0
 11
87.212
 21
3.01377
 31
0.0
  0
LINE
  8
0
 62
     0
 10
87.212
 20
3.01377
 30
0.0
 11
88.937
 21
3.01377
 31
0.0
  0
LINE
  8
0
 62
     0
 10
88.937
 20
3.01377
 30
0.0
 11
88.937
 21
2.03261
 31
0.0
  0
LINE
  8
0
 62
     0
 10
88.937
 20
2.03261
 30
0.0
 11
92.2376
 21
2.03261
 31
0.0
  0
LINE
  8
0
 62
     0
 10
92.2376
 20
2.03261
 30
0.0
 11
92.2376
 21
3.01377
 31
0.0
  0
LINE
  8
0
 62
     0
 10
92.2376
 20
3.01377
 30
0.0
 11
93.9631
 21
3.01377
 31
0.0
  0
LINE
  8
0
 62
     0
 10
93.9631
 20
3.01377
 30
0.0
 11
93.9631
 21
7.48273
 31
0.0
  0
LINE
  8
0
 62
     0
 10
93.9631
 20
7.48273
 30
0.0
 11
94.6877
 21
7.48273
 31
0.0
  0
LINE
  8
0
 62
     0
 10
94.6877
 20
7.48273
 30
0.0
 11
94.6877
 21
3.38308
 31
0.0
  0
LINE
  8
0
 62
     0
 10
94.6877
 20
3.38308
 30
0.0
 11
95.4871
 21
3.38308
 31
0.0
  0
LINE
  8
0
 62
     0
 10
95.4871
 20
3.38308
 30
0.0
 11
95.4871
 21
2.78364
 31
0.0
  0
LINE
  8
0
 62
     0
 10
95.4871
 20
2.78364
 30
0.0
 11
109.488
 21
2.78364
 31
0.0
  0
LINE
  8
0
 62
     0
 10
109.488
 20
2.78364
 30
0.0
 11
109.488
 21
3.38308
 31
0.0
  0
LINE
  8
0
 62
     0
 10
109.488
 20
3.38308
 30
0.0
 11
110.287
 21
3.38308
 31
0.0
  0
LINE
  8
0
 62
     0
 10
110.287
 20
3.38308
 30
0.0
 11
110.287
 21
7.48273
 31
0.0
  0
LINE
  8
0
 62
     0
 10
110.287
 20
7.48273
 30
0.0
 11
111.012
 21
7.48273
 31
0.0
  0
LINE
  8
0
 62
     0
 10
111.012
 20
7.48273
 30
0.0
 11
111.012
 21
3.01377
 31
0.0
  0
LINE
  8
0
 62
     0
 10
111.012
 20
3.01377
 30
0.0
 11
112.737
 21
3.01377
 31
0.0
  0
LINE
  8
0
 62
     0
 10
112.737
 20
3.01377
 30
0.0
 11
112.737
 21
2.03261
 31
0.0
  0
LINE
  8
0
 62
     0
 10
112.737
 20
2.03261
 30
0.0
 11
116.038
 21
2.03261
 31
0.0
  0
LINE
  8
0
 62
     0
 10
116.038
 20
2.03261
 30
0.0
 11
116.038
 21
3.01377
 31
0.0
  0
LINE
  8
0
 62
     0
 10
116.038
 20
3.01377
 30
0.0
 11
117.763
 21
3.01377
 31
0.0
  0
LINE
  8
0
 62
     0
 10
117.763
 20
3.01377
 30
0.0
 11
117.763
 21
9.28384
 31
0.0
  0
LINE
  8
0
 62
     0
 10
117.763
 20
9.28384
 30
0.0
 11
118.587
 21
9.28384
 31
0.0
  0
LINE
  8
0
 62
     0
 10
118.587
 20
9.28384
 30
0.0
 11
118.587
 21
12.0826
 31
0.0
  0
LINE
  8
0
 62
     0
 10
118.587
 20
12.0826
 30
0.0
 11
117.763
 21
12.0826
 31
0.0
  0
LINE
  8
0
 62
     0
 10
117.763
 20
12.0826
 30
0.0
 11
117.763
 21
15.3128
 31
0.0
  0
LINE
  8
0
 62
     0
 10
117.763
 20
15.3128
 30
0.0
 11
116.038
 21
15.3128
 31
0.0
  0
LINE
  8
0
 62
     0
 10
116.038
 20
15.3128
 30
0.0
 11
116.038
 21
16.2333
 31
0.0
  0
LINE
  8
0
 62
     0
 10
116.038
 20
16.2333
 30
0.0
 11
112.737
 21
16.2333
 31
0.0
  0
LINE
  8
0
 62
     0
 10
112.737
 20
16.2333
 30
0.0
 11
112.737
 21
15.3128
 31
0.0
  0
LINE
  8
0
 62
     0
 10
112.737
 20
15.3128
 30
0.0
 11
111.012
 21
15.3128
 31
0.0
  0
LINE
  8
0
 62
     0
 10
111.012
 20
15.3128
 30
0.0
 11
111.012
 21
12.0826
 31
0.0
  0
LINE
  8
0
 62
     0
 10
111.012
 20
12.0826
 30
0.0
 11
110.287
 21
12.0826
 31
0.0
  0
LINE
  8
0
 62
     0
 10
110.287
 20
12.0826
 30
0.0
 11
110.287
 21
16.1837
 31
0.0
  0
LINE
  8
0
 62
     0
 10
110.287
 20
16.1837
 30
0.0
 11
109.488
 21
16.1837
 31
0.0
  0
LINE
  8
0
 62
     0
 10
109.488
 20
16.1837
 30
0.0
 11
109.488
 21
16.7831
 31
0.0
  0
LINE
  8
0
 62
     0
 10
109.488
 20
16.7831
 30
0.0
 11
95.4871
 21
16.7831
 31
0.0
  0
LINE
  8
0
 62
     0
 10
264.557
 20
16.7831
 30
0.0
 11
264.557
 21
16.1837
 31
0.0
  0
LINE
  8
0
 62
     0
 10
264.557
 20
16.1837
 30
0.0
 11
263.756
 21
16.1837
 31
0.0
  0
LINE
  8
0
 62
     0
 10
263.756
 20
16.1837
 30
0.0
 11
263.756
 21
3.38308
 31
0.0
  0
LINE
  8
0
 62
     0
 10
263.756
 20
3.38308
 30
0.0
 11
264.557
 21
3.38308
 31
0.0
  0
LINE
  8
0
 62
     0
 10
264.557
 20
3.38308
 30
0.0
 11
264.557
 21
2.78364
 31
0.0
  0
LINE
  8
0
 62
     0
 10
264.557
 20
2.78364
 30
0.0
 11
278.557
 21
2.78364
 31
0.0
  0
LINE
  8
0
 62
     0
 10
278.557
 20
2.78364
 30
0.0
 11
278.557
 21
3.38308
 31
0.0
  0
LINE
  8
0
 62
     0
 10
278.557
 20
3.38308
 30
0.0
 11
279.356
 21
3.38308
 31
0.0
  0
LINE
  8
0
 62
     0
 10
279.356
 20
3.38308
 30
0.0
 11
279.356
 21
16.1837
 31
0.0
  0
LINE
  8
0
 62
     0
 10
279.356
 20
16.1837
 30
0.0
 11
278.557
 21
16.1837
 31
0.0
  0
LINE
  8
0
 62
     0
 10
278.557
 20
16.1837
 30
0.0
 11
278.557
 21
16.7831
 31
0.0
  0
LINE
  8
0
 62
     0
 10
278.557
 20
16.7831
 30
0.0
 11
264.557
 21
16.7831
 31
0.0
  0
LINE
  8
0
 62
     0
 10
240.745
 20
16.7831
 30
0.0
 11
240.745
 21
16.1837
 31
0.0
  0
LINE
  8
0
 62
     0
 10
240.745
 20
16.1837
 30
0.0
 11
239.944
 21
16.1837
 31
0.0
  0
LINE
  8
0
 62
     0
 10
239.944
 20
16.1837
 30
0.0
 11
239.944
 21
3.38308
 31
0.0
  0
LINE
  8
0
 62
     0
 10
239.944
 20
3.38308
 30
0.0
 11
240.745
 21
3.38308
 31
0.0
  0
LINE
  8
0
 62
     0
 10
240.745
 20
3.38308
 30
0.0
 11
240.745
 21
2.78364
 31
0.0
  0
LINE
  8
0
 62
     0
 10
240.745
 20
2.78364
 30
0.0
 11
254.744
 21
2.78364
 31
0.0
  0
LINE
  8
0
 62
     0
 10
254.744
 20
2.78364
 30
0.0
 11
254.744
 21
3.38308
 31
0.0
  0
LINE
  8
0
 62
     0
 10
254.744
 20
3.38308
 30
0.0
 11
255.545
 21
3.38308
 31
0.0
  0
LINE
  8
0
 62
     0
 10
255.545
 20
3.38308
 30
0.0
 11
255.545
 21
16.1837
 31
0.0
  0
LINE
  8
0
 62
     0
 10
255.545
 20
16.1837
 30
0.0
 11
254.744
 21
16.1837
 31
0.0
  0
LINE
  8
0
 62
     0
 10
254.744
 20
16.1837
 30
0.0
 11
254.744
 21
16.7831
 31
0.0
  0
LINE
  8
0
 62
     0
 10
254.744
 20
16.7831
 30
0.0
 11
240.745
 21
16.7831
 31
0.0
  0
LINE
  8
0
 62
     0
 10
221.695
 20
16.7831
 30
0.0
 11
221.695
 21
16.1837
 31
0.0
  0
LINE
  8
0
 62
     0
 10
221.695
 20
16.1837
 30
0.0
 11
220.894
 21
16.1837
 31
0.0
  0
LINE
  8
0
 62
     0
 10
220.894
 20
16.1837
 30
0.0
 11
220.894
 21
3.38308
 31
0.0
  0
LINE
  8
0
 62
     0
 10
220.894
 20
3.38308
 30
0.0
 11
221.695
 21
3.38308
 31
0.0
  0
LINE
  8
0
 62
     0
 10
221.695
 20
3.38308
 30
0.0
 11
221.695
 21
2.78364
 31
0.0
  0
LINE
  8
0
 62
     0
 10
221.695
 20
2.78364
 30
0.0
 11
235.694
 21
2.78364
 31
0.0
  0
LINE
  8
0
 62
     0
 10
235.694
 20
2.78364
 30
0.0
 11
235.694
 21
3.38308
 31
0.0
  0
LINE
  8
0
 62
     0
 10
235.694
 20
3.38308
 30
0.0
 11
236.495
 21
3.38308
 31
0.0
  0
LINE
  8
0
 62
     0
 10
236.495
 20
3.38308
 30
0.0
 11
236.495
 21
16.1837
 31
0.0
  0
LINE
  8
0
 62
     0
 10
236.495
 20
16.1837
 30
0.0
 11
235.694
 21
16.1837
 31
0.0
  0
LINE
  8
0
 62
     0
 10
235.694
 20
16.1837
 30
0.0
 11
235.694
 21
16.7831
 31
0.0
  0
LINE
  8
0
 62
     0
 10
235.694
 20
16.7831
 30
0.0
 11
221.695
 21
16.7831
 31
0.0
  0
LINE
  8
0
 62
     0
 10
202.645
 20
16.7831
 30
0.0
 11
202.645
 21
16.1837
 31
0.0
  0
LINE
  8
0
 62
     0
 10
202.645
 20
16.1837
 30
0.0
 11
201.844
 21
16.1837
 31
0.0
  0
LINE
  8
0
 62
     0
 10
201.844
 20
16.1837
 30
0.0
 11
201.844
 21
3.38308
 31
0.0
  0
LINE
  8
0
 62
     0
 10
201.844
 20
3.38308
 30
0.0
 11
202.645
 21
3.38308
 31
0.0
  0
LINE
  8
0
 62
     0
 10
202.645
 20
3.38308
 30
0.0
 11
202.645
 21
2.78364
 31
0.0
  0
LINE
  8
0
 62
     0
 10
202.645
 20
2.78364
 30
0.0
 11
216.644
 21
2.78364
 31
0.0
  0
LINE
  8
0
 62
     0
 10
216.644
 20
2.78364
 30
0.0
 11
216.644
 21
3.38308
 31
0.0
  0
LINE
  8
0
 62
     0
 10
216.644
 20
3.38308
 30
0.0
 11
217.445
 21
3.38308
 31
0.0
  0
LINE
  8
0
 62
     0
 10
217.445
 20
3.38308
 30
0.0
 11
217.445
 21
16.1837
 31
0.0
  0
LINE
  8
0
 62
     0
 10
217.445
 20
16.1837
 30
0.0
 11
216.644
 21
16.1837
 31
0.0
  0
LINE
  8
0
 62
     0
 10
216.644
 20
16.1837
 30
0.0
 11
216.644
 21
16.7831
 31
0.0
  0
LINE
  8
0
 62
     0
 10
216.644
 20
16.7831
 30
0.0
 11
202.645
 21
16.7831
 31
0.0
  0
LINE
  8
0
 62
     0
 10
183.595
 20
16.7831
 30
0.0
 11
183.595
 21
16.1837
 31
0.0
  0
LINE
  8
0
 62
     0
 10
183.595
 20
16.1837
 30
0.0
 11
182.794
 21
16.1837
 31
0.0
  0
LINE
  8
0
 62
     0
 10
182.794
 20
16.1837
 30
0.0
 11
182.794
 21
3.38308
 31
0.0
  0
LINE
  8
0
 62
     0
 10
182.794
 20
3.38308
 30
0.0
 11
183.595
 21
3.38308
 31
0.0
  0
LINE
  8
0
 62
     0
 10
183.595
 20
3.38308
 30
0.0
 11
183.595
 21
2.78364
 31
0.0
  0
LINE
  8
0
 62
     0
 10
183.595
 20
2.78364
 30
0.0
 11
197.594
 21
2.78364
 31
0.0
  0
LINE
  8
0
 62
     0
 10
197.594
 20
2.78364
 30
0.0
 11
197.594
 21
3.38308
 31
0.0
  0
LINE
  8
0
 62
     0
 10
197.594
 20
3.38308
 30
0.0
 11
198.395
 21
3.38308
 31
0.0
  0
LINE
  8
0
 62
     0
 10
198.395
 20
3.38308
 30
0.0
 11
198.395
 21
16.1837
 31
0.0
  0
LINE
  8
0
 62
     0
 10
198.395
 20
16.1837
 30
0.0
 11
197.594
 21
16.1837
 31
0.0
  0
LINE
  8
0
 62
     0
 10
197.594
 20
16.1837
 30
0.0
 11
197.594
 21
16.7831
 31
0.0
  0
LINE
  8
0
 62
     0
 10
197.594
 20
16.7831
 30
0.0
 11
183.595
 21
16.7831
 31
0.0
  0
LINE
  8
0
 62
     0
 10
57.3871
 20
16.7831
 30
0.0
 11
57.3871
 21
16.1837
 31
0.0
  0
LINE
  8
0
 62
     0
 10
57.3871
 20
16.1837
 30
0.0
 11
56.5877
 21
16.1837
 31
0.0
  0
LINE
  8
0
 62
     0
 10
56.5877
 20
16.1837
 30
0.0
 11
56.5877
 21
3.38308
 31
0.0
  0
LINE
  8
0
 62
     0
 10
56.5877
 20
3.38308
 30
0.0
 11
57.3871
 21
3.38308
 31
0.0
  0
LINE
  8
0
 62
     0
 10
57.3871
 20
3.38308
 30
0.0
 11
57.3871
 21
2.78364
 31
0.0
  0
LINE
  8
0
 62
     0
 10
57.3871
 20
2.78364
 30
0.0
 11
71.3878
 21
2.78364
 31
0.0
  0
LINE
  8
0
 62
     0
 10
71.3878
 20
2.78364
 30
0.0
 11
71.3878
 21
3.38308
 31
0.0
  0
LINE
  8
0
 62
     0
 10
71.3878
 20
3.38308
 30
0.0
 11
72.1872
 21
3.38308
 31
0.0
  0
LINE
  8
0
 62
     0
 10
72.1872
 20
3.38308
 30
0.0
 11
72.1872
 21
16.1837
 31
0.0
  0
LINE
  8
0
 62
     0
 10
72.1872
 20
16.1837
 30
0.0
 11
71.3878
 21
16.1837
 31
0.0
  0
LINE
  8
0
 62
     0
 10
71.3878
 20
16.1837
 30
0.0
 11
71.3878
 21
16.7831
 31
0.0
  0
LINE
  8
0
 62
     0
 10
71.3878
 20
16.7831
 30
0.0
 11
57.3871
 21
16.7831
 31
0.0
  0
LINE
  8
0
 62
     0
 10
33.5759
 20
16.7831
 30
0.0
 11
33.5759
 21
16.1837
 31
0.0
  0
LINE
  8
0
 62
     0
 10
33.5759
 20
16.1837
 30
0.0
 11
32.7753
 21
16.1837
 31
0.0
  0
LINE
  8
0
 62
     0
 10
32.7753
 20
16.1837
 30
0.0
 11
32.7753
 21
3.38308
 31
0.0
  0
LINE
  8
0
 62
     0
 10
32.7753
 20
3.38308
 30
0.0
 11
33.5759
 21
3.38308
 31
0.0
  0
LINE
  8
0
 62
     0
 10
33.5759
 20
3.38308
 30
0.0
 11
33.5759
 21
2.78364
 31
0.0
  0
LINE
  8
0
 62
     0
 10
33.5759
 20
2.78364
 30
0.0
 11
47.5753
 21
2.78364
 31
0.0
  0
LINE
  8
0
 62
     0
 10
47.5753
 20
2.78364
 30
0.0
 11
47.5753
 21
3.38308
 31
0.0
  0
LINE
  8
0
 62
     0
 10
47.5753
 20
3.38308
 30
0.0
 11
48.3761
 21
3.38308
 31
0.0
  0
LINE
  8
0
 62
     0
 10
48.3761
 20
3.38308
 30
0.0
 11
48.3761
 21
16.1837
 31
0.0
  0
LINE
  8
0
 62
     0
 10
48.3761
 20
16.1837
 30
0.0
 11
47.5753
 21
16.1837
 31
0.0
  0
LINE
  8
0
 62
     0
 10
47.5753
 20
16.1837
 30
0.0
 11
47.5753
 21
16.7831
 31
0.0
  0
LINE
  8
0
 62
     0
 10
47.5753
 20
16.7831
 30
0.0
 11
33.5759
 21
16.7831
 31
0.0
  0
LINE
  8
0
 62
     0
 10
7.38216
 20
16.7831
 30
0.0
 11
7.38216
 21
16.1837
 31
0.0
  0
LINE
  8
0
 62
     0
 10
7.38216
 20
16.1837
 30
0.0
 11
6.58153
 21
16.1837
 31
0.0
  0
LINE
  8
0
 62
     0
 10
6.58153
 20
16.1837
 30
0.0
 11
6.58153
 21
3.38308
 31
0.0
  0
LINE
  8
0
 62
     0
 10
6.58153
 20
3.38308
 30
0.0
 11
7.38216
 21
3.38308
 31
0.0
  0
LINE
  8
0
 62
     0
 10
7.38216
 20
3.38308
 30
0.0
 11
7.38216
 21
2.78364
 31
0.0
  0
LINE
  8
0
 62
     0
 10
7.38216
 20
2.78364
 30
0.0
 11
21.3817
 21
2.78364
 31
0.0
  0
LINE
  8
0
 62
     0
 10
21.3817
 20
2.78364
 30
0.0
 11
21.3817
 21
3.38308
 31
0.0
  0
LINE
  8
0
 62
     0
 10
21.3817
 20
3.38308
 30
0.0
 11
22.1809
 21
3.38308
 31
0.0
  0
LINE
  8
0
 62
     0
 10
22.1809
 20
3.38308
 30
0.0
 11
22.1809
 21
16.1837
 31
0.0
  0
LINE
  8
0
 62
     0
 10
22.1809
 20
16.1837
 30
0.0
 11
21.3817
 21
16.1837
 31
0.0
  0
LINE
  8
0
 62
     0
 10
21.3817
 20
16.1837
 30
0.0
 11
21.3817
 21
16.7831
 31
0.0
  0
LINE
  8
0
 62
     0
 10
21.3817
 20
16.7831
 30
0.0
 11
7.38216
 21
16.7831
 31
0.0
  0
LINE
  8
0
 62
     0
 10
252.65
 20
35.833
 30
0.0
 11
252.65
 21
35.2337
 31
0.0
  0
LINE
  8
0
 62
     0
 10
252.65
 20
35.2337
 30
0.0
 11
251.849
 21
35.2337
 31
0.0
  0
LINE
  8
0
 62
     0
 10
251.849
 20
35.2337
 30
0.0
 11
251.849
 21
31.1326
 31
0.0
  0
LINE
  8
0
 62
     0
 10
251.849
 20
31.1326
 30
0.0
 11
251.126
 21
31.1326
 31
0.0
  0
LINE
  8
0
 62
     0
 10
251.126
 20
31.1326
 30
0.0
 11
251.126
 21
34.3628
 31
0.0
  0
LINE
  8
0
 62
     0
 10
251.126
 20
34.3628
 30
0.0
 11
249.4
 21
34.3628
 31
0.0
  0
LINE
  8
0
 62
     0
 10
249.4
 20
34.3628
 30
0.0
 11
249.4
 21
35.2848
 31
0.0
  0
LINE
  8
0
 62
     0
 10
249.4
 20
35.2848
 30
0.0
 11
246.101
 21
35.2848
 31
0.0
  0
LINE
  8
0
 62
     0
 10
246.101
 20
35.2848
 30
0.0
 11
246.101
 21
34.3628
 31
0.0
  0
LINE
  8
0
 62
     0
 10
246.101
 20
34.3628
 30
0.0
 11
244.376
 21
34.3628
 31
0.0
  0
LINE
  8
0
 62
     0
 10
244.376
 20
34.3628
 30
0.0
 11
244.376
 21
31.1326
 31
0.0
  0
LINE
  8
0
 62
     0
 10
244.376
 20
31.1326
 30
0.0
 11
243.55
 21
31.1326
 31
0.0
  0
LINE
  8
0
 62
     0
 10
243.55
 20
31.1326
 30
0.0
 11
243.55
 21
28.3338
 31
0.0
  0
LINE
  8
0
 62
     0
 10
243.55
 20
28.3338
 30
0.0
 11
244.376
 21
28.3338
 31
0.0
  0
LINE
  8
0
 62
     0
 10
244.376
 20
28.3338
 30
0.0
 11
244.376
 21
22.0638
 31
0.0
  0
LINE
  8
0
 62
     0
 10
244.376
 20
22.0638
 30
0.0
 11
246.101
 21
22.0638
 31
0.0
  0
LINE
  8
0
 62
     0
 10
246.101
 20
22.0638
 30
0.0
 11
246.101
 21
21.0826
 31
0.0
  0
LINE
  8
0
 62
     0
 10
246.101
 20
21.0826
 30
0.0
 11
249.4
 21
21.0826
 31
0.0
  0
LINE
  8
0
 62
     0
 10
249.4
 20
21.0826
 30
0.0
 11
249.4
 21
22.0638
 31
0.0
  0
LINE
  8
0
 62
     0
 10
249.4
 20
22.0638
 30
0.0
 11
251.126
 21
22.0638
 31
0.0
  0
LINE
  8
0
 62
     0
 10
251.126
 20
22.0638
 30
0.0
 11
251.126
 21
26.5327
 31
0.0
  0
LINE
  8
0
 62
     0
 10
251.126
 20
26.5327
 30
0.0
 11
251.849
 21
26.5327
 31
0.0
  0
LINE
  8
0
 62
     0
 10
251.849
 20
26.5327
 30
0.0
 11
251.849
 21
22.4331
 31
0.0
  0
LINE
  8
0
 62
     0
 10
251.849
 20
22.4331
 30
0.0
 11
252.65
 21
22.4331
 31
0.0
  0
LINE
  8
0
 62
     0
 10
252.65
 20
22.4331
 30
0.0
 11
252.65
 21
21.8336
 31
0.0
  0
LINE
  8
0
 62
     0
 10
252.65
 20
21.8336
 30
0.0
 11
266.65
 21
21.8336
 31
0.0
  0
LINE
  8
0
 62
     0
 10
266.65
 20
21.8336
 30
0.0
 11
266.65
 21
22.4331
 31
0.0
  0
LINE
  8
0
 62
     0
 10
266.65
 20
22.4331
 30
0.0
 11
267.451
 21
22.4331
 31
0.0
  0
LINE
  8
0
 62
     0
 10
267.451
 20
22.4331
 30
0.0
 11
267.451
 21
26.5327
 31
0.0
  0
LINE
  8
0
 62
     0
 10
267.451
 20
26.5327
 30
0.0
 11
268.176
 21
26.5327
 31
0.0
  0
LINE
  8
0
 62
     0
 10
268.176
 20
26.5327
 30
0.0
 11
268.176
 21
22.0638
 31
0.0
  0
LINE
  8
0
 62
     0
 10
268.176
 20
22.0638
 30
0.0
 11
269.9
 21
22.0638
 31
0.0
  0
LINE
  8
0
 62
     0
 10
269.9
 20
22.0638
 30
0.0
 11
269.9
 21
21.0826
 31
0.0
  0
LINE
  8
0
 62
     0
 10
269.9
 20
21.0826
 30
0.0
 11
273.2
 21
21.0826
 31
0.0
  0
LINE
  8
0
 62
     0
 10
273.2
 20
21.0826
 30
0.0
 11
273.2
 21
22.0638
 31
0.0
  0
LINE
  8
0
 62
     0
 10
273.2
 20
22.0638
 30
0.0
 11
274.925
 21
22.0638
 31
0.0
  0
LINE
  8
0
 62
     0
 10
274.925
 20
22.0638
 30
0.0
 11
274.925
 21
28.3338
 31
0.0
  0
LINE
  8
0
 62
     0
 10
274.925
 20
28.3338
 30
0.0
 11
275.751
 21
28.3338
 31
0.0
  0
LINE
  8
0
 62
     0
 10
275.751
 20
28.3338
 30
0.0
 11
275.751
 21
31.1326
 31
0.0
  0
LINE
  8
0
 62
     0
 10
275.751
 20
31.1326
 30
0.0
 11
274.925
 21
31.1326
 31
0.0
  0
LINE
  8
0
 62
     0
 10
274.925
 20
31.1326
 30
0.0
 11
274.925
 21
34.3628
 31
0.0
  0
LINE
  8
0
 62
     0
 10
274.925
 20
34.3628
 30
0.0
 11
273.2
 21
34.3628
 31
0.0
  0
LINE
  8
0
 62
     0
 10
273.2
 20
34.3628
 30
0.0
 11
273.2
 21
35.2848
 31
0.0
  0
LINE
  8
0
 62
     0
 10
273.2
 20
35.2848
 30
0.0
 11
269.9
 21
35.2848
 31
0.0
  0
LINE
  8
0
 62
     0
 10
269.9
 20
35.2848
 30
0.0
 11
269.9
 21
34.3628
 31
0.0
  0
LINE
  8
0
 62
     0
 10
269.9
 20
34.3628
 30
0.0
 11
268.176
 21
34.3628
 31
0.0
  0
LINE
  8
0
 62
     0
 10
268.176
 20
34.3628
 30
0.0
 11
268.176
 21
31.1326
 31
0.0
  0
LINE
  8
0
 62
     0
 10
268.176
 20
31.1326
 30
0.0
 11
267.451
 21
31.1326
 31
0.0
  0
LINE
  8
0
 62
     0
 10
267.451
 20
31.1326
 30
0.0
 11
267.451
 21
35.2337
 31
0.0
  0
LINE
  8
0
 62
     0
 10
267.451
 20
35.2337
 30
0.0
 11
266.65
 21
35.2337
 31
0.0
  0
LINE
  8
0
 62
     0
 10
266.65
 20
35.2337
 30
0.0
 11
266.65
 21
35.833
 31
0.0
  0
LINE
  8
0
 62
     0
 10
266.65
 20
35.833
 30
0.0
 11
252.65
 21
35.833
 31
0.0
  0
LINE
  8
0
 62
     0
 10
216.932
 20
35.833
 30
0.0
 11
216.932
 21
35.2337
 31
0.0
  0
LINE
  8
0
 62
     0
 10
216.932
 20
35.2337
 30
0.0
 11
216.131
 21
35.2337
 31
0.0
  0
LINE
  8
0
 62
     0
 10
216.131
 20
35.2337
 30
0.0
 11
216.131
 21
22.4331
 31
0.0
  0
LINE
  8
0
 62
     0
 10
216.131
 20
22.4331
 30
0.0
 11
216.932
 21
22.4331
 31
0.0
  0
LINE
  8
0
 62
     0
 10
216.932
 20
22.4331
 30
0.0
 11
216.932
 21
21.8336
 31
0.0
  0
LINE
  8
0
 62
     0
 10
216.932
 20
21.8336
 30
0.0
 11
230.932
 21
21.8336
 31
0.0
  0
LINE
  8
0
 62
     0
 10
230.932
 20
21.8336
 30
0.0
 11
230.932
 21
22.4331
 31
0.0
  0
LINE
  8
0
 62
     0
 10
230.932
 20
22.4331
 30
0.0
 11
231.731
 21
22.4331
 31
0.0
  0
LINE
  8
0
 62
     0
 10
231.731
 20
22.4331
 30
0.0
 11
231.731
 21
35.2337
 31
0.0
  0
LINE
  8
0
 62
     0
 10
231.731
 20
35.2337
 30
0.0
 11
230.932
 21
35.2337
 31
0.0
  0
LINE
  8
0
 62
     0
 10
230.932
 20
35.2337
 30
0.0
 11
230.932
 21
35.833
 31
0.0
  0
LINE
  8
0
 62
     0
 10
230.932
 20
35.833
 30
0.0
 11
216.932
 21
35.833
 31
0.0
  0
LINE
  8
0
 62
     0
 10
197.882
 20
35.833
 30
0.0
 11
197.882
 21
35.2337
 31
0.0
  0
LINE
  8
0
 62
     0
 10
197.882
 20
35.2337
 30
0.0
 11
197.081
 21
35.2337
 31
0.0
  0
LINE
  8
0
 62
     0
 10
197.081
 20
35.2337
 30
0.0
 11
197.081
 21
22.4331
 31
0.0
  0
LINE
  8
0
 62
     0
 10
197.081
 20
22.4331
 30
0.0
 11
197.882
 21
22.4331
 31
0.0
  0
LINE
  8
0
 62
     0
 10
197.882
 20
22.4331
 30
0.0
 11
197.882
 21
21.8336
 31
0.0
  0
LINE
  8
0
 62
     0
 10
197.882
 20
21.8336
 30
0.0
 11
211.882
 21
21.8336
 31
0.0
  0
LINE
  8
0
 62
     0
 10
211.882
 20
21.8336
 30
0.0
 11
211.882
 21
22.4331
 31
0.0
  0
LINE
  8
0
 62
     0
 10
211.882
 20
22.4331
 30
0.0
 11
212.681
 21
22.4331
 31
0.0
  0
LINE
  8
0
 62
     0
 10
212.681
 20
22.4331
 30
0.0
 11
212.681
 21
35.2337
 31
0.0
  0
LINE
  8
0
 62
     0
 10
212.681
 20
35.2337
 30
0.0
 11
211.882
 21
35.2337
 31
0.0
  0
LINE
  8
0
 62
     0
 10
211.882
 20
35.2337
 30
0.0
 11
211.882
 21
35.833
 31
0.0
  0
LINE
  8
0
 62
     0
 10
211.882
 20
35.833
 30
0.0
 11
197.882
 21
35.833
 31
0.0
  0
LINE
  8
0
 62
     0
 10
178.832
 20
35.833
 30
0.0
 11
178.832
 21
35.2337
 31
0.0
  0
LINE
  8
0
 62
     0
 10
178.832
 20
35.2337
 30
0.0
 11
178.031
 21
35.2337
 31
0.0
  0
LINE
  8
0
 62
     0
 10
178.031
 20
35.2337
 30
0.0
 11
178.031
 21
22.4331
 31
0.0
  0
LINE
  8
0
 62
     0
 10
178.031
 20
22.4331
 30
0.0
 11
178.832
 21
22.4331
 31
0.0
  0
LINE
  8
0
 62
     0
 10
178.832
 20
22.4331
 30
0.0
 11
178.832
 21
21.8336
 31
0.0
  0
LINE
  8
0
 62
     0
 10
178.832
 20
21.8336
 30
0.0
 11
192.832
 21
21.8336
 31
0.0
  0
LINE
  8
0
 62
     0
 10
192.832
 20
21.8336
 30
0.0
 11
192.832
 21
22.4331
 31
0.0
  0
LINE
  8
0
 62
     0
 10
192.832
 20
22.4331
 30
0.0
 11
193.631
 21
22.4331
 31
0.0
  0
LINE
  8
0
 62
     0
 10
193.631
 20
22.4331
 30
0.0
 11
193.631
 21
35.2337
 31
0.0
  0
LINE
  8
0
 62
     0
 10
193.631
 20
35.2337
 30
0.0
 11
192.832
 21
35.2337
 31
0.0
  0
LINE
  8
0
 62
     0
 10
192.832
 20
35.2337
 30
0.0
 11
192.832
 21
35.833
 31
0.0
  0
LINE
  8
0
 62
     0
 10
192.832
 20
35.833
 30
0.0
 11
178.832
 21
35.833
 31
0.0
  0
LINE
  8
0
 62
     0
 10
159.782
 20
35.833
 30
0.0
 11
159.782
 21
35.2337
 31
0.0
  0
LINE
  8
0
 62
     0
 10
159.782
 20
35.2337
 30
0.0
 11
158.981
 21
35.2337
 31
0.0
  0
LINE
  8
0
 62
     0
 10
158.981
 20
35.2337
 30
0.0
 11
158.981
 21
22.4331
 31
0.0
  0
LINE
  8
0
 62
     0
 10
158.981
 20
22.4331
 30
0.0
 11
159.782
 21
22.4331
 31
0.0
  0
LINE
  8
0
 62
     0
 10
159.782
 20
22.4331
 30
0.0
 11
159.782
 21
21.8336
 31
0.0
  0
LINE
  8
0
 62
     0
 10
159.782
 20
21.8336
 30
0.0
 11
173.782
 21
21.8336
 31
0.0
  0
LINE
  8
0
 62
     0
 10
173.782
 20
21.8336
 30
0.0
 11
173.782
 21
22.4331
 31
0.0
  0
LINE
  8
0
 62
     0
 10
173.782
 20
22.4331
 30
0.0
 11
174.581
 21
22.4331
 31
0.0
  0
LINE
  8
0
 62
     0
 10
174.581
 20
22.4331
 30
0.0
 11
174.581
 21
35.2337
 31
0.0
  0
LINE
  8
0
 62
     0
 10
174.581
 20
35.2337
 30
0.0
 11
173.782
 21
35.2337
 31
0.0
  0
LINE
  8
0
 62
     0
 10
173.782
 20
35.2337
 30
0.0
 11
173.782
 21
35.833
 31
0.0
  0
LINE
  8
0
 62
     0
 10
173.782
 20
35.833
 30
0.0
 11
159.782
 21
35.833
 31
0.0
  0
LINE
  8
0
 62
     0
 10
140.732
 20
35.833
 30
0.0
 11
140.732
 21
35.2337
 31
0.0
  0
LINE
  8
0
 62
     0
 10
140.732
 20
35.2337
 30
0.0
 11
139.931
 21
35.2337
 31
0.0
  0
LINE
  8
0
 62
     0
 10
139.931
 20
35.2337
 30
0.0
 11
139.931
 21
22.4331
 31
0.0
  0
LINE
  8
0
 62
     0
 10
139.931
 20
22.4331
 30
0.0
 11
140.732
 21
22.4331
 31
0.0
  0
LINE
  8
0
 62
     0
 10
140.732
 20
22.4331
 30
0.0
 11
140.732
 21
21.8336
 31
0.0
  0
LINE
  8
0
 62
     0
 10
140.732
 20
21.8336
 30
0.0
 11
154.732
 21
21.8336
 31
0.0
  0
LINE
  8
0
 62
     0
 10
154.732
 20
21.8336
 30
0.0
 11
154.732
 21
22.4331
 31
0.0
  0
LINE
  8
0
 62
     0
 10
154.732
 20
22.4331
 30
0.0
 11
155.531
 21
22.4331
 31
0.0
  0
LINE
  8
0
 62
     0
 10
155.531
 20
22.4331
 30
0.0
 11
155.531
 21
35.2337
 31
0.0
  0
LINE
  8
0
 62
     0
 10
155.531
 20
35.2337
 30
0.0
 11
154.732
 21
35.2337
 31
0.0
  0
LINE
  8
0
 62
     0
 10
154.732
 20
35.2337
 30
0.0
 11
154.732
 21
35.833
 31
0.0
  0
LINE
  8
0
 62
     0
 10
154.732
 20
35.833
 30
0.0
 11
140.732
 21
35.833
 31
0.0
  0
LINE
  8
0
 62
     0
 10
121.682
 20
35.833
 30
0.0
 11
121.682
 21
35.2337
 31
0.0
  0
LINE
  8
0
 62
     0
 10
121.682
 20
35.2337
 30
0.0
 11
120.881
 21
35.2337
 31
0.0
  0
LINE
  8
0
 62
     0
 10
120.881
 20
35.2337
 30
0.0
 11
120.881
 21
22.4331
 31
0.0
  0
LINE
  8
0
 62
     0
 10
120.881
 20
22.4331
 30
0.0
 11
121.682
 21
22.4331
 31
0.0
  0
LINE
  8
0
 62
     0
 10
121.682
 20
22.4331
 30
0.0
 11
121.682
 21
21.8336
 31
0.0
  0
LINE
  8
0
 62
     0
 10
121.682
 20
21.8336
 30
0.0
 11
135.682
 21
21.8336
 31
0.0
  0
LINE
  8
0
 62
     0
 10
135.682
 20
21.8336
 30
0.0
 11
135.682
 21
22.4331
 31
0.0
  0
LINE
  8
0
 62
     0
 10
135.682
 20
22.4331
 30
0.0
 11
136.481
 21
22.4331
 31
0.0
  0
LINE
  8
0
 62
     0
 10
136.481
 20
22.4331
 30
0.0
 11
136.481
 21
35.2337
 31
0.0
  0
LINE
  8
0
 62
     0
 10
136.481
 20
35.2337
 30
0.0
 11
135.682
 21
35.2337
 31
0.0
  0
LINE
  8
0
 62
     0
 10
135.682
 20
35.2337
 30
0.0
 11
135.682
 21
35.833
 31
0.0
  0
LINE
  8
0
 62
     0
 10
135.682
 20
35.833
 30
0.0
 11
121.682
 21
35.833
 31
0.0
  0
LINE
  8
0
 62
     0
 10
102.632
 20
35.833
 30
0.0
 11
102.632
 21
35.2337
 31
0.0
  0
LINE
  8
0
 62
     0
 10
102.632
 20
35.2337
 30
0.0
 11
101.831
 21
35.2337
 31
0.0
  0
LINE
  8
0
 62
     0
 10
101.831
 20
35.2337
 30
0.0
 11
101.831
 21
22.4331
 31
0.0
  0
LINE
  8
0
 62
     0
 10
101.831
 20
22.4331
 30
0.0
 11
102.632
 21
22.4331
 31
0.0
  0
LINE
  8
0
 62
     0
 10
102.632
 20
22.4331
 30
0.0
 11
102.632
 21
21.8336
 31
0.0
  0
LINE
  8
0
 62
     0
 10
102.632
 20
21.8336
 30
0.0
 11
116.632
 21
21.8336
 31
0.0
  0
LINE
  8
0
 62
     0
 10
116.632
 20
21.8336
 30
0.0
 11
116.632
 21
22.4331
 31
0.0
  0
LINE
  8
0
 62
     0
 10
116.632
 20
22.4331
 30
0.0
 11
117.431
 21
22.4331
 31
0.0
  0
LINE
  8
0
 62
     0
 10
117.431
 20
22.4331
 30
0.0
 11
117.431
 21
35.2337
 31
0.0
  0
LINE
  8
0
 62
     0
 10
117.431
 20
35.2337
 30
0.0
 11
116.632
 21
35.2337
 31
0.0
  0
LINE
  8
0
 62
     0
 10
116.632
 20
35.2337
 30
0.0
 11
116.632
 21
35.833
 31
0.0
  0
LINE
  8
0
 62
     0
 10
116.632
 20
35.833
 30
0.0
 11
102.632
 21
35.833
 31
0.0
  0
LINE
  8
0
 62
     0
 10
83.5822
 20
35.833
 30
0.0
 11
83.5822
 21
35.2337
 31
0.0
  0
LINE
  8
0
 62
     0
 10
83.5822
 20
35.2337
 30
0.0
 11
82.7814
 21
35.2337
 31
0.0
  0
LINE
  8
0
 62
     0
 10
82.7814
 20
35.2337
 30
0.0
 11
82.7814
 21
22.4331
 31
0.0
  0
LINE
  8
0
 62
     0
 10
82.7814
 20
22.4331
 30
0.0
 11
83.5822
 21
22.4331
 31
0.0
  0
LINE
  8
0
 62
     0
 10
83.5822
 20
22.4331
 30
0.0
 11
83.5822
 21
21.8336
 31
0.0
  0
LINE
  8
0
 62
     0
 10
83.5822
 20
21.8336
 30
0.0
 11
97.5815
 21
21.8336
 31
0.0
  0
LINE
  8
0
 62
     0
 10
97.5815
 20
21.8336
 30
0.0
 11
97.5815
 21
22.4331
 31
0.0
  0
LINE
  8
0
 62
     0
 10
97.5815
 20
22.4331
 30
0.0
 11
98.3809
 21
22.4331
 31
0.0
  0
LINE
  8
0
 62
     0
 10
98.3809
 20
22.4331
 30
0.0
 11
98.3809
 21
35.2337
 31
0.0
  0
LINE
  8
0
 62
     0
 10
98.3809
 20
35.2337
 30
0.0
 11
97.5815
 21
35.2337
 31
0.0
  0
LINE
  8
0
 62
     0
 10
97.5815
 20
35.2337
 30
0.0
 11
97.5815
 21
35.833
 31
0.0
  0
LINE
  8
0
 62
     0
 10
97.5815
 20
35.833
 30
0.0
 11
83.5822
 21
35.833
 31
0.0
  0
LINE
  8
0
 62
     0
 10
64.5322
 20
35.833
 30
0.0
 11
64.5322
 21
35.2337
 31
0.0
  0
LINE
  8
0
 62
     0
 10
64.5322
 20
35.2337
 30
0.0
 11
63.7314
 21
35.2337
 31
0.0
  0
LINE
  8
0
 62
     0
 10
63.7314
 20
35.2337
 30
0.0
 11
63.7314
 21
22.4331
 31
0.0
  0
LINE
  8
0
 62
     0
 10
63.7314
 20
22.4331
 30
0.0
 11
64.5322
 21
22.4331
 31
0.0
  0
LINE
  8
0
 62
     0
 10
64.5322
 20
22.4331
 30
0.0
 11
64.5322
 21
21.8336
 31
0.0
  0
LINE
  8
0
 62
     0
 10
64.5322
 20
21.8336
 30
0.0
 11
78.5315
 21
21.8336
 31
0.0
  0
LINE
  8
0
 62
     0
 10
78.5315
 20
21.8336
 30
0.0
 11
78.5315
 21
22.4331
 31
0.0
  0
LINE
  8
0
 62
     0
 10
78.5315
 20
22.4331
 30
0.0
 11
79.3309
 21
22.4331
 31
0.0
  0
LINE
  8
0
 62
     0
 10
79.3309
 20
22.4331
 30
0.0
 11
79.3309
 21
35.2337
 31
0.0
  0
LINE
  8
0
 62
     0
 10
79.3309
 20
35.2337
 30
0.0
 11
78.5315
 21
35.2337
 31
0.0
  0
LINE
  8
0
 62
     0
 10
78.5315
 20
35.2337
 30
0.0
 11
78.5315
 21
35.833
 31
0.0
  0
LINE
  8
0
 62
     0
 10
78.5315
 20
35.833
 30
0.0
 11
64.5322
 21
35.833
 31
0.0
  0
LINE
  8
0
 62
     0
 10
45.4822
 20
35.833
 30
0.0
 11
45.4822
 21
35.2337
 31
0.0
  0
LINE
  8
0
 62
     0
 10
45.4822
 20
35.2337
 30
0.0
 11
44.6814
 21
35.2337
 31
0.0
  0
LINE
  8
0
 62
     0
 10
44.6814
 20
35.2337
 30
0.0
 11
44.6814
 21
22.4331
 31
0.0
  0
LINE
  8
0
 62
     0
 10
44.6814
 20
22.4331
 30
0.0
 11
45.4822
 21
22.4331
 31
0.0
  0
LINE
  8
0
 62
     0
 10
45.4822
 20
22.4331
 30
0.0
 11
45.4822
 21
21.8336
 31
0.0
  0
LINE
  8
0
 62
     0
 10
45.4822
 20
21.8336
 30
0.0
 11
59.4815
 21
21.8336
 31
0.0
  0
LINE
  8
0
 62
     0
 10
59.4815
 20
21.8336
 30
0.0
 11
59.4815
 21
22.4331
 31
0.0
  0
LINE
  8
0
 62
     0
 10
59.4815
 20
22.4331
 30
0.0
 11
60.2809
 21
22.4331
 31
0.0
  0
LINE
  8
0
 62
     0
 10
60.2809
 20
22.4331
 30
0.0
 11
60.2809
 21
35.2337
 31
0.0
  0
LINE
  8
0
 62
     0
 10
60.2809
 20
35.2337
 30
0.0
 11
59.4815
 21
35.2337
 31
0.0
  0
LINE
  8
0
 62
     0
 10
59.4815
 20
35.2337
 30
0.0
 11
59.4815
 21
35.833
 31
0.0
  0
LINE
  8
0
 62
     0
 10
59.4815
 20
35.833
 30
0.0
 11
45.4822
 21
35.833
 31
0.0
  0
LINE
  8
0
 62
     0
 10
26.4322
 20
35.833
 30
0.0
 11
26.4322
 21
35.2337
 31
0.0
  0
LINE
  8
0
 62
     0
 10
26.4322
 20
35.2337
 30
0.0
 11
25.6315
 21
35.2337
 31
0.0
  0
LINE
  8
0
 62
     0
 10
25.6315
 20
35.2337
 30
0.0
 11
25.6315
 21
22.4331
 31
0.0
  0
LINE
  8
0
 62
     0
 10
25.6315
 20
22.4331
 30
0.0
 11
26.4322
 21
22.4331
 31
0.0
  0
LINE
  8
0
 62
     0
 10
26.4322
 20
22.4331
 30
0.0
 11
26.4322
 21
21.8336
 31
0.0
  0
LINE
  8
0
 62
     0
 10
26.4322
 20
21.8336
 30
0.0
 11
40.4315
 21
21.8336
 31
0.0
  0
LINE
  8
0
 62
     0
 10
40.4315
 20
21.8336
 30
0.0
 11
40.4315
 21
22.4331
 31
0.0
  0
LINE
  8
0
 62
     0
 10
40.4315
 20
22.4331
 30
0.0
 11
41.2309
 21
22.4331
 31
0.0
  0
LINE
  8
0
 62
     0
 10
41.2309
 20
22.4331
 30
0.0
 11
41.2309
 21
35.2337
 31
0.0
  0
LINE
  8
0
 62
     0
 10
41.2309
 20
35.2337
 30
0.0
 11
40.4315
 21
35.2337
 31
0.0
  0
LINE
  8
0
 62
     0
 10
40.4315
 20
35.2337
 30
0.0
 11
40.4315
 21
35.833
 31
0.0
  0
LINE
  8
0
 62
     0
 10
40.4315
 20
35.833
 30
0.0
 11
26.4322
 21
35.833
 31
0.0
  0
LINE
  8
0
 62
     0
 10
5.00091
 20
35.833
 30
0.0
 11
5.00091
 21
35.2337
 31
0.0
  0
LINE
  8
0
 62
     0
 10
5.00091
 20
35.2337
 30
0.0
 11
4.20028
 21
35.2337
 31
0.0
  0
LINE
  8
0
 62
     0
 10
4.20028
 20
35.2337
 30
0.0
 11
4.20028
 21
22.4331
 31
0.0
  0
LINE
  8
0
 62
     0
 10
4.20028
 20
22.4331
 30
0.0
 11
5.00091
 21
22.4331
 31
0.0
  0
LINE
  8
0
 62
     0
 10
5.00091
 20
22.4331
 30
0.0
 11
5.00091
 21
21.8336
 31
0.0
  0
LINE
  8
0
 62
     0
 10
5.00091
 20
21.8336
 30
0.0
 11
19.0004
 21
21.8336
 31
0.0
  0
LINE
  8
0
 62
     0
 10
19.0004
 20
21.8336
 30
0.0
 11
19.0004
 21
22.4331
 31
0.0
  0
LINE
  8
0
 62
     0
 10
19.0004
 20
22.4331
 30
0.0
 11
19.801
 21
22.4331
 31
0.0
  0
LINE
  8
0
 62
     0
 10
19.801
 20
22.4331
 30
0.0
 11
19.801
 21
35.2337
 31
0.0
  0
LINE
  8
0
 62
     0
 10
19.801
 20
35.2337
 30
0.0
 11
19.0004
 21
35.2337
 31
0.0
  0
LINE
  8
0
 62
     0
 10
19.0004
 20
35.2337
 30
0.0
 11
19.0004
 21
35.833
 31
0.0
  0
LINE
  8
0
 62
     0
 10
19.0004
 20
35.833
 30
0.0
 11
5.00091
 21
35.833
 31
0.0
  0
LINE
  8
0
 62
     0
 10
245.507
 20
54.8831
 30
0.0
 11
245.507
 21
54.2837
 31
0.0
  0
LINE
  8
0
 62
     0
 10
245.507
 20
54.2837
 30
0.0
 11
244.706
 21
54.2837
 31
0.0
  0
LINE
  8
0
 62
     0
 10
244.706
 20
54.2837
 30
0.0
 11
244.706
 21
41.4831
 31
0.0
  0
LINE
  8
0
 62
     0
 10
244.706
 20
41.4831
 30
0.0
 11
245.507
 21
41.4831
 31
0.0
  0
LINE
  8
0
 62
     0
 10
245.507
 20
41.4831
 30
0.0
 11
245.507
 21
40.8838
 31
0.0
  0
LINE
  8
0
 62
     0
 10
245.507
 20
40.8838
 30
0.0
 11
259.507
 21
40.8838
 31
0.0
  0
LINE
  8
0
 62
     0
 10
259.507
 20
40.8838
 30
0.0
 11
259.507
 21
41.4831
 31
0.0
  0
LINE
  8
0
 62
     0
 10
259.507
 20
41.4831
 30
0.0
 11
260.306
 21
41.4831
 31
0.0
  0
LINE
  8
0
 62
     0
 10
260.306
 20
41.4831
 30
0.0
 11
260.306
 21
54.2837
 31
0.0
  0
LINE
  8
0
 62
     0
 10
260.306
 20
54.2837
 30
0.0
 11
259.507
 21
54.2837
 31
0.0
  0
LINE
  8
0
 62
     0
 10
259.507
 20
54.2837
 30
0.0
 11
259.507
 21
54.8831
 31
0.0
  0
LINE
  8
0
 62
     0
 10
259.507
 20
54.8831
 30
0.0
 11
245.507
 21
54.8831
 31
0.0
  0
LINE
  8
0
 62
     0
 10
226.457
 20
54.8831
 30
0.0
 11
226.457
 21
54.2837
 31
0.0
  0
LINE
  8
0
 62
     0
 10
226.457
 20
54.2837
 30
0.0
 11
225.656
 21
54.2837
 31
0.0
  0
LINE
  8
0
 62
     0
 10
225.656
 20
54.2837
 30
0.0
 11
225.656
 21
41.4831
 31
0.0
  0
LINE
  8
0
 62
     0
 10
225.656
 20
41.4831
 30
0.0
 11
226.457
 21
41.4831
 31
0.0
  0
LINE
  8
0
 62
     0
 10
226.457
 20
41.4831
 30
0.0
 11
226.457
 21
40.8838
 31
0.0
  0
LINE
  8
0
 62
     0
 10
226.457
 20
40.8838
 30
0.0
 11
240.457
 21
40.8838
 31
0.0
  0
LINE
  8
0
 62
     0
 10
240.457
 20
40.8838
 30
0.0
 11
240.457
 21
41.4831
 31
0.0
  0
LINE
  8
0
 62
     0
 10
240.457
 20
41.4831
 30
0.0
 11
241.256
 21
41.4831
 31
0.0
  0
LINE
  8
0
 62
     0
 10
241.256
 20
41.4831
 30
0.0
 11
241.256
 21
54.2837
 31
0.0
  0
LINE
  8
0
 62
     0
 10
241.256
 20
54.2837
 30
0.0
 11
240.457
 21
54.2837
 31
0.0
  0
LINE
  8
0
 62
     0
 10
240.457
 20
54.2837
 30
0.0
 11
240.457
 21
54.8831
 31
0.0
  0
LINE
  8
0
 62
     0
 10
240.457
 20
54.8831
 30
0.0
 11
226.457
 21
54.8831
 31
0.0
  0
LINE
  8
0
 62
     0
 10
207.407
 20
54.8831
 30
0.0
 11
207.407
 21
54.2837
 31
0.0
  0
LINE
  8
0
 62
     0
 10
207.407
 20
54.2837
 30
0.0
 11
206.606
 21
54.2837
 31
0.0
  0
LINE
  8
0
 62
     0
 10
206.606
 20
54.2837
 30
0.0
 11
206.606
 21
41.4831
 31
0.0
  0
LINE
  8
0
 62
     0
 10
206.606
 20
41.4831
 30
0.0
 11
207.407
 21
41.4831
 31
0.0
  0
LINE
  8
0
 62
     0
 10
207.407
 20
41.4831
 30
0.0
 11
207.407
 21
40.8838
 31
0.0
  0
LINE
  8
0
 62
     0
 10
207.407
 20
40.8838
 30
0.0
 11
221.407
 21
40.8838
 31
0.0
  0
LINE
  8
0
 62
     0
 10
221.407
 20
40.8838
 30
0.0
 11
221.407
 21
41.4831
 31
0.0
  0
LINE
  8
0
 62
     0
 10
221.407
 20
41.4831
 30
0.0
 11
222.206
 21
41.4831
 31
0.0
  0
LINE
  8
0
 62
     0
 10
222.206
 20
41.4831
 30
0.0
 11
222.206
 21
54.2837
 31
0.0
  0
LINE
  8
0
 62
     0
 10
222.206
 20
54.2837
 30
0.0
 11
221.407
 21
54.2837
 31
0.0
  0
LINE
  8
0
 62
     0
 10
221.407
 20
54.2837
 30
0.0
 11
221.407
 21
54.8831
 31
0.0
  0
LINE
  8
0
 62
     0
 10
221.407
 20
54.8831
 30
0.0
 11
207.407
 21
54.8831
 31
0.0
  0
LINE
  8
0
 62
     0
 10
188.357
 20
54.8831
 30
0.0
 11
188.357
 21
54.2837
 31
0.0
  0
LINE
  8
0
 62
     0
 10
188.357
 20
54.2837
 30
0.0
 11
187.556
 21
54.2837
 31
0.0
  0
LINE
  8
0
 62
     0
 10
187.556
 20
54.2837
 30
0.0
 11
187.556
 21
41.4831
 31
0.0
  0
LINE
  8
0
 62
     0
 10
187.556
 20
41.4831
 30
0.0
 11
188.357
 21
41.4831
 31
0.0
  0
LINE
  8
0
 62
     0
 10
188.357
 20
41.4831
 30
0.0
 11
188.357
 21
40.8838
 31
0.0
  0
LINE
  8
0
 62
     0
 10
188.357
 20
40.8838
 30
0.0
 11
202.357
 21
40.8838
 31
0.0
  0
LINE
  8
0
 62
     0
 10
202.357
 20
40.8838
 30
0.0
 11
202.357
 21
41.4831
 31
0.0
  0
LINE
  8
0
 62
     0
 10
202.357
 20
41.4831
 30
0.0
 11
203.156
 21
41.4831
 31
0.0
  0
LINE
  8
0
 62
     0
 10
203.156
 20
41.4831
 30
0.0
 11
203.156
 21
54.2837
 31
0.0
  0
LINE
  8
0
 62
     0
 10
203.156
 20
54.2837
 30
0.0
 11
202.357
 21
54.2837
 31
0.0
  0
LINE
  8
0
 62
     0
 10
202.357
 20
54.2837
 30
0.0
 11
202.357
 21
54.8831
 31
0.0
  0
LINE
  8
0
 62
     0
 10
202.357
 20
54.8831
 30
0.0
 11
188.357
 21
54.8831
 31
0.0
  0
LINE
  8
0
 62
     0
 10
169.307
 20
54.8831
 30
0.0
 11
169.307
 21
54.2837
 31
0.0
  0
LINE
  8
0
 62
     0
 10
169.307
 20
54.2837
 30
0.0
 11
168.506
 21
54.2837
 31
0.0
  0
LINE
  8
0
 62
     0
 10
168.506
 20
54.2837
 30
0.0
 11
168.506
 21
41.4831
 31
0.0
  0
LINE
  8
0
 62
     0
 10
168.506
 20
41.4831
 30
0.0
 11
169.307
 21
41.4831
 31
0.0
  0
LINE
  8
0
 62
     0
 10
169.307
 20
41.4831
 30
0.0
 11
169.307
 21
40.8838
 31
0.0
  0
LINE
  8
0
 62
     0
 10
169.307
 20
40.8838
 30
0.0
 11
183.307
 21
40.8838
 31
0.0
  0
LINE
  8
0
 62
     0
 10
183.307
 20
40.8838
 30
0.0
 11
183.307
 21
41.4831
 31
0.0
  0
LINE
  8
0
 62
     0
 10
183.307
 20
41.4831
 30
0.0
 11
184.106
 21
41.4831
 31
0.0
  0
LINE
  8
0
 62
     0
 10
184.106
 20
41.4831
 30
0.0
 11
184.106
 21
54.2837
 31
0.0
  0
LINE
  8
0
 62
     0
 10
184.106
 20
54.2837
 30
0.0
 11
183.307
 21
54.2837
 31
0.0
  0
LINE
  8
0
 62
     0
 10
183.307
 20
54.2837
 30
0.0
 11
183.307
 21
54.8831
 31
0.0
  0
LINE
  8
0
 62
     0
 10
183.307
 20
54.8831
 30
0.0
 11
169.307
 21
54.8831
 31
0.0
  0
LINE
  8
0
 62
     0
 10
150.257
 20
54.8831
 30
0.0
 11
150.257
 21
54.2837
 31
0.0
  0
LINE
  8
0
 62
     0
 10
150.257
 20
54.2837
 30
0.0
 11
149.456
 21
54.2837
 31
0.0
  0
LINE
  8
0
 62
     0
 10
149.456
 20
54.2837
 30
0.0
 11
149.456
 21
41.4831
 31
0.0
  0
LINE
  8
0
 62
     0
 10
149.456
 20
41.4831
 30
0.0
 11
150.257
 21
41.4831
 31
0.0
  0
LINE
  8
0
 62
     0
 10
150.257
 20
41.4831
 30
0.0
 11
150.257
 21
40.8838
 31
0.0
  0
LINE
  8
0
 62
     0
 10
150.257
 20
40.8838
 30
0.0
 11
164.257
 21
40.8838
 31
0.0
  0
LINE
  8
0
 62
     0
 10
164.257
 20
40.8838
 30
0.0
 11
164.257
 21
41.4831
 31
0.0
  0
LINE
  8
0
 62
     0
 10
164.257
 20
41.4831
 30
0.0
 11
165.056
 21
41.4831
 31
0.0
  0
LINE
  8
0
 62
     0
 10
165.056
 20
41.4831
 30
0.0
 11
165.056
 21
54.2837
 31
0.0
  0
LINE
  8
0
 62
     0
 10
165.056
 20
54.2837
 30
0.0
 11
164.257
 21
54.2837
 31
0.0
  0
LINE
  8
0
 62
     0
 10
164.257
 20
54.2837
 30
0.0
 11
164.257
 21
54.8831
 31
0.0
  0
LINE
  8
0
 62
     0
 10
164.257
 20
54.8831
 30
0.0
 11
150.257
 21
54.8831
 31
0.0
  0
LINE
  8
0
 62
     0
 10
131.207
 20
54.8831
 30
0.0
 11
131.207
 21
54.2837
 31
0.0
  0
LINE
  8
0
 62
     0
 10
131.207
 20
54.2837
 30
0.0
 11
130.406
 21
54.2837
 31
0.0
  0
LINE
  8
0
 62
     0
 10
130.406
 20
54.2837
 30
0.0
 11
130.406
 21
41.4831
 31
0.0
  0
LINE
  8
0
 62
     0
 10
130.406
 20
41.4831
 30
0.0
 11
131.207
 21
41.4831
 31
0.0
  0
LINE
  8
0
 62
     0
 10
131.207
 20
41.4831
 30
0.0
 11
131.207
 21
40.8838
 31
0.0
  0
LINE
  8
0
 62
     0
 10
131.207
 20
40.8838
 30
0.0
 11
145.207
 21
40.8838
 31
0.0
  0
LINE
  8
0
 62
     0
 10
145.207
 20
40.8838
 30
0.0
 11
145.207
 21
41.4831
 31
0.0
  0
LINE
  8
0
 62
     0
 10
145.207
 20
41.4831
 30
0.0
 11
146.006
 21
41.4831
 31
0.0
  0
LINE
  8
0
 62
     0
 10
146.006
 20
41.4831
 30
0.0
 11
146.006
 21
54.2837
 31
0.0
  0
LINE
  8
0
 62
     0
 10
146.006
 20
54.2837
 30
0.0
 11
145.207
 21
54.2837
 31
0.0
  0
LINE
  8
0
 62
     0
 10
145.207
 20
54.2837
 30
0.0
 11
145.207
 21
54.8831
 31
0.0
  0
LINE
  8
0
 62
     0
 10
145.207
 20
54.8831
 30
0.0
 11
131.207
 21
54.8831
 31
0.0
  0
LINE
  8
0
 62
     0
 10
112.157
 20
54.8831
 30
0.0
 11
112.157
 21
54.2837
 31
0.0
  0
LINE
  8
0
 62
     0
 10
112.157
 20
54.2837
 30
0.0
 11
111.356
 21
54.2837
 31
0.0
  0
LINE
  8
0
 62
     0
 10
111.356
 20
54.2837
 30
0.0
 11
111.356
 21
41.4831
 31
0.0
  0
LINE
  8
0
 62
     0
 10
111.356
 20
41.4831
 30
0.0
 11
112.157
 21
41.4831
 31
0.0
  0
LINE
  8
0
 62
     0
 10
112.157
 20
41.4831
 30
0.0
 11
112.157
 21
40.8838
 31
0.0
  0
LINE
  8
0
 62
     0
 10
112.157
 20
40.8838
 30
0.0
 11
126.157
 21
40.8838
 31
0.0
  0
LINE
  8
0
 62
     0
 10
126.157
 20
40.8838
 30
0.0
 11
126.157
 21
41.4831
 31
0.0
  0
LINE
  8
0
 62
     0
 10
126.157
 20
41.4831
 30
0.0
 11
126.956
 21
41.4831
 31
0.0
  0
LINE
  8
0
 62
     0
 10
126.956
 20
41.4831
 30
0.0
 11
126.956
 21
54.2837
 31
0.0
  0
LINE
  8
0
 62
     0
 10
126.956
 20
54.2837
 30
0.0
 11
126.157
 21
54.2837
 31
0.0
  0
LINE
  8
0
 62
     0
 10
126.157
 20
54.2837
 30
0.0
 11
126.157
 21
54.8831
 31
0.0
  0
LINE
  8
0
 62
     0
 10
126.157
 20
54.8831
 30
0.0
 11
112.157
 21
54.8831
 31
0.0
  0
LINE
  8
0
 62
     0
 10
93.1072
 20
54.8831
 30
0.0
 11
93.1072
 21
54.2837
 31
0.0
  0
LINE
  8
0
 62
     0
 10
93.1072
 20
54.2837
 30
0.0
 11
92.3064
 21
54.2837
 31
0.0
  0
LINE
  8
0
 62
     0
 10
92.3064
 20
54.2837
 30
0.0
 11
92.3064
 21
41.4831
 31
0.0
  0
LINE
  8
0
 62
     0
 10
92.3064
 20
41.4831
 30
0.0
 11
93.1072
 21
41.4831
 31
0.0
  0
LINE
  8
0
 62
     0
 10
93.1072
 20
41.4831
 30
0.0
 11
93.1072
 21
40.8838
 31
0.0
  0
LINE
  8
0
 62
     0
 10
93.1072
 20
40.8838
 30
0.0
 11
107.107
 21
40.8838
 31
0.0
  0
LINE
  8
0
 62
     0
 10
107.107
 20
40.8838
 30
0.0
 11
107.107
 21
41.4831
 31
0.0
  0
LINE
  8
0
 62
     0
 10
107.107
 20
41.4831
 30
0.0
 11
107.906
 21
41.4831
 31
0.0
  0
LINE
  8
0
 62
     0
 10
107.906
 20
41.4831
 30
0.0
 11
107.906
 21
54.2837
 31
0.0
  0
LINE
  8
0
 62
     0
 10
107.906
 20
54.2837
 30
0.0
 11
107.107
 21
54.2837
 31
0.0
  0
LINE
  8
0
 62
     0
 10
107.107
 20
54.2837
 30
0.0
 11
107.107
 21
54.8831
 31
0.0
  0
LINE
  8
0
 62
     0
 10
107.107
 20
54.8831
 30
0.0
 11
93.1072
 21
54.8831
 31
0.0
  0
LINE
  8
0
 62
     0
 10
74.0572
 20
54.8831
 30
0.0
 11
74.0572
 21
54.2837
 31
0.0
  0
LINE
  8
0
 62
     0
 10
74.0572
 20
54.2837
 30
0.0
 11
73.2564
 21
54.2837
 31
0.0
  0
LINE
  8
0
 62
     0
 10
73.2564
 20
54.2837
 30
0.0
 11
73.2564
 21
41.4831
 31
0.0
  0
LINE
  8
0
 62
     0
 10
73.2564
 20
41.4831
 30
0.0
 11
74.0572
 21
41.4831
 31
0.0
  0
LINE
  8
0
 62
     0
 10
74.0572
 20
41.4831
 30
0.0
 11
74.0572
 21
40.8838
 31
0.0
  0
LINE
  8
0
 62
     0
 10
74.0572
 20
40.8838
 30
0.0
 11
88.0565
 21
40.8838
 31
0.0
  0
LINE
  8
0
 62
     0
 10
88.0565
 20
40.8838
 30
0.0
 11
88.0565
 21
41.4831
 31
0.0
  0
LINE
  8
0
 62
     0
 10
88.0565
 20
41.4831
 30
0.0
 11
88.8559
 21
41.4831
 31
0.0
  0
LINE
  8
0
 62
     0
 10
88.8559
 20
41.4831
 30
0.0
 11
88.8559
 21
54.2837
 31
0.0
  0
LINE
  8
0
 62
     0
 10
88.8559
 20
54.2837
 30
0.0
 11
88.0565
 21
54.2837
 31
0.0
  0
LINE
  8
0
 62
     0
 10
88.0565
 20
54.2837
 30
0.0
 11
88.0565
 21
54.8831
 31
0.0
  0
LINE
  8
0
 62
     0
 10
88.0565
 20
54.8831
 30
0.0
 11
74.0572
 21
54.8831
 31
0.0
  0
LINE
  8
0
 62
     0
 10
55.0072
 20
54.8831
 30
0.0
 11
55.0072
 21
54.2837
 31
0.0
  0
LINE
  8
0
 62
     0
 10
55.0072
 20
54.2837
 30
0.0
 11
54.2064
 21
54.2837
 31
0.0
  0
LINE
  8
0
 62
     0
 10
54.2064
 20
54.2837
 30
0.0
 11
54.2064
 21
41.4831
 31
0.0
  0
LINE
  8
0
 62
     0
 10
54.2064
 20
41.4831
 30
0.0
 11
55.0072
 21
41.4831
 31
0.0
  0
LINE
  8
0
 62
     0
 10
55.0072
 20
41.4831
 30
0.0
 11
55.0072
 21
40.8838
 31
0.0
  0
LINE
  8
0
 62
     0
 10
55.0072
 20
40.8838
 30
0.0
 11
69.0065
 21
40.8838
 31
0.0
  0
LINE
  8
0
 62
     0
 10
69.0065
 20
40.8838
 30
0.0
 11
69.0065
 21
41.4831
 31
0.0
  0
LINE
  8
0
 62
     0
 10
69.0065
 20
41.4831
 30
0.0
 11
69.8059
 21
41.4831
 31
0.0
  0
LINE
  8
0
 62
     0
 10
69.8059
 20
41.4831
 30
0.0
 11
69.8059
 21
54.2837
 31
0.0
  0
LINE
  8
0
 62
     0
 10
69.8059
 20
54.2837
 30
0.0
 11
69.0065
 21
54.2837
 31
0.0
  0
LINE
  8
0
 62
     0
 10
69.0065
 20
54.2837
 30
0.0
 11
69.0065
 21
54.8831
 31
0.0
  0
LINE
  8
0
 62
     0
 10
69.0065
 20
54.8831
 30
0.0
 11
55.0072
 21
54.8831
 31
0.0
  0
LINE
  8
0
 62
     0
 10
35.9572
 20
54.8831
 30
0.0
 11
35.9572
 21
54.2837
 31
0.0
  0
LINE
  8
0
 62
     0
 10
35.9572
 20
54.2837
 30
0.0
 11
35.1565
 21
54.2837
 31
0.0
  0
LINE
  8
0
 62
     0
 10
35.1565
 20
54.2837
 30
0.0
 11
35.1565
 21
41.4831
 31
0.0
  0
LINE
  8
0
 62
     0
 10
35.1565
 20
41.4831
 30
0.0
 11
35.9572
 21
41.4831
 31
0.0
  0
LINE
  8
0
 62
     0
 10
35.9572
 20
41.4831
 30
0.0
 11
35.9572
 21
40.8838
 31
0.0
  0
LINE
  8
0
 62
     0
 10
35.9572
 20
40.8838
 30
0.0
 11
49.9565
 21
40.8838
 31
0.0
  0
LINE
  8
0
 62
     0
 10
49.9565
 20
40.8838
 30
0.0
 11
49.9565
 21
41.4831
 31
0.0
  0
LINE
  8
0
 62
     0
 10
49.9565
 20
41.4831
 30
0.0
 11
50.7559
 21
41.4831
 31
0.0
  0
LINE
  8
0
 62
     0
 10
50.7559
 20
41.4831
 30
0.0
 11
50.7559
 21
54.2837
 31
0.0
  0
LINE
  8
0
 62
     0
 10
50.7559
 20
54.2837
 30
0.0
 11
49.9565
 21
54.2837
 31
0.0
  0
LINE
  8
0
 62
     0
 10
49.9565
 20
54.2837
 30
0.0
 11
49.9565
 21
54.8831
 31
0.0
  0
LINE
  8
0
 62
     0
 10
49.9565
 20
54.8831
 30
0.0
 11
35.9572
 21
54.8831
 31
0.0
  0
LINE
  8
0
 62
     0
 10
9.76203
 20
54.8831
 30
0.0
 11
9.76203
 21
54.2837
 31
0.0
  0
LINE
  8
0
 62
     0
 10
9.76203
 20
54.2837
 30
0.0
 11
8.96278
 21
54.2837
 31
0.0
  0
LINE
  8
0
 62
     0
 10
8.96278
 20
54.2837
 30
0.0
 11
8.96278
 21
41.4831
 31
0.0
  0
LINE
  8
0
 62
     0
 10
8.96278
 20
41.4831
 30
0.0
 11
9.76203
 21
41.4831
 31
0.0
  0
LINE
  8
0
 62
     0
 10
9.76203
 20
41.4831
 30
0.0
 11
9.76203
 21
40.8838
 31
0.0
  0
LINE
  8
0
 62
     0
 10
9.76203
 20
40.8838
 30
0.0
 11
23.7629
 21
40.8838
 31
0.0
  0
LINE
  8
0
 62
     0
 10
23.7629
 20
40.8838
 30
0.0
 11
23.7629
 21
41.4831
 31
0.0
  0
LINE
  8
0
 62
     0
 10
23.7629
 20
41.4831
 30
0.0
 11
24.5622
 21
41.4831
 31
0.0
  0
LINE
  8
0
 62
     0
 10
24.5622
 20
41.4831
 30
0.0
 11
24.5622
 21
54.2837
 31
0.0
  0
LINE
  8
0
 62
     0
 10
24.5622
 20
54.2837
 30
0.0
 11
23.7629
 21
54.2837
 31
0.0
  0
LINE
  8
0
 62
     0
 10
23.7629
 20
54.2837
 30
0.0
 11
23.7629
 21
54.8831
 31
0.0
  0
LINE
  8
0
 62
     0
 10
23.7629
 20
54.8831
 30
0.0
 11
9.76203
 21
54.8831
 31
0.0
  0
LINE
  8
0
 62
     0
 10
273.437
 20
73.5087
 30
0.0
 11
273.437
 21
72.6832
 31
0.0
  0
LINE
  8
0
 62
     0
 10
273.437
 20
72.6832
 30
0.0
 11
267.167
 21
72.6832
 31
0.0
  0
LINE
  8
0
 62
     0
 10
267.167
 20
72.6832
 30
0.0
 11
267.167
 21
70.9581
 31
0.0
  0
LINE
  8
0
 62
     0
 10
267.167
 20
70.9581
 30
0.0
 11
266.187
 21
70.9581
 31
0.0
  0
LINE
  8
0
 62
     0
 10
266.187
 20
70.9581
 30
0.0
 11
266.187
 21
67.6589
 31
0.0
  0
LINE
  8
0
 62
     0
 10
266.187
 20
67.6589
 30
0.0
 11
267.167
 21
67.6589
 31
0.0
  0
LINE
  8
0
 62
     0
 10
267.167
 20
67.6589
 30
0.0
 11
267.167
 21
65.9335
 31
0.0
  0
LINE
  8
0
 62
     0
 10
267.167
 20
65.9335
 30
0.0
 11
271.637
 21
65.9335
 31
0.0
  0
LINE
  8
0
 62
     0
 10
271.637
 20
65.9335
 30
0.0
 11
271.637
 21
65.2089
 31
0.0
  0
LINE
  8
0
 62
     0
 10
271.637
 20
65.2089
 30
0.0
 11
267.538
 21
65.2089
 31
0.0
  0
LINE
  8
0
 62
     0
 10
267.538
 20
65.2089
 30
0.0
 11
267.538
 21
64.4081
 31
0.0
  0
LINE
  8
0
 62
     0
 10
267.538
 20
64.4081
 30
0.0
 11
266.937
 21
64.4081
 31
0.0
  0
LINE
  8
0
 62
     0
 10
266.937
 20
64.4081
 30
0.0
 11
266.937
 21
50.4088
 31
0.0
  0
LINE
  8
0
 62
     0
 10
266.937
 20
50.4088
 30
0.0
 11
267.538
 21
50.4088
 31
0.0
  0
LINE
  8
0
 62
     0
 10
267.538
 20
50.4088
 30
0.0
 11
267.538
 21
49.608
 31
0.0
  0
LINE
  8
0
 62
     0
 10
267.538
 20
49.608
 30
0.0
 11
271.637
 21
49.608
 31
0.0
  0
LINE
  8
0
 62
     0
 10
271.637
 20
49.608
 30
0.0
 11
271.637
 21
48.883
 31
0.0
  0
LINE
  8
0
 62
     0
 10
271.637
 20
48.883
 30
0.0
 11
267.167
 21
48.883
 31
0.0
  0
LINE
  8
0
 62
     0
 10
267.167
 20
48.883
 30
0.0
 11
267.167
 21
47.1579
 31
0.0
  0
LINE
  8
0
 62
     0
 10
267.167
 20
47.1579
 30
0.0
 11
266.187
 21
47.1579
 31
0.0
  0
LINE
  8
0
 62
     0
 10
266.187
 20
47.1579
 30
0.0
 11
266.187
 21
43.8587
 31
0.0
  0
LINE
  8
0
 62
     0
 10
266.187
 20
43.8587
 30
0.0
 11
267.167
 21
43.8587
 31
0.0
  0
LINE
  8
0
 62
     0
 10
267.167
 20
43.8587
 30
0.0
 11
267.167
 21
42.1337
 31
0.0
  0
LINE
  8
0
 62
     0
 10
267.167
 20
42.1337
 30
0.0
 11
273.437
 21
42.1337
 31
0.0
  0
LINE
  8
0
 62
     0
 10
273.437
 20
42.1337
 30
0.0
 11
273.437
 21
41.3082
 31
0.0
  0
LINE
  8
0
 62
     0
 10
273.437
 20
41.3082
 30
0.0
 11
276.237
 21
41.3082
 31
0.0
  0
LINE
  8
0
 62
     0
 10
276.237
 20
41.3082
 30
0.0
 11
276.237
 21
42.1337
 31
0.0
  0
LINE
  8
0
 62
     0
 10
276.237
 20
42.1337
 30
0.0
 11
279.467
 21
42.1337
 31
0.0
  0
LINE
  8
0
 62
     0
 10
279.467
 20
42.1337
 30
0.0
 11
279.467
 21
43.8587
 31
0.0
  0
LINE
  8
0
 62
     0
 10
279.467
 20
43.8587
 30
0.0
 11
280.388
 21
43.8587
 31
0.0
  0
LINE
  8
0
 62
     0
 10
280.388
 20
43.8587
 30
0.0
 11
280.388
 21
47.1579
 31
0.0
  0
LINE
  8
0
 62
     0
 10
280.388
 20
47.1579
 30
0.0
 11
279.467
 21
47.1579
 31
0.0
  0
LINE
  8
0
 62
     0
 10
279.467
 20
47.1579
 30
0.0
 11
279.467
 21
48.883
 31
0.0
  0
LINE
  8
0
 62
     0
 10
279.467
 20
48.883
 30
0.0
 11
276.237
 21
48.883
 31
0.0
  0
LINE
  8
0
 62
     0
 10
276.237
 20
48.883
 30
0.0
 11
276.237
 21
49.608
 31
0.0
  0
LINE
  8
0
 62
     0
 10
276.237
 20
49.608
 30
0.0
 11
280.337
 21
49.608
 31
0.0
  0
LINE
  8
0
 62
     0
 10
280.337
 20
49.608
 30
0.0
 11
280.337
 21
50.4088
 31
0.0
  0
LINE
  8
0
 62
     0
 10
280.337
 20
50.4088
 30
0.0
 11
280.938
 21
50.4088
 31
0.0
  0
LINE
  8
0
 62
     0
 10
280.938
 20
50.4088
 30
0.0
 11
280.938
 21
64.4081
 31
0.0
  0
LINE
  8
0
 62
     0
 10
280.938
 20
64.4081
 30
0.0
 11
280.337
 21
64.4081
 31
0.0
  0
LINE
  8
0
 62
     0
 10
280.337
 20
64.4081
 30
0.0
 11
280.337
 21
65.2089
 31
0.0
  0
LINE
  8
0
 62
     0
 10
280.337
 20
65.2089
 30
0.0
 11
276.237
 21
65.2089
 31
0.0
  0
LINE
  8
0
 62
     0
 10
276.237
 20
65.2089
 30
0.0
 11
276.237
 21
65.9335
 31
0.0
  0
LINE
  8
0
 62
     0
 10
276.237
 20
65.9335
 30
0.0
 11
279.467
 21
65.9335
 31
0.0
  0
LINE
  8
0
 62
     0
 10
279.467
 20
65.9335
 30
0.0
 11
279.467
 21
67.6589
 31
0.0
  0
LINE
  8
0
 62
     0
 10
279.467
 20
67.6589
 30
0.0
 11
280.388
 21
67.6589
 31
0.0
  0
LINE
  8
0
 62
     0
 10
280.388
 20
67.6589
 30
0.0
 11
280.388
 21
70.9581
 31
0.0
  0
LINE
  8
0
 62
     0
 10
280.388
 20
70.9581
 30
0.0
 11
279.467
 21
70.9581
 31
0.0
  0
LINE
  8
0
 62
     0
 10
279.467
 20
70.9581
 30
0.0
 11
279.467
 21
72.6832
 31
0.0
  0
LINE
  8
0
 62
     0
 10
279.467
 20
72.6832
 30
0.0
 11
276.237
 21
72.6832
 31
0.0
  0
LINE
  8
0
 62
     0
 10
276.237
 20
72.6832
 30
0.0
 11
276.237
 21
73.5087
 31
0.0
  0
LINE
  8
0
 62
     0
 10
276.237
 20
73.5087
 30
0.0
 11
273.437
 21
73.5087
 31
0.0
  0
LINE
  8
0
 62
     0
 10
240.745
 20
73.9331
 30
0.0
 11
240.745
 21
73.3337
 31
0.0
  0
LINE
  8
0
 62
     0
 10
240.745
 20
73.3337
 30
0.0
 11
239.944
 21
73.3337
 31
0.0
  0
LINE
  8
0
 62
     0
 10
239.944
 20
73.3337
 30
0.0
 11
239.944
 21
60.5331
 31
0.0
  0
LINE
  8
0
 62
     0
 10
239.944
 20
60.5331
 30
0.0
 11
240.745
 21
60.5331
 31
0.0
  0
LINE
  8
0
 62
     0
 10
240.745
 20
60.5331
 30
0.0
 11
240.745
 21
59.9338
 31
0.0
  0
LINE
  8
0
 62
     0
 10
240.745
 20
59.9338
 30
0.0
 11
254.744
 21
59.9338
 31
0.0
  0
LINE
  8
0
 62
     0
 10
254.744
 20
59.9338
 30
0.0
 11
254.744
 21
60.5331
 31
0.0
  0
LINE
  8
0
 62
     0
 10
254.744
 20
60.5331
 30
0.0
 11
255.545
 21
60.5331
 31
0.0
  0
LINE
  8
0
 62
     0
 10
255.545
 20
60.5331
 30
0.0
 11
255.545
 21
73.3337
 31
0.0
  0
LINE
  8
0
 62
     0
 10
255.545
 20
73.3337
 30
0.0
 11
254.744
 21
73.3337
 31
0.0
  0
LINE
  8
0
 62
     0
 10
254.744
 20
73.3337
 30
0.0
 11
254.744
 21
73.9331
 31
0.0
  0
LINE
  8
0
 62
     0
 10
254.744
 20
73.9331
 30
0.0
 11
240.745
 21
73.9331
 31
0.0
  0
LINE
  8
0
 62
     0
 10
221.695
 20
73.9331
 30
0.0
 11
221.695
 21
73.3337
 31
0.0
  0
LINE
  8
0
 62
     0
 10
221.695
 20
73.3337
 30
0.0
 11
220.894
 21
73.3337
 31
0.0
  0
LINE
  8
0
 62
     0
 10
220.894
 20
73.3337
 30
0.0
 11
220.894
 21
60.5331
 31
0.0
  0
LINE
  8
0
 62
     0
 10
220.894
 20
60.5331
 30
0.0
 11
221.695
 21
60.5331
 31
0.0
  0
LINE
  8
0
 62
     0
 10
221.695
 20
60.5331
 30
0.0
 11
221.695
 21
59.9338
 31
0.0
  0
LINE
  8
0
 62
     0
 10
221.695
 20
59.9338
 30
0.0
 11
235.694
 21
59.9338
 31
0.0
  0
LINE
  8
0
 62
     0
 10
235.694
 20
59.9338
 30
0.0
 11
235.694
 21
60.5331
 31
0.0
  0
LINE
  8
0
 62
     0
 10
235.694
 20
60.5331
 30
0.0
 11
236.495
 21
60.5331
 31
0.0
  0
LINE
  8
0
 62
     0
 10
236.495
 20
60.5331
 30
0.0
 11
236.495
 21
73.3337
 31
0.0
  0
LINE
  8
0
 62
     0
 10
236.495
 20
73.3337
 30
0.0
 11
235.694
 21
73.3337
 31
0.0
  0
LINE
  8
0
 62
     0
 10
235.694
 20
73.3337
 30
0.0
 11
235.694
 21
73.9331
 31
0.0
  0
LINE
  8
0
 62
     0
 10
235.694
 20
73.9331
 30
0.0
 11
221.695
 21
73.9331
 31
0.0
  0
LINE
  8
0
 62
     0
 10
202.645
 20
73.9331
 30
0.0
 11
202.645
 21
73.3337
 31
0.0
  0
LINE
  8
0
 62
     0
 10
202.645
 20
73.3337
 30
0.0
 11
201.844
 21
73.3337
 31
0.0
  0
LINE
  8
0
 62
     0
 10
201.844
 20
73.3337
 30
0.0
 11
201.844
 21
60.5331
 31
0.0
  0
LINE
  8
0
 62
     0
 10
201.844
 20
60.5331
 30
0.0
 11
202.645
 21
60.5331
 31
0.0
  0
LINE
  8
0
 62
     0
 10
202.645
 20
60.5331
 30
0.0
 11
202.645
 21
59.9338
 31
0.0
  0
LINE
  8
0
 62
     0
 10
202.645
 20
59.9338
 30
0.0
 11
216.644
 21
59.9338
 31
0.0
  0
LINE
  8
0
 62
     0
 10
216.644
 20
59.9338
 30
0.0
 11
216.644
 21
60.5331
 31
0.0
  0
LINE
  8
0
 62
     0
 10
216.644
 20
60.5331
 30
0.0
 11
217.445
 21
60.5331
 31
0.0
  0
LINE
  8
0
 62
     0
 10
217.445
 20
60.5331
 30
0.0
 11
217.445
 21
73.3337
 31
0.0
  0
LINE
  8
0
 62
     0
 10
217.445
 20
73.3337
 30
0.0
 11
216.644
 21
73.3337
 31
0.0
  0
LINE
  8
0
 62
     0
 10
216.644
 20
73.3337
 30
0.0
 11
216.644
 21
73.9331
 31
0.0
  0
LINE
  8
0
 62
     0
 10
216.644
 20
73.9331
 30
0.0
 11
202.645
 21
73.9331
 31
0.0
  0
LINE
  8
0
 62
     0
 10
183.595
 20
73.9331
 30
0.0
 11
183.595
 21
73.3337
 31
0.0
  0
LINE
  8
0
 62
     0
 10
183.595
 20
73.3337
 30
0.0
 11
182.794
 21
73.3337
 31
0.0
  0
LINE
  8
0
 62
     0
 10
182.794
 20
73.3337
 30
0.0
 11
182.794
 21
60.5331
 31
0.0
  0
LINE
  8
0
 62
     0
 10
182.794
 20
60.5331
 30
0.0
 11
183.595
 21
60.5331
 31
0.0
  0
LINE
  8
0
 62
     0
 10
183.595
 20
60.5331
 30
0.0
 11
183.595
 21
59.9338
 31
0.0
  0
LINE
  8
0
 62
     0
 10
183.595
 20
59.9338
 30
0.0
 11
197.594
 21
59.9338
 31
0.0
  0
LINE
  8
0
 62
     0
 10
197.594
 20
59.9338
 30
0.0
 11
197.594
 21
60.5331
 31
0.0
  0
LINE
  8
0
 62
     0
 10
197.594
 20
60.5331
 30
0.0
 11
198.395
 21
60.5331
 31
0.0
  0
LINE
  8
0
 62
     0
 10
198.395
 20
60.5331
 30
0.0
 11
198.395
 21
73.3337
 31
0.0
  0
LINE
  8
0
 62
     0
 10
198.395
 20
73.3337
 30
0.0
 11
197.594
 21
73.3337
 31
0.0
  0
LINE
  8
0
 62
     0
 10
197.594
 20
73.3337
 30
0.0
 11
197.594
 21
73.9331
 31
0.0
  0
LINE
  8
0
 62
     0
 10
197.594
 20
73.9331
 30
0.0
 11
183.595
 21
73.9331
 31
0.0
  0
LINE
  8
0
 62
     0
 10
164.545
 20
73.9331
 30
0.0
 11
164.545
 21
73.3337
 31
0.0
  0
LINE
  8
0
 62
     0
 10
164.545
 20
73.3337
 30
0.0
 11
163.744
 21
73.3337
 31
0.0
  0
LINE
  8
0
 62
     0
 10
163.744
 20
73.3337
 30
0.0
 11
163.744
 21
60.5331
 31
0.0
  0
LINE
  8
0
 62
     0
 10
163.744
 20
60.5331
 30
0.0
 11
164.545
 21
60.5331
 31
0.0
  0
LINE
  8
0
 62
     0
 10
164.545
 20
60.5331
 30
0.0
 11
164.545
 21
59.9338
 31
0.0
  0
LINE
  8
0
 62
     0
 10
164.545
 20
59.9338
 30
0.0
 11
178.544
 21
59.9338
 31
0.0
  0
LINE
  8
0
 62
     0
 10
178.544
 20
59.9338
 30
0.0
 11
178.544
 21
60.5331
 31
0.0
  0
LINE
  8
0
 62
     0
 10
178.544
 20
60.5331
 30
0.0
 11
179.345
 21
60.5331
 31
0.0
  0
LINE
  8
0
 62
     0
 10
179.345
 20
60.5331
 30
0.0
 11
179.345
 21
73.3337
 31
0.0
  0
LINE
  8
0
 62
     0
 10
179.345
 20
73.3337
 30
0.0
 11
178.544
 21
73.3337
 31
0.0
  0
LINE
  8
0
 62
     0
 10
178.544
 20
73.3337
 30
0.0
 11
178.544
 21
73.9331
 31
0.0
  0
LINE
  8
0
 62
     0
 10
178.544
 20
73.9331
 30
0.0
 11
164.545
 21
73.9331
 31
0.0
  0
LINE
  8
0
 62
     0
 10
145.495
 20
73.9331
 30
0.0
 11
145.495
 21
73.3337
 31
0.0
  0
LINE
  8
0
 62
     0
 10
145.495
 20
73.3337
 30
0.0
 11
144.694
 21
73.3337
 31
0.0
  0
LINE
  8
0
 62
     0
 10
144.694
 20
73.3337
 30
0.0
 11
144.694
 21
60.5331
 31
0.0
  0
LINE
  8
0
 62
     0
 10
144.694
 20
60.5331
 30
0.0
 11
145.495
 21
60.5331
 31
0.0
  0
LINE
  8
0
 62
     0
 10
145.495
 20
60.5331
 30
0.0
 11
145.495
 21
59.9338
 31
0.0
  0
LINE
  8
0
 62
     0
 10
145.495
 20
59.9338
 30
0.0
 11
159.494
 21
59.9338
 31
0.0
  0
LINE
  8
0
 62
     0
 10
159.494
 20
59.9338
 30
0.0
 11
159.494
 21
60.5331
 31
0.0
  0
LINE
  8
0
 62
     0
 10
159.494
 20
60.5331
 30
0.0
 11
160.295
 21
60.5331
 31
0.0
  0
LINE
  8
0
 62
     0
 10
160.295
 20
60.5331
 30
0.0
 11
160.295
 21
73.3337
 31
0.0
  0
LINE
  8
0
 62
     0
 10
160.295
 20
73.3337
 30
0.0
 11
159.494
 21
73.3337
 31
0.0
  0
LINE
  8
0
 62
     0
 10
159.494
 20
73.3337
 30
0.0
 11
159.494
 21
73.9331
 31
0.0
  0
LINE
  8
0
 62
     0
 10
159.494
 20
73.9331
 30
0.0
 11
145.495
 21
73.9331
 31
0.0
  0
LINE
  8
0
 62
     0
 10
126.445
 20
73.9331
 30
0.0
 11
126.445
 21
73.3337
 31
0.0
  0
LINE
  8
0
 62
     0
 10
126.445
 20
73.3337
 30
0.0
 11
125.644
 21
73.3337
 31
0.0
  0
LINE
  8
0
 62
     0
 10
125.644
 20
73.3337
 30
0.0
 11
125.644
 21
60.5331
 31
0.0
  0
LINE
  8
0
 62
     0
 10
125.644
 20
60.5331
 30
0.0
 11
126.445
 21
60.5331
 31
0.0
  0
LINE
  8
0
 62
     0
 10
126.445
 20
60.5331
 30
0.0
 11
126.445
 21
59.9338
 31
0.0
  0
LINE
  8
0
 62
     0
 10
126.445
 20
59.9338
 30
0.0
 11
140.444
 21
59.9338
 31
0.0
  0
LINE
  8
0
 62
     0
 10
140.444
 20
59.9338
 30
0.0
 11
140.444
 21
60.5331
 31
0.0
  0
LINE
  8
0
 62
     0
 10
140.444
 20
60.5331
 30
0.0
 11
141.245
 21
60.5331
 31
0.0
  0
LINE
  8
0
 62
     0
 10
141.245
 20
60.5331
 30
0.0
 11
141.245
 21
73.3337
 31
0.0
  0
LINE
  8
0
 62
     0
 10
141.245
 20
73.3337
 30
0.0
 11
140.444
 21
73.3337
 31
0.0
  0
LINE
  8
0
 62
     0
 10
140.444
 20
73.3337
 30
0.0
 11
140.444
 21
73.9331
 31
0.0
  0
LINE
  8
0
 62
     0
 10
140.444
 20
73.9331
 30
0.0
 11
126.445
 21
73.9331
 31
0.0
  0
LINE
  8
0
 62
     0
 10
107.395
 20
73.9331
 30
0.0
 11
107.395
 21
73.3337
 31
0.0
  0
LINE
  8
0
 62
     0
 10
107.395
 20
73.3337
 30
0.0
 11
106.594
 21
73.3337
 31
0.0
  0
LINE
  8
0
 62
     0
 10
106.594
 20
73.3337
 30
0.0
 11
106.594
 21
60.5331
 31
0.0
  0
LINE
  8
0
 62
     0
 10
106.594
 20
60.5331
 30
0.0
 11
107.395
 21
60.5331
 31
0.0
  0
LINE
  8
0
 62
     0
 10
107.395
 20
60.5331
 30
0.0
 11
107.395
 21
59.9338
 31
0.0
  0
LINE
  8
0
 62
     0
 10
107.395
 20
59.9338
 30
0.0
 11
121.394
 21
59.9338
 31
0.0
  0
LINE
  8
0
 62
     0
 10
121.394
 20
59.9338
 30
0.0
 11
121.394
 21
60.5331
 31
0.0
  0
LINE
  8
0
 62
     0
 10
121.394
 20
60.5331
 30
0.0
 11
122.195
 21
60.5331
 31
0.0
  0
LINE
  8
0
 62
     0
 10
122.195
 20
60.5331
 30
0.0
 11
122.195
 21
73.3337
 31
0.0
  0
LINE
  8
0
 62
     0
 10
122.195
 20
73.3337
 30
0.0
 11
121.394
 21
73.3337
 31
0.0
  0
LINE
  8
0
 62
     0
 10
121.394
 20
73.3337
 30
0.0
 11
121.394
 21
73.9331
 31
0.0
  0
LINE
  8
0
 62
     0
 10
121.394
 20
73.9331
 30
0.0
 11
107.395
 21
73.9331
 31
0.0
  0
LINE
  8
0
 62
     0
 10
88.3447
 20
73.9331
 30
0.0
 11
88.3447
 21
73.3337
 31
0.0
  0
LINE
  8
0
 62
     0
 10
88.3447
 20
73.3337
 30
0.0
 11
87.5439
 21
73.3337
 31
0.0
  0
LINE
  8
0
 62
     0
 10
87.5439
 20
73.3337
 30
0.0
 11
87.5439
 21
60.5331
 31
0.0
  0
LINE
  8
0
 62
     0
 10
87.5439
 20
60.5331
 30
0.0
 11
88.3447
 21
60.5331
 31
0.0
  0
LINE
  8
0
 62
     0
 10
88.3447
 20
60.5331
 30
0.0
 11
88.3447
 21
59.9338
 31
0.0
  0
LINE
  8
0
 62
     0
 10
88.3447
 20
59.9338
 30
0.0
 11
102.344
 21
59.9338
 31
0.0
  0
LINE
  8
0
 62
     0
 10
102.344
 20
59.9338
 30
0.0
 11
102.344
 21
60.5331
 31
0.0
  0
LINE
  8
0
 62
     0
 10
102.344
 20
60.5331
 30
0.0
 11
103.145
 21
60.5331
 31
0.0
  0
LINE
  8
0
 62
     0
 10
103.145
 20
60.5331
 30
0.0
 11
103.145
 21
73.3337
 31
0.0
  0
LINE
  8
0
 62
     0
 10
103.145
 20
73.3337
 30
0.0
 11
102.344
 21
73.3337
 31
0.0
  0
LINE
  8
0
 62
     0
 10
102.344
 20
73.3337
 30
0.0
 11
102.344
 21
73.9331
 31
0.0
  0
LINE
  8
0
 62
     0
 10
102.344
 20
73.9331
 30
0.0
 11
88.3447
 21
73.9331
 31
0.0
  0
LINE
  8
0
 62
     0
 10
69.2947
 20
73.9331
 30
0.0
 11
69.2947
 21
73.3337
 31
0.0
  0
LINE
  8
0
 62
     0
 10
69.2947
 20
73.3337
 30
0.0
 11
68.4939
 21
73.3337
 31
0.0
  0
LINE
  8
0
 62
     0
 10
68.4939
 20
73.3337
 30
0.0
 11
68.4939
 21
60.5331
 31
0.0
  0
LINE
  8
0
 62
     0
 10
68.4939
 20
60.5331
 30
0.0
 11
69.2947
 21
60.5331
 31
0.0
  0
LINE
  8
0
 62
     0
 10
69.2947
 20
60.5331
 30
0.0
 11
69.2947
 21
59.9338
 31
0.0
  0
LINE
  8
0
 62
     0
 10
69.2947
 20
59.9338
 30
0.0
 11
83.294
 21
59.9338
 31
0.0
  0
LINE
  8
0
 62
     0
 10
83.294
 20
59.9338
 30
0.0
 11
83.294
 21
60.5331
 31
0.0
  0
LINE
  8
0
 62
     0
 10
83.294
 20
60.5331
 30
0.0
 11
84.0948
 21
60.5331
 31
0.0
  0
LINE
  8
0
 62
     0
 10
84.0948
 20
60.5331
 30
0.0
 11
84.0948
 21
73.3337
 31
0.0
  0
LINE
  8
0
 62
     0
 10
84.0948
 20
73.3337
 30
0.0
 11
83.294
 21
73.3337
 31
0.0
  0
LINE
  8
0
 62
     0
 10
83.294
 20
73.3337
 30
0.0
 11
83.294
 21
73.9331
 31
0.0
  0
LINE
  8
0
 62
     0
 10
83.294
 20
73.9331
 30
0.0
 11
69.2947
 21
73.9331
 31
0.0
  0
LINE
  8
0
 62
     0
 10
50.2447
 20
73.9331
 30
0.0
 11
50.2447
 21
73.3337
 31
0.0
  0
LINE
  8
0
 62
     0
 10
50.2447
 20
73.3337
 30
0.0
 11
49.4439
 21
73.3337
 31
0.0
  0
LINE
  8
0
 62
     0
 10
49.4439
 20
73.3337
 30
0.0
 11
49.4439
 21
60.5331
 31
0.0
  0
LINE
  8
0
 62
     0
 10
49.4439
 20
60.5331
 30
0.0
 11
50.2447
 21
60.5331
 31
0.0
  0
LINE
  8
0
 62
     0
 10
50.2447
 20
60.5331
 30
0.0
 11
50.2447
 21
59.9338
 31
0.0
  0
LINE
  8
0
 62
     0
 10
50.2447
 20
59.9338
 30
0.0
 11
64.244
 21
59.9338
 31
0.0
  0
LINE
  8
0
 62
     0
 10
64.244
 20
59.9338
 30
0.0
 11
64.244
 21
60.5331
 31
0.0
  0
LINE
  8
0
 62
     0
 10
64.244
 20
60.5331
 30
0.0
 11
65.0448
 21
60.5331
 31
0.0
  0
LINE
  8
0
 62
     0
 10
65.0448
 20
60.5331
 30
0.0
 11
65.0448
 21
73.3337
 31
0.0
  0
LINE
  8
0
 62
     0
 10
65.0448
 20
73.3337
 30
0.0
 11
64.244
 21
73.3337
 31
0.0
  0
LINE
  8
0
 62
     0
 10
64.244
 20
73.3337
 30
0.0
 11
64.244
 21
73.9331
 31
0.0
  0
LINE
  8
0
 62
     0
 10
64.244
 20
73.9331
 30
0.0
 11
50.2447
 21
73.9331
 31
0.0
  0
LINE
  8
0
 62
     0
 10
31.1947
 20
73.9331
 30
0.0
 11
31.1947
 21
73.3337
 31
0.0
  0
LINE
  8
0
 62
     0
 10
31.1947
 20
73.3337
 30
0.0
 11
30.394
 21
73.3337
 31
0.0
  0
LINE
  8
0
 62
     0
 10
30.394
 20
73.3337
 30
0.0
 11
30.394
 21
60.5331
 31
0.0
  0
LINE
  8
0
 62
     0
 10
30.394
 20
60.5331
 30
0.0
 11
31.1947
 21
60.5331
 31
0.0
  0
LINE
  8
0
 62
     0
 10
31.1947
 20
60.5331
 30
0.0
 11
31.1947
 21
59.9338
 31
0.0
  0
LINE
  8
0
 62
     0
 10
31.1947
 20
59.9338
 30
0.0
 11
45.194
 21
59.9338
 31
0.0
  0
LINE
  8
0
 62
     0
 10
45.194
 20
59.9338
 30
0.0
 11
45.194
 21
60.5331
 31
0.0
  0
LINE
  8
0
 62
     0
 10
45.194
 20
60.5331
 30
0.0
 11
45.9948
 21
60.5331
 31
0.0
  0
LINE
  8
0
 62
     0
 10
45.9948
 20
60.5331
 30
0.0
 11
45.9948
 21
73.3337
 31
0.0
  0
LINE
  8
0
 62
     0
 10
45.9948
 20
73.3337
 30
0.0
 11
45.194
 21
73.3337
 31
0.0
  0
LINE
  8
0
 62
     0
 10
45.194
 20
73.3337
 30
0.0
 11
45.194
 21
73.9331
 31
0.0
  0
LINE
  8
0
 62
     0
 10
45.194
 20
73.9331
 30
0.0
 11
31.1947
 21
73.9331
 31
0.0
  0
LINE
  8
0
 62
     0
 10
7.38216
 20
73.9331
 30
0.0
 11
7.38216
 21
73.3337
 31
0.0
  0
LINE
  8
0
 62
     0
 10
7.38216
 20
73.3337
 30
0.0
 11
6.58153
 21
73.3337
 31
0.0
  0
LINE
  8
0
 62
     0
 10
6.58153
 20
73.3337
 30
0.0
 11
6.58153
 21
60.5331
 31
0.0
  0
LINE
  8
0
 62
     0
 10
6.58153
 20
60.5331
 30
0.0
 11
7.38216
 21
60.5331
 31
0.0
  0
LINE
  8
0
 62
     0
 10
7.38216
 20
60.5331
 30
0.0
 11
7.38216
 21
59.9338
 31
0.0
  0
LINE
  8
0
 62
     0
 10
7.38216
 20
59.9338
 30
0.0
 11
21.3817
 21
59.9338
 31
0.0
  0
LINE
  8
0
 62
     0
 10
21.3817
 20
59.9338
 30
0.0
 11
21.3817
 21
60.5331
 31
0.0
  0
LINE
  8
0
 62
     0
 10
21.3817
 20
60.5331
 30
0.0
 11
22.1809
 21
60.5331
 31
0.0
  0
LINE
  8
0
 62
     0
 10
22.1809
 20
60.5331
 30
0.0
 11
22.1809
 21
73.3337
 31
0.0
  0
LINE
  8
0
 62
     0
 10
22.1809
 20
73.3337
 30
0.0
 11
21.3817
 21
73.3337
 31
0.0
  0
LINE
  8
0
 62
     0
 10
21.3817
 20
73.3337
 30
0.0
 11
21.3817
 21
73.9331
 31
0.0
  0
LINE
  8
0
 62
     0
 10
21.3817
 20
73.9331
 30
0.0
 11
7.38216
 21
73.9331
 31
0.0
  0
LINE
  8
0
 62
     0
 10
259.795
 20
92.9831
 30
0.0
 11
259.795
 21
92.3837
 31
0.0
  0
LINE
  8
0
 62
     0
 10
259.795
 20
92.3837
 30
0.0
 11
258.994
 21
92.3837
 31
0.0
  0
LINE
  8
0
 62
     0
 10
258.994
 20
92.3837
 30
0.0
 11
258.994
 21
88.2826
 31
0.0
  0
LINE
  8
0
 62
     0
 10
258.994
 20
88.2826
 30
0.0
 11
258.269
 21
88.2826
 31
0.0
  0
LINE
  8
0
 62
     0
 10
258.269
 20
88.2826
 30
0.0
 11
258.269
 21
91.5127
 31
0.0
  0
LINE
  8
0
 62
     0
 10
258.269
 20
91.5127
 30
0.0
 11
256.544
 21
91.5127
 31
0.0
  0
LINE
  8
0
 62
     0
 10
256.544
 20
91.5127
 30
0.0
 11
256.544
 21
92.4348
 31
0.0
  0
LINE
  8
0
 62
     0
 10
256.544
 20
92.4348
 30
0.0
 11
253.243
 21
92.4348
 31
0.0
  0
LINE
  8
0
 62
     0
 10
253.243
 20
92.4348
 30
0.0
 11
253.243
 21
91.5127
 31
0.0
  0
LINE
  8
0
 62
     0
 10
253.243
 20
91.5127
 30
0.0
 11
251.52
 21
91.5127
 31
0.0
  0
LINE
  8
0
 62
     0
 10
251.52
 20
91.5127
 30
0.0
 11
251.52
 21
88.2826
 31
0.0
  0
LINE
  8
0
 62
     0
 10
251.52
 20
88.2826
 30
0.0
 11
250.694
 21
88.2826
 31
0.0
  0
LINE
  8
0
 62
     0
 10
250.694
 20
88.2826
 30
0.0
 11
250.694
 21
85.4837
 31
0.0
  0
LINE
  8
0
 62
     0
 10
250.694
 20
85.4837
 30
0.0
 11
251.52
 21
85.4837
 31
0.0
  0
LINE
  8
0
 62
     0
 10
251.52
 20
85.4837
 30
0.0
 11
251.52
 21
79.2138
 31
0.0
  0
LINE
  8
0
 62
     0
 10
251.52
 20
79.2138
 30
0.0
 11
253.243
 21
79.2138
 31
0.0
  0
LINE
  8
0
 62
     0
 10
253.243
 20
79.2138
 30
0.0
 11
253.243
 21
78.2327
 31
0.0
  0
LINE
  8
0
 62
     0
 10
253.243
 20
78.2327
 30
0.0
 11
256.544
 21
78.2327
 31
0.0
  0
LINE
  8
0
 62
     0
 10
256.544
 20
78.2327
 30
0.0
 11
256.544
 21
79.2138
 31
0.0
  0
LINE
  8
0
 62
     0
 10
256.544
 20
79.2138
 30
0.0
 11
258.269
 21
79.2138
 31
0.0
  0
LINE
  8
0
 62
     0
 10
258.269
 20
79.2138
 30
0.0
 11
258.269
 21
83.6828
 31
0.0
  0
LINE
  8
0
 62
     0
 10
258.269
 20
83.6828
 30
0.0
 11
258.994
 21
83.6828
 31
0.0
  0
LINE
  8
0
 62
     0
 10
258.994
 20
83.6828
 30
0.0
 11
258.994
 21
79.5831
 31
0.0
  0
LINE
  8
0
 62
     0
 10
258.994
 20
79.5831
 30
0.0
 11
259.795
 21
79.5831
 31
0.0
  0
LINE
  8
0
 62
     0
 10
259.795
 20
79.5831
 30
0.0
 11
259.795
 21
78.9838
 31
0.0
  0
LINE
  8
0
 62
     0
 10
259.795
 20
78.9838
 30
0.0
 11
273.794
 21
78.9838
 31
0.0
  0
LINE
  8
0
 62
     0
 10
273.794
 20
78.9838
 30
0.0
 11
273.794
 21
79.5831
 31
0.0
  0
LINE
  8
0
 62
     0
 10
273.794
 20
79.5831
 30
0.0
 11
274.595
 21
79.5831
 31
0.0
  0
LINE
  8
0
 62
     0
 10
274.595
 20
79.5831
 30
0.0
 11
274.595
 21
83.6828
 31
0.0
  0
LINE
  8
0
 62
     0
 10
274.595
 20
83.6828
 30
0.0
 11
275.318
 21
83.6828
 31
0.0
  0
LINE
  8
0
 62
     0
 10
275.318
 20
83.6828
 30
0.0
 11
275.318
 21
79.2138
 31
0.0
  0
LINE
  8
0
 62
     0
 10
275.318
 20
79.2138
 30
0.0
 11
277.045
 21
79.2138
 31
0.0
  0
LINE
  8
0
 62
     0
 10
277.045
 20
79.2138
 30
0.0
 11
277.045
 21
78.2327
 31
0.0
  0
LINE
  8
0
 62
     0
 10
277.045
 20
78.2327
 30
0.0
 11
280.344
 21
78.2327
 31
0.0
  0
LINE
  8
0
 62
     0
 10
280.344
 20
78.2327
 30
0.0
 11
280.344
 21
79.2138
 31
0.0
  0
LINE
  8
0
 62
     0
 10
280.344
 20
79.2138
 30
0.0
 11
282.068
 21
79.2138
 31
0.0
  0
LINE
  8
0
 62
     0
 10
282.068
 20
79.2138
 30
0.0
 11
282.068
 21
85.4837
 31
0.0
  0
LINE
  8
0
 62
     0
 10
282.068
 20
85.4837
 30
0.0
 11
282.895
 21
85.4837
 31
0.0
  0
LINE
  8
0
 62
     0
 10
282.895
 20
85.4837
 30
0.0
 11
282.895
 21
88.2826
 31
0.0
  0
LINE
  8
0
 62
     0
 10
282.895
 20
88.2826
 30
0.0
 11
282.068
 21
88.2826
 31
0.0
  0
LINE
  8
0
 62
     0
 10
282.068
 20
88.2826
 30
0.0
 11
282.068
 21
91.5127
 31
0.0
  0
LINE
  8
0
 62
     0
 10
282.068
 20
91.5127
 30
0.0
 11
280.344
 21
91.5127
 31
0.0
  0
LINE
  8
0
 62
     0
 10
280.344
 20
91.5127
 30
0.0
 11
280.344
 21
92.4348
 31
0.0
  0
LINE
  8
0
 62
     0
 10
280.344
 20
92.4348
 30
0.0
 11
277.045
 21
92.4348
 31
0.0
  0
LINE
  8
0
 62
     0
 10
277.045
 20
92.4348
 30
0.0
 11
277.045
 21
91.5127
 31
0.0
  0
LINE
  8
0
 62
     0
 10
277.045
 20
91.5127
 30
0.0
 11
275.318
 21
91.5127
 31
0.0
  0
LINE
  8
0
 62
     0
 10
275.318
 20
91.5127
 30
0.0
 11
275.318
 21
88.2826
 31
0.0
  0
LINE
  8
0
 62
     0
 10
275.318
 20
88.2826
 30
0.0
 11
274.595
 21
88.2826
 31
0.0
  0
LINE
  8
0
 62
     0
 10
274.595
 20
88.2826
 30
0.0
 11
274.595
 21
92.3837
 31
0.0
  0
LINE
  8
0
 62
     0
 10
274.595
 20
92.3837
 30
0.0
 11
273.794
 21
92.3837
 31
0.0
  0
LINE
  8
0
 62
     0
 10
273.794
 20
92.3837
 30
0.0
 11
273.794
 21
92.9831
 31
0.0
  0
LINE
  8
0
 62
     0
 10
273.794
 20
92.9831
 30
0.0
 11
259.795
 21
92.9831
 31
0.0
  0
LINE
  8
0
 62
     0
 10
231.22
 20
92.9831
 30
0.0
 11
231.22
 21
92.3837
 31
0.0
  0
LINE
  8
0
 62
     0
 10
231.22
 20
92.3837
 30
0.0
 11
230.419
 21
92.3837
 31
0.0
  0
LINE
  8
0
 62
     0
 10
230.419
 20
92.3837
 30
0.0
 11
230.419
 21
79.5831
 31
0.0
  0
LINE
  8
0
 62
     0
 10
230.419
 20
79.5831
 30
0.0
 11
231.22
 21
79.5831
 31
0.0
  0
LINE
  8
0
 62
     0
 10
231.22
 20
79.5831
 30
0.0
 11
231.22
 21
78.9838
 31
0.0
  0
LINE
  8
0
 62
     0
 10
231.22
 20
78.9838
 30
0.0
 11
245.219
 21
78.9838
 31
0.0
  0
LINE
  8
0
 62
     0
 10
245.219
 20
78.9838
 30
0.0
 11
245.219
 21
79.5831
 31
0.0
  0
LINE
  8
0
 62
     0
 10
245.219
 20
79.5831
 30
0.0
 11
246.02
 21
79.5831
 31
0.0
  0
LINE
  8
0
 62
     0
 10
246.02
 20
79.5831
 30
0.0
 11
246.02
 21
92.3837
 31
0.0
  0
LINE
  8
0
 62
     0
 10
246.02
 20
92.3837
 30
0.0
 11
245.219
 21
92.3837
 31
0.0
  0
LINE
  8
0
 62
     0
 10
245.219
 20
92.3837
 30
0.0
 11
245.219
 21
92.9831
 31
0.0
  0
LINE
  8
0
 62
     0
 10
245.219
 20
92.9831
 30
0.0
 11
231.22
 21
92.9831
 31
0.0
  0
LINE
  8
0
 62
     0
 10
212.17
 20
92.9831
 30
0.0
 11
212.17
 21
92.3837
 31
0.0
  0
LINE
  8
0
 62
     0
 10
212.17
 20
92.3837
 30
0.0
 11
211.369
 21
92.3837
 31
0.0
  0
LINE
  8
0
 62
     0
 10
211.369
 20
92.3837
 30
0.0
 11
211.369
 21
79.5831
 31
0.0
  0
LINE
  8
0
 62
     0
 10
211.369
 20
79.5831
 30
0.0
 11
212.17
 21
79.5831
 31
0.0
  0
LINE
  8
0
 62
     0
 10
212.17
 20
79.5831
 30
0.0
 11
212.17
 21
78.9838
 31
0.0
  0
LINE
  8
0
 62
     0
 10
212.17
 20
78.9838
 30
0.0
 11
226.169
 21
78.9838
 31
0.0
  0
LINE
  8
0
 62
     0
 10
226.169
 20
78.9838
 30
0.0
 11
226.169
 21
79.5831
 31
0.0
  0
LINE
  8
0
 62
     0
 10
226.169
 20
79.5831
 30
0.0
 11
226.97
 21
79.5831
 31
0.0
  0
LINE
  8
0
 62
     0
 10
226.97
 20
79.5831
 30
0.0
 11
226.97
 21
92.3837
 31
0.0
  0
LINE
  8
0
 62
     0
 10
226.97
 20
92.3837
 30
0.0
 11
226.169
 21
92.3837
 31
0.0
  0
LINE
  8
0
 62
     0
 10
226.169
 20
92.3837
 30
0.0
 11
226.169
 21
92.9831
 31
0.0
  0
LINE
  8
0
 62
     0
 10
226.169
 20
92.9831
 30
0.0
 11
212.17
 21
92.9831
 31
0.0
  0
LINE
  8
0
 62
     0
 10
193.12
 20
92.9831
 30
0.0
 11
193.12
 21
92.3837
 31
0.0
  0
LINE
  8
0
 62
     0
 10
193.12
 20
92.3837
 30
0.0
 11
192.319
 21
92.3837
 31
0.0
  0
LINE
  8
0
 62
     0
 10
192.319
 20
92.3837
 30
0.0
 11
192.319
 21
79.5831
 31
0.0
  0
LINE
  8
0
 62
     0
 10
192.319
 20
79.5831
 30
0.0
 11
193.12
 21
79.5831
 31
0.0
  0
LINE
  8
0
 62
     0
 10
193.12
 20
79.5831
 30
0.0
 11
193.12
 21
78.9838
 31
0.0
  0
LINE
  8
0
 62
     0
 10
193.12
 20
78.9838
 30
0.0
 11
207.119
 21
78.9838
 31
0.0
  0
LINE
  8
0
 62
     0
 10
207.119
 20
78.9838
 30
0.0
 11
207.119
 21
79.5831
 31
0.0
  0
LINE
  8
0
 62
     0
 10
207.119
 20
79.5831
 30
0.0
 11
207.92
 21
79.5831
 31
0.0
  0
LINE
  8
0
 62
     0
 10
207.92
 20
79.5831
 30
0.0
 11
207.92
 21
92.3837
 31
0.0
  0
LINE
  8
0
 62
     0
 10
207.92
 20
92.3837
 30
0.0
 11
207.119
 21
92.3837
 31
0.0
  0
LINE
  8
0
 62
     0
 10
207.119
 20
92.3837
 30
0.0
 11
207.119
 21
92.9831
 31
0.0
  0
LINE
  8
0
 62
     0
 10
207.119
 20
92.9831
 30
0.0
 11
193.12
 21
92.9831
 31
0.0
  0
LINE
  8
0
 62
     0
 10
174.07
 20
92.9831
 30
0.0
 11
174.07
 21
92.3837
 31
0.0
  0
LINE
  8
0
 62
     0
 10
174.07
 20
92.3837
 30
0.0
 11
173.269
 21
92.3837
 31
0.0
  0
LINE
  8
0
 62
     0
 10
173.269
 20
92.3837
 30
0.0
 11
173.269
 21
79.5831
 31
0.0
  0
LINE
  8
0
 62
     0
 10
173.269
 20
79.5831
 30
0.0
 11
174.07
 21
79.5831
 31
0.0
  0
LINE
  8
0
 62
     0
 10
174.07
 20
79.5831
 30
0.0
 11
174.07
 21
78.9838
 31
0.0
  0
LINE
  8
0
 62
     0
 10
174.07
 20
78.9838
 30
0.0
 11
188.069
 21
78.9838
 31
0.0
  0
LINE
  8
0
 62
     0
 10
188.069
 20
78.9838
 30
0.0
 11
188.069
 21
79.5831
 31
0.0
  0
LINE
  8
0
 62
     0
 10
188.069
 20
79.5831
 30
0.0
 11
188.87
 21
79.5831
 31
0.0
  0
LINE
  8
0
 62
     0
 10
188.87
 20
79.5831
 30
0.0
 11
188.87
 21
92.3837
 31
0.0
  0
LINE
  8
0
 62
     0
 10
188.87
 20
92.3837
 30
0.0
 11
188.069
 21
92.3837
 31
0.0
  0
LINE
  8
0
 62
     0
 10
188.069
 20
92.3837
 30
0.0
 11
188.069
 21
92.9831
 31
0.0
  0
LINE
  8
0
 62
     0
 10
188.069
 20
92.9831
 30
0.0
 11
174.07
 21
92.9831
 31
0.0
  0
LINE
  8
0
 62
     0
 10
155.02
 20
92.9831
 30
0.0
 11
155.02
 21
92.3837
 31
0.0
  0
LINE
  8
0
 62
     0
 10
155.02
 20
92.3837
 30
0.0
 11
154.219
 21
92.3837
 31
0.0
  0
LINE
  8
0
 62
     0
 10
154.219
 20
92.3837
 30
0.0
 11
154.219
 21
79.5831
 31
0.0
  0
LINE
  8
0
 62
     0
 10
154.219
 20
79.5831
 30
0.0
 11
155.02
 21
79.5831
 31
0.0
  0
LINE
  8
0
 62
     0
 10
155.02
 20
79.5831
 30
0.0
 11
155.02
 21
78.9838
 31
0.0
  0
LINE
  8
0
 62
     0
 10
155.02
 20
78.9838
 30
0.0
 11
169.019
 21
78.9838
 31
0.0
  0
LINE
  8
0
 62
     0
 10
169.019
 20
78.9838
 30
0.0
 11
169.019
 21
79.5831
 31
0.0
  0
LINE
  8
0
 62
     0
 10
169.019
 20
79.5831
 30
0.0
 11
169.82
 21
79.5831
 31
0.0
  0
LINE
  8
0
 62
     0
 10
169.82
 20
79.5831
 30
0.0
 11
169.82
 21
92.3837
 31
0.0
  0
LINE
  8
0
 62
     0
 10
169.82
 20
92.3837
 30
0.0
 11
169.019
 21
92.3837
 31
0.0
  0
LINE
  8
0
 62
     0
 10
169.019
 20
92.3837
 30
0.0
 11
169.019
 21
92.9831
 31
0.0
  0
LINE
  8
0
 62
     0
 10
169.019
 20
92.9831
 30
0.0
 11
155.02
 21
92.9831
 31
0.0
  0
LINE
  8
0
 62
     0
 10
135.97
 20
92.9831
 30
0.0
 11
135.97
 21
92.3837
 31
0.0
  0
LINE
  8
0
 62
     0
 10
135.97
 20
92.3837
 30
0.0
 11
135.169
 21
92.3837
 31
0.0
  0
LINE
  8
0
 62
     0
 10
135.169
 20
92.3837
 30
0.0
 11
135.169
 21
79.5831
 31
0.0
  0
LINE
  8
0
 62
     0
 10
135.169
 20
79.5831
 30
0.0
 11
135.97
 21
79.5831
 31
0.0
  0
LINE
  8
0
 62
     0
 10
135.97
 20
79.5831
 30
0.0
 11
135.97
 21
78.9838
 31
0.0
  0
LINE
  8
0
 62
     0
 10
135.97
 20
78.9838
 30
0.0
 11
149.969
 21
78.9838
 31
0.0
  0
LINE
  8
0
 62
     0
 10
149.969
 20
78.9838
 30
0.0
 11
149.969
 21
79.5831
 31
0.0
  0
LINE
  8
0
 62
     0
 10
149.969
 20
79.5831
 30
0.0
 11
150.77
 21
79.5831
 31
0.0
  0
LINE
  8
0
 62
     0
 10
150.77
 20
79.5831
 30
0.0
 11
150.77
 21
92.3837
 31
0.0
  0
LINE
  8
0
 62
     0
 10
150.77
 20
92.3837
 30
0.0
 11
149.969
 21
92.3837
 31
0.0
  0
LINE
  8
0
 62
     0
 10
149.969
 20
92.3837
 30
0.0
 11
149.969
 21
92.9831
 31
0.0
  0
LINE
  8
0
 62
     0
 10
149.969
 20
92.9831
 30
0.0
 11
135.97
 21
92.9831
 31
0.0
  0
LINE
  8
0
 62
     0
 10
116.918
 20
92.9831
 30
0.0
 11
116.918
 21
92.3837
 31
0.0
  0
LINE
  8
0
 62
     0
 10
116.918
 20
92.3837
 30
0.0
 11
116.119
 21
92.3837
 31
0.0
  0
LINE
  8
0
 62
     0
 10
116.119
 20
92.3837
 30
0.0
 11
116.119
 21
79.5831
 31
0.0
  0
LINE
  8
0
 62
     0
 10
116.119
 20
79.5831
 30
0.0
 11
116.918
 21
79.5831
 31
0.0
  0
LINE
  8
0
 62
     0
 10
116.918
 20
79.5831
 30
0.0
 11
116.918
 21
78.9838
 31
0.0
  0
LINE
  8
0
 62
     0
 10
116.918
 20
78.9838
 30
0.0
 11
130.919
 21
78.9838
 31
0.0
  0
LINE
  8
0
 62
     0
 10
130.919
 20
78.9838
 30
0.0
 11
130.919
 21
79.5831
 31
0.0
  0
LINE
  8
0
 62
     0
 10
130.919
 20
79.5831
 30
0.0
 11
131.72
 21
79.5831
 31
0.0
  0
LINE
  8
0
 62
     0
 10
131.72
 20
79.5831
 30
0.0
 11
131.72
 21
92.3837
 31
0.0
  0
LINE
  8
0
 62
     0
 10
131.72
 20
92.3837
 30
0.0
 11
130.919
 21
92.3837
 31
0.0
  0
LINE
  8
0
 62
     0
 10
130.919
 20
92.3837
 30
0.0
 11
130.919
 21
92.9831
 31
0.0
  0
LINE
  8
0
 62
     0
 10
130.919
 20
92.9831
 30
0.0
 11
116.918
 21
92.9831
 31
0.0
  0
LINE
  8
0
 62
     0
 10
97.8683
 20
92.9831
 30
0.0
 11
97.8683
 21
92.3837
 31
0.0
  0
LINE
  8
0
 62
     0
 10
97.8683
 20
92.3837
 30
0.0
 11
97.0689
 21
92.3837
 31
0.0
  0
LINE
  8
0
 62
     0
 10
97.0689
 20
92.3837
 30
0.0
 11
97.0689
 21
79.5831
 31
0.0
  0
LINE
  8
0
 62
     0
 10
97.0689
 20
79.5831
 30
0.0
 11
97.8683
 21
79.5831
 31
0.0
  0
LINE
  8
0
 62
     0
 10
97.8683
 20
79.5831
 30
0.0
 11
97.8683
 21
78.9838
 31
0.0
  0
LINE
  8
0
 62
     0
 10
97.8683
 20
78.9838
 30
0.0
 11
111.869
 21
78.9838
 31
0.0
  0
LINE
  8
0
 62
     0
 10
111.869
 20
78.9838
 30
0.0
 11
111.869
 21
79.5831
 31
0.0
  0
LINE
  8
0
 62
     0
 10
111.869
 20
79.5831
 30
0.0
 11
112.668
 21
79.5831
 31
0.0
  0
LINE
  8
0
 62
     0
 10
112.668
 20
79.5831
 30
0.0
 11
112.668
 21
92.3837
 31
0.0
  0
LINE
  8
0
 62
     0
 10
112.668
 20
92.3837
 30
0.0
 11
111.869
 21
92.3837
 31
0.0
  0
LINE
  8
0
 62
     0
 10
111.869
 20
92.3837
 30
0.0
 11
111.869
 21
92.9831
 31
0.0
  0
LINE
  8
0
 62
     0
 10
111.869
 20
92.9831
 30
0.0
 11
97.8683
 21
92.9831
 31
0.0
  0
LINE
  8
0
 62
     0
 10
78.8197
 20
92.9831
 30
0.0
 11
78.8197
 21
92.3837
 31
0.0
  0
LINE
  8
0
 62
     0
 10
78.8197
 20
92.3837
 30
0.0
 11
78.0189
 21
92.3837
 31
0.0
  0
LINE
  8
0
 62
     0
 10
78.0189
 20
92.3837
 30
0.0
 11
78.0189
 21
79.5831
 31
0.0
  0
LINE
  8
0
 62
     0
 10
78.0189
 20
79.5831
 30
0.0
 11
78.8197
 21
79.5831
 31
0.0
  0
LINE
  8
0
 62
     0
 10
78.8197
 20
79.5831
 30
0.0
 11
78.8197
 21
78.9838
 31
0.0
  0
LINE
  8
0
 62
     0
 10
78.8197
 20
78.9838
 30
0.0
 11
92.819
 21
78.9838
 31
0.0
  0
LINE
  8
0
 62
     0
 10
92.819
 20
78.9838
 30
0.0
 11
92.819
 21
79.5831
 31
0.0
  0
LINE
  8
0
 62
     0
 10
92.819
 20
79.5831
 30
0.0
 11
93.6184
 21
79.5831
 31
0.0
  0
LINE
  8
0
 62
     0
 10
93.6184
 20
79.5831
 30
0.0
 11
93.6184
 21
92.3837
 31
0.0
  0
LINE
  8
0
 62
     0
 10
93.6184
 20
92.3837
 30
0.0
 11
92.819
 21
92.3837
 31
0.0
  0
LINE
  8
0
 62
     0
 10
92.819
 20
92.3837
 30
0.0
 11
92.819
 21
92.9831
 31
0.0
  0
LINE
  8
0
 62
     0
 10
92.819
 20
92.9831
 30
0.0
 11
78.8197
 21
92.9831
 31
0.0
  0
LINE
  8
0
 62
     0
 10
59.7697
 20
92.9831
 30
0.0
 11
59.7697
 21
92.3837
 31
0.0
  0
LINE
  8
0
 62
     0
 10
59.7697
 20
92.3837
 30
0.0
 11
58.9689
 21
92.3837
 31
0.0
  0
LINE
  8
0
 62
     0
 10
58.9689
 20
92.3837
 30
0.0
 11
58.9689
 21
79.5831
 31
0.0
  0
LINE
  8
0
 62
     0
 10
58.9689
 20
79.5831
 30
0.0
 11
59.7697
 21
79.5831
 31
0.0
  0
LINE
  8
0
 62
     0
 10
59.7697
 20
79.5831
 30
0.0
 11
59.7697
 21
78.9838
 31
0.0
  0
LINE
  8
0
 62
     0
 10
59.7697
 20
78.9838
 30
0.0
 11
73.769
 21
78.9838
 31
0.0
  0
LINE
  8
0
 62
     0
 10
73.769
 20
78.9838
 30
0.0
 11
73.769
 21
79.5831
 31
0.0
  0
LINE
  8
0
 62
     0
 10
73.769
 20
79.5831
 30
0.0
 11
74.5698
 21
79.5831
 31
0.0
  0
LINE
  8
0
 62
     0
 10
74.5698
 20
79.5831
 30
0.0
 11
74.5698
 21
92.3837
 31
0.0
  0
LINE
  8
0
 62
     0
 10
74.5698
 20
92.3837
 30
0.0
 11
73.769
 21
92.3837
 31
0.0
  0
LINE
  8
0
 62
     0
 10
73.769
 20
92.3837
 30
0.0
 11
73.769
 21
92.9831
 31
0.0
  0
LINE
  8
0
 62
     0
 10
73.769
 20
92.9831
 30
0.0
 11
59.7697
 21
92.9831
 31
0.0
  0
LINE
  8
0
 62
     0
 10
40.7197
 20
92.9831
 30
0.0
 11
40.7197
 21
92.3837
 31
0.0
  0
LINE
  8
0
 62
     0
 10
40.7197
 20
92.3837
 30
0.0
 11
39.9189
 21
92.3837
 31
0.0
  0
LINE
  8
0
 62
     0
 10
39.9189
 20
92.3837
 30
0.0
 11
39.9189
 21
79.5831
 31
0.0
  0
LINE
  8
0
 62
     0
 10
39.9189
 20
79.5831
 30
0.0
 11
40.7197
 21
79.5831
 31
0.0
  0
LINE
  8
0
 62
     0
 10
40.7197
 20
79.5831
 30
0.0
 11
40.7197
 21
78.9838
 31
0.0
  0
LINE
  8
0
 62
     0
 10
40.7197
 20
78.9838
 30
0.0
 11
54.719
 21
78.9838
 31
0.0
  0
LINE
  8
0
 62
     0
 10
54.719
 20
78.9838
 30
0.0
 11
54.719
 21
79.5831
 31
0.0
  0
LINE
  8
0
 62
     0
 10
54.719
 20
79.5831
 30
0.0
 11
55.5198
 21
79.5831
 31
0.0
  0
LINE
  8
0
 62
     0
 10
55.5198
 20
79.5831
 30
0.0
 11
55.5198
 21
92.3837
 31
0.0
  0
LINE
  8
0
 62
     0
 10
55.5198
 20
92.3837
 30
0.0
 11
54.719
 21
92.3837
 31
0.0
  0
LINE
  8
0
 62
     0
 10
54.719
 20
92.3837
 30
0.0
 11
54.719
 21
92.9831
 31
0.0
  0
LINE
  8
0
 62
     0
 10
54.719
 20
92.9831
 30
0.0
 11
40.7197
 21
92.9831
 31
0.0
  0
LINE
  8
0
 62
     0
 10
21.6697
 20
92.9831
 30
0.0
 11
21.6697
 21
92.3837
 31
0.0
  0
LINE
  8
0
 62
     0
 10
21.6697
 20
92.3837
 30
0.0
 11
20.869
 21
92.3837
 31
0.0
  0
LINE
  8
0
 62
     0
 10
20.869
 20
92.3837
 30
0.0
 11
20.869
 21
79.5831
 31
0.0
  0
LINE
  8
0
 62
     0
 10
20.869
 20
79.5831
 30
0.0
 11
21.6697
 21
79.5831
 31
0.0
  0
LINE
  8
0
 62
     0
 10
21.6697
 20
79.5831
 30
0.0
 11
21.6697
 21
78.9838
 31
0.0
  0
LINE
  8
0
 62
     0
 10
21.6697
 20
78.9838
 30
0.0
 11
35.669
 21
78.9838
 31
0.0
  0
LINE
  8
0
 62
     0
 10
35.669
 20
78.9838
 30
0.0
 11
35.669
 21
79.5831
 31
0.0
  0
LINE
  8
0
 62
     0
 10
35.669
 20
79.5831
 30
0.0
 11
36.4698
 21
79.5831
 31
0.0
  0
LINE
  8
0
 62
     0
 10
36.4698
 20
79.5831
 30
0.0
 11
36.4698
 21
92.3837
 31
0.0
  0
LINE
  8
0
 62
     0
 10
36.4698
 20
92.3837
 30
0.0
 11
35.669
 21
92.3837
 31
0.0
  0
LINE
  8
0
 62
     0
 10
35.669
 20
92.3837
 30
0.0
 11
35.669
 21
92.9831
 31
0.0
  0
LINE
  8
0
 62
     0
 10
35.669
 20
92.9831
 30
0.0
 11
21.6697
 21
92.9831
 31
0.0
  0
LINE
  8
0
 62
     0
 10
2.61965
 20
92.9831
 30
0.0
 11
2.61965
 21
92.3837
 31
0.0
  0
LINE
  8
0
 62
     0
 10
2.61965
 20
92.3837
 30
0.0
 11
1.81901
 21
92.3837
 31
0.0
  0
LINE
  8
0
 62
     0
 10
1.81901
 20
92.3837
 30
0.0
 11
1.81901
 21
79.5831
 31
0.0
  0
LINE
  8
0
 62
     0
 10
1.81901
 20
79.5831
 30
0.0
 11
2.61965
 21
79.5831
 31
0.0
  0
LINE
  8
0
 62
     0
 10
2.61965
 20
79.5831
 30
0.0
 11
2.61965
 21
78.9838
 31
0.0
  0
LINE
  8
0
 62
     0
 10
2.61965
 20
78.9838
 30
0.0
 11
16.6192
 21
78.9838
 31
0.0
  0
LINE
  8
0
 62
     0
 10
16.6192
 20
78.9838
 30
0.0
 11
16.6192
 21
79.5831
 31
0.0
  0
LINE
  8
0
 62
     0
 10
16.6192
 20
79.5831
 30
0.0
 11
17.4198
 21
79.5831
 31
0.0
  0
LINE
  8
0
 62
     0
 10
17.4198
 20
79.5831
 30
0.0
 11
17.4198
 21
92.3837
 31
0.0
  0
LINE
  8
0
 62
     0
 10
17.4198
 20
92.3837
 30
0.0
 11
16.6192
 21
92.3837
 31
0.0
  0
LINE
  8
0
 62
     0
 10
16.6192
 20
92.3837
 30
0.0
 11
16.6192
 21
92.9831
 31
0.0
  0
LINE
  8
0
 62
     0
 10
16.6192
 20
92.9831
 30
0.0
 11
2.61965
 21
92.9831
 31
0.0
  0
ENDSEC
  0
EOF
