  0
SECTION
  2
HEADER
  9
$ACADVER
  1
AC1009
  9
$EXTMIN
 10
0.0
 20
0.0
 30
0.0
  9
$EXTMAX
 10
1000.0
 20
1000.0
 30
0.0
  9
$FILLMODE
 70
 0
  9
$SPLFRAME
 70
 1
  0
ENDSEC
  0
SECTION
  2
TABLES
  0
TABLE
  2
LAYER
 70
1
  0
LAYER
  2
0
 70
     0
 62
     7
  6
CONTINUOUS
  0
ENDTAB
  0
ENDSEC
  0
SECTION
  2
ENTITIES
  0
LINE
  8
0
 62
     0
 10
0.0950846
 20
95.5075
 30
0.0
 11
266.795
 21
95.5075
 31
0.0
  0
LINE
  8
0
 62
     0
 10
266.795
 20
95.5075
 30
0.0
 11
266.795
 21
0.257693
 31
0.0
  0
LINE
  8
0
 62
     0
 10
266.795
 20
0.257693
 30
0.0
 11
0.0950846
 21
0.257693
 31
0.0
  0
LINE
  8
0
 62
     0
 10
0.0950846
 20
0.257693
 30
0.0
 11
0.0950846
 21
95.5075
 31
0.0
  0
LINE
  8
0
 62
     0
 10
126.445
 20
16.7831
 30
0.0
 11
126.445
 21
16.1837
 31
0.0
  0
LINE
  8
0
 62
     0
 10
126.445
 20
16.1837
 30
0.0
 11
125.644
 21
16.1837
 31
0.0
  0
LINE
  8
0
 62
     0
 10
125.644
 20
16.1837
 30
0.0
 11
125.644
 21
12.0826
 31
0.0
  0
LINE
  8
0
 62
     0
 10
125.644
 20
12.0826
 30
0.0
 11
124.919
 21
12.0826
 31
0.0
  0
LINE
  8
0
 62
     0
 10
124.919
 20
12.0826
 30
0.0
 11
124.919
 21
15.3128
 31
0.0
  0
LINE
  8
0
 62
     0
 10
124.919
 20
15.3128
 30
0.0
 11
123.194
 21
15.3128
 31
0.0
  0
LINE
  8
0
 62
     0
 10
123.194
 20
15.3128
 30
0.0
 11
123.194
 21
16.2333
 31
0.0
  0
LINE
  8
0
 62
     0
 10
123.194
 20
16.2333
 30
0.0
 11
119.895
 21
16.2333
 31
0.0
  0
LINE
  8
0
 62
     0
 10
119.895
 20
16.2333
 30
0.0
 11
119.895
 21
15.3128
 31
0.0
  0
LINE
  8
0
 62
     0
 10
119.895
 20
15.3128
 30
0.0
 11
118.168
 21
15.3128
 31
0.0
  0
LINE
  8
0
 62
     0
 10
118.168
 20
15.3128
 30
0.0
 11
118.168
 21
12.0826
 31
0.0
  0
LINE
  8
0
 62
     0
 10
118.168
 20
12.0826
 30
0.0
 11
117.344
 21
12.0826
 31
0.0
  0
LINE
  8
0
 62
     0
 10
117.344
 20
12.0826
 30
0.0
 11
117.344
 21
9.28384
 31
0.0
  0
LINE
  8
0
 62
     0
 10
117.344
 20
9.28384
 30
0.0
 11
118.168
 21
9.28384
 31
0.0
  0
LINE
  8
0
 62
     0
 10
118.168
 20
9.28384
 30
0.0
 11
118.168
 21
3.01377
 31
0.0
  0
LINE
  8
0
 62
     0
 10
118.168
 20
3.01377
 30
0.0
 11
119.895
 21
3.01377
 31
0.0
  0
LINE
  8
0
 62
     0
 10
119.895
 20
3.01377
 30
0.0
 11
119.895
 21
2.03261
 31
0.0
  0
LINE
  8
0
 62
     0
 10
119.895
 20
2.03261
 30
0.0
 11
123.194
 21
2.03261
 31
0.0
  0
LINE
  8
0
 62
     0
 10
123.194
 20
2.03261
 30
0.0
 11
123.194
 21
3.01377
 31
0.0
  0
LINE
  8
0
 62
     0
 10
123.194
 20
3.01377
 30
0.0
 11
124.919
 21
3.01377
 31
0.0
  0
LINE
  8
0
 62
     0
 10
124.919
 20
3.01377
 30
0.0
 11
124.919
 21
7.48273
 31
0.0
  0
LINE
  8
0
 62
     0
 10
124.919
 20
7.48273
 30
0.0
 11
125.644
 21
7.48273
 31
0.0
  0
LINE
  8
0
 62
     0
 10
125.644
 20
7.48273
 30
0.0
 11
125.644
 21
3.38308
 31
0.0
  0
LINE
  8
0
 62
     0
 10
125.644
 20
3.38308
 30
0.0
 11
126.445
 21
3.38308
 31
0.0
  0
LINE
  8
0
 62
     0
 10
126.445
 20
3.38308
 30
0.0
 11
126.445
 21
2.78364
 31
0.0
  0
LINE
  8
0
 62
     0
 10
126.445
 20
2.78364
 30
0.0
 11
140.444
 21
2.78364
 31
0.0
  0
LINE
  8
0
 62
     0
 10
140.444
 20
2.78364
 30
0.0
 11
140.444
 21
3.38308
 31
0.0
  0
LINE
  8
0
 62
     0
 10
140.444
 20
3.38308
 30
0.0
 11
141.245
 21
3.38308
 31
0.0
  0
LINE
  8
0
 62
     0
 10
141.245
 20
3.38308
 30
0.0
 11
141.245
 21
7.48273
 31
0.0
  0
LINE
  8
0
 62
     0
 10
141.245
 20
7.48273
 30
0.0
 11
141.97
 21
7.48273
 31
0.0
  0
LINE
  8
0
 62
     0
 10
141.97
 20
7.48273
 30
0.0
 11
141.97
 21
3.01377
 31
0.0
  0
LINE
  8
0
 62
     0
 10
141.97
 20
3.01377
 30
0.0
 11
143.695
 21
3.01377
 31
0.0
  0
LINE
  8
0
 62
     0
 10
143.695
 20
3.01377
 30
0.0
 11
143.695
 21
2.03261
 31
0.0
  0
LINE
  8
0
 62
     0
 10
143.695
 20
2.03261
 30
0.0
 11
146.994
 21
2.03261
 31
0.0
  0
LINE
  8
0
 62
     0
 10
146.994
 20
2.03261
 30
0.0
 11
146.994
 21
3.01377
 31
0.0
  0
LINE
  8
0
 62
     0
 10
146.994
 20
3.01377
 30
0.0
 11
148.719
 21
3.01377
 31
0.0
  0
LINE
  8
0
 62
     0
 10
148.719
 20
3.01377
 30
0.0
 11
148.719
 21
9.28384
 31
0.0
  0
LINE
  8
0
 62
     0
 10
148.719
 20
9.28384
 30
0.0
 11
149.545
 21
9.28384
 31
0.0
  0
LINE
  8
0
 62
     0
 10
149.545
 20
9.28384
 30
0.0
 11
149.545
 21
12.0826
 31
0.0
  0
LINE
  8
0
 62
     0
 10
149.545
 20
12.0826
 30
0.0
 11
148.719
 21
12.0826
 31
0.0
  0
LINE
  8
0
 62
     0
 10
148.719
 20
12.0826
 30
0.0
 11
148.719
 21
15.3128
 31
0.0
  0
LINE
  8
0
 62
     0
 10
148.719
 20
15.3128
 30
0.0
 11
146.994
 21
15.3128
 31
0.0
  0
LINE
  8
0
 62
     0
 10
146.994
 20
15.3128
 30
0.0
 11
146.994
 21
16.2333
 31
0.0
  0
LINE
  8
0
 62
     0
 10
146.994
 20
16.2333
 30
0.0
 11
143.695
 21
16.2333
 31
0.0
  0
LINE
  8
0
 62
     0
 10
143.695
 20
16.2333
 30
0.0
 11
143.695
 21
15.3128
 31
0.0
  0
LINE
  8
0
 62
     0
 10
143.695
 20
15.3128
 30
0.0
 11
141.97
 21
15.3128
 31
0.0
  0
LINE
  8
0
 62
     0
 10
141.97
 20
15.3128
 30
0.0
 11
141.97
 21
12.0826
 31
0.0
  0
LINE
  8
0
 62
     0
 10
141.97
 20
12.0826
 30
0.0
 11
141.245
 21
12.0826
 31
0.0
  0
LINE
  8
0
 62
     0
 10
141.245
 20
12.0826
 30
0.0
 11
141.245
 21
16.1837
 31
0.0
  0
LINE
  8
0
 62
     0
 10
141.245
 20
16.1837
 30
0.0
 11
140.444
 21
16.1837
 31
0.0
  0
LINE
  8
0
 62
     0
 10
140.444
 20
16.1837
 30
0.0
 11
140.444
 21
16.7831
 31
0.0
  0
LINE
  8
0
 62
     0
 10
140.444
 20
16.7831
 30
0.0
 11
126.445
 21
16.7831
 31
0.0
  0
LINE
  8
0
 62
     0
 10
88.3447
 20
16.7831
 30
0.0
 11
88.3447
 21
16.1837
 31
0.0
  0
LINE
  8
0
 62
     0
 10
88.3447
 20
16.1837
 30
0.0
 11
87.5439
 21
16.1837
 31
0.0
  0
LINE
  8
0
 62
     0
 10
87.5439
 20
16.1837
 30
0.0
 11
87.5439
 21
12.0826
 31
0.0
  0
LINE
  8
0
 62
     0
 10
87.5439
 20
12.0826
 30
0.0
 11
86.8193
 21
12.0826
 31
0.0
  0
LINE
  8
0
 62
     0
 10
86.8193
 20
12.0826
 30
0.0
 11
86.8193
 21
15.3128
 31
0.0
  0
LINE
  8
0
 62
     0
 10
86.8193
 20
15.3128
 30
0.0
 11
85.0939
 21
15.3128
 31
0.0
  0
LINE
  8
0
 62
     0
 10
85.0939
 20
15.3128
 30
0.0
 11
85.0939
 21
16.2333
 31
0.0
  0
LINE
  8
0
 62
     0
 10
85.0939
 20
16.2333
 30
0.0
 11
81.7947
 21
16.2333
 31
0.0
  0
LINE
  8
0
 62
     0
 10
81.7947
 20
16.2333
 30
0.0
 11
81.7947
 21
15.3128
 31
0.0
  0
LINE
  8
0
 62
     0
 10
81.7947
 20
15.3128
 30
0.0
 11
80.0696
 21
15.3128
 31
0.0
  0
LINE
  8
0
 62
     0
 10
80.0696
 20
15.3128
 30
0.0
 11
80.0696
 21
12.0826
 31
0.0
  0
LINE
  8
0
 62
     0
 10
80.0696
 20
12.0826
 30
0.0
 11
79.2441
 21
12.0826
 31
0.0
  0
LINE
  8
0
 62
     0
 10
79.2441
 20
12.0826
 30
0.0
 11
79.2441
 21
9.28384
 31
0.0
  0
LINE
  8
0
 62
     0
 10
79.2441
 20
9.28384
 30
0.0
 11
80.0696
 21
9.28384
 31
0.0
  0
LINE
  8
0
 62
     0
 10
80.0696
 20
9.28384
 30
0.0
 11
80.0696
 21
3.01377
 31
0.0
  0
LINE
  8
0
 62
     0
 10
80.0696
 20
3.01377
 30
0.0
 11
81.7947
 21
3.01377
 31
0.0
  0
LINE
  8
0
 62
     0
 10
81.7947
 20
3.01377
 30
0.0
 11
81.7947
 21
2.03261
 31
0.0
  0
LINE
  8
0
 62
     0
 10
81.7947
 20
2.03261
 30
0.0
 11
85.0939
 21
2.03261
 31
0.0
  0
LINE
  8
0
 62
     0
 10
85.0939
 20
2.03261
 30
0.0
 11
85.0939
 21
3.01377
 31
0.0
  0
LINE
  8
0
 62
     0
 10
85.0939
 20
3.01377
 30
0.0
 11
86.8193
 21
3.01377
 31
0.0
  0
LINE
  8
0
 62
     0
 10
86.8193
 20
3.01377
 30
0.0
 11
86.8193
 21
7.48273
 31
0.0
  0
LINE
  8
0
 62
     0
 10
86.8193
 20
7.48273
 30
0.0
 11
87.5439
 21
7.48273
 31
0.0
  0
LINE
  8
0
 62
     0
 10
87.5439
 20
7.48273
 30
0.0
 11
87.5439
 21
3.38308
 31
0.0
  0
LINE
  8
0
 62
     0
 10
87.5439
 20
3.38308
 30
0.0
 11
88.3447
 21
3.38308
 31
0.0
  0
LINE
  8
0
 62
     0
 10
88.3447
 20
3.38308
 30
0.0
 11
88.3447
 21
2.78364
 31
0.0
  0
LINE
  8
0
 62
     0
 10
88.3447
 20
2.78364
 30
0.0
 11
102.344
 21
2.78364
 31
0.0
  0
LINE
  8
0
 62
     0
 10
102.344
 20
2.78364
 30
0.0
 11
102.344
 21
3.38308
 31
0.0
  0
LINE
  8
0
 62
     0
 10
102.344
 20
3.38308
 30
0.0
 11
103.145
 21
3.38308
 31
0.0
  0
LINE
  8
0
 62
     0
 10
103.145
 20
3.38308
 30
0.0
 11
103.145
 21
7.48273
 31
0.0
  0
LINE
  8
0
 62
     0
 10
103.145
 20
7.48273
 30
0.0
 11
103.87
 21
7.48273
 31
0.0
  0
LINE
  8
0
 62
     0
 10
103.87
 20
7.48273
 30
0.0
 11
103.87
 21
3.01377
 31
0.0
  0
LINE
  8
0
 62
     0
 10
103.87
 20
3.01377
 30
0.0
 11
105.595
 21
3.01377
 31
0.0
  0
LINE
  8
0
 62
     0
 10
105.595
 20
3.01377
 30
0.0
 11
105.595
 21
2.03261
 31
0.0
  0
LINE
  8
0
 62
     0
 10
105.595
 20
2.03261
 30
0.0
 11
108.894
 21
2.03261
 31
0.0
  0
LINE
  8
0
 62
     0
 10
108.894
 20
2.03261
 30
0.0
 11
108.894
 21
3.01377
 31
0.0
  0
LINE
  8
0
 62
     0
 10
108.894
 20
3.01377
 30
0.0
 11
110.619
 21
3.01377
 31
0.0
  0
LINE
  8
0
 62
     0
 10
110.619
 20
3.01377
 30
0.0
 11
110.619
 21
9.28384
 31
0.0
  0
LINE
  8
0
 62
     0
 10
110.619
 20
9.28384
 30
0.0
 11
111.445
 21
9.28384
 31
0.0
  0
LINE
  8
0
 62
     0
 10
111.445
 20
9.28384
 30
0.0
 11
111.445
 21
12.0826
 31
0.0
  0
LINE
  8
0
 62
     0
 10
111.445
 20
12.0826
 30
0.0
 11
110.619
 21
12.0826
 31
0.0
  0
LINE
  8
0
 62
     0
 10
110.619
 20
12.0826
 30
0.0
 11
110.619
 21
15.3128
 31
0.0
  0
LINE
  8
0
 62
     0
 10
110.619
 20
15.3128
 30
0.0
 11
108.894
 21
15.3128
 31
0.0
  0
LINE
  8
0
 62
     0
 10
108.894
 20
15.3128
 30
0.0
 11
108.894
 21
16.2333
 31
0.0
  0
LINE
  8
0
 62
     0
 10
108.894
 20
16.2333
 30
0.0
 11
105.595
 21
16.2333
 31
0.0
  0
LINE
  8
0
 62
     0
 10
105.595
 20
16.2333
 30
0.0
 11
105.595
 21
15.3128
 31
0.0
  0
LINE
  8
0
 62
     0
 10
105.595
 20
15.3128
 30
0.0
 11
103.87
 21
15.3128
 31
0.0
  0
LINE
  8
0
 62
     0
 10
103.87
 20
15.3128
 30
0.0
 11
103.87
 21
12.0826
 31
0.0
  0
LINE
  8
0
 62
     0
 10
103.87
 20
12.0826
 30
0.0
 11
103.145
 21
12.0826
 31
0.0
  0
LINE
  8
0
 62
     0
 10
103.145
 20
12.0826
 30
0.0
 11
103.145
 21
16.1837
 31
0.0
  0
LINE
  8
0
 62
     0
 10
103.145
 20
16.1837
 30
0.0
 11
102.344
 21
16.1837
 31
0.0
  0
LINE
  8
0
 62
     0
 10
102.344
 20
16.1837
 30
0.0
 11
102.344
 21
16.7831
 31
0.0
  0
LINE
  8
0
 62
     0
 10
102.344
 20
16.7831
 30
0.0
 11
88.3447
 21
16.7831
 31
0.0
  0
LINE
  8
0
 62
     0
 10
250.27
 20
16.7831
 30
0.0
 11
250.27
 21
16.1837
 31
0.0
  0
LINE
  8
0
 62
     0
 10
250.27
 20
16.1837
 30
0.0
 11
249.469
 21
16.1837
 31
0.0
  0
LINE
  8
0
 62
     0
 10
249.469
 20
16.1837
 30
0.0
 11
249.469
 21
3.38308
 31
0.0
  0
LINE
  8
0
 62
     0
 10
249.469
 20
3.38308
 30
0.0
 11
250.27
 21
3.38308
 31
0.0
  0
LINE
  8
0
 62
     0
 10
250.27
 20
3.38308
 30
0.0
 11
250.27
 21
2.78364
 31
0.0
  0
LINE
  8
0
 62
     0
 10
250.27
 20
2.78364
 30
0.0
 11
264.269
 21
2.78364
 31
0.0
  0
LINE
  8
0
 62
     0
 10
264.269
 20
2.78364
 30
0.0
 11
264.269
 21
3.38308
 31
0.0
  0
LINE
  8
0
 62
     0
 10
264.269
 20
3.38308
 30
0.0
 11
265.07
 21
3.38308
 31
0.0
  0
LINE
  8
0
 62
     0
 10
265.07
 20
3.38308
 30
0.0
 11
265.07
 21
16.1837
 31
0.0
  0
LINE
  8
0
 62
     0
 10
265.07
 20
16.1837
 30
0.0
 11
264.269
 21
16.1837
 31
0.0
  0
LINE
  8
0
 62
     0
 10
264.269
 20
16.1837
 30
0.0
 11
264.269
 21
16.7831
 31
0.0
  0
LINE
  8
0
 62
     0
 10
264.269
 20
16.7831
 30
0.0
 11
250.27
 21
16.7831
 31
0.0
  0
LINE
  8
0
 62
     0
 10
231.22
 20
16.7831
 30
0.0
 11
231.22
 21
16.1837
 31
0.0
  0
LINE
  8
0
 62
     0
 10
231.22
 20
16.1837
 30
0.0
 11
230.419
 21
16.1837
 31
0.0
  0
LINE
  8
0
 62
     0
 10
230.419
 20
16.1837
 30
0.0
 11
230.419
 21
3.38308
 31
0.0
  0
LINE
  8
0
 62
     0
 10
230.419
 20
3.38308
 30
0.0
 11
231.22
 21
3.38308
 31
0.0
  0
LINE
  8
0
 62
     0
 10
231.22
 20
3.38308
 30
0.0
 11
231.22
 21
2.78364
 31
0.0
  0
LINE
  8
0
 62
     0
 10
231.22
 20
2.78364
 30
0.0
 11
245.219
 21
2.78364
 31
0.0
  0
LINE
  8
0
 62
     0
 10
245.219
 20
2.78364
 30
0.0
 11
245.219
 21
3.38308
 31
0.0
  0
LINE
  8
0
 62
     0
 10
245.219
 20
3.38308
 30
0.0
 11
246.02
 21
3.38308
 31
0.0
  0
LINE
  8
0
 62
     0
 10
246.02
 20
3.38308
 30
0.0
 11
246.02
 21
16.1837
 31
0.0
  0
LINE
  8
0
 62
     0
 10
246.02
 20
16.1837
 30
0.0
 11
245.219
 21
16.1837
 31
0.0
  0
LINE
  8
0
 62
     0
 10
245.219
 20
16.1837
 30
0.0
 11
245.219
 21
16.7831
 31
0.0
  0
LINE
  8
0
 62
     0
 10
245.219
 20
16.7831
 30
0.0
 11
231.22
 21
16.7831
 31
0.0
  0
LINE
  8
0
 62
     0
 10
212.17
 20
16.7831
 30
0.0
 11
212.17
 21
16.1837
 31
0.0
  0
LINE
  8
0
 62
     0
 10
212.17
 20
16.1837
 30
0.0
 11
211.369
 21
16.1837
 31
0.0
  0
LINE
  8
0
 62
     0
 10
211.369
 20
16.1837
 30
0.0
 11
211.369
 21
3.38308
 31
0.0
  0
LINE
  8
0
 62
     0
 10
211.369
 20
3.38308
 30
0.0
 11
212.17
 21
3.38308
 31
0.0
  0
LINE
  8
0
 62
     0
 10
212.17
 20
3.38308
 30
0.0
 11
212.17
 21
2.78364
 31
0.0
  0
LINE
  8
0
 62
     0
 10
212.17
 20
2.78364
 30
0.0
 11
226.169
 21
2.78364
 31
0.0
  0
LINE
  8
0
 62
     0
 10
226.169
 20
2.78364
 30
0.0
 11
226.169
 21
3.38308
 31
0.0
  0
LINE
  8
0
 62
     0
 10
226.169
 20
3.38308
 30
0.0
 11
226.97
 21
3.38308
 31
0.0
  0
LINE
  8
0
 62
     0
 10
226.97
 20
3.38308
 30
0.0
 11
226.97
 21
16.1837
 31
0.0
  0
LINE
  8
0
 62
     0
 10
226.97
 20
16.1837
 30
0.0
 11
226.169
 21
16.1837
 31
0.0
  0
LINE
  8
0
 62
     0
 10
226.169
 20
16.1837
 30
0.0
 11
226.169
 21
16.7831
 31
0.0
  0
LINE
  8
0
 62
     0
 10
226.169
 20
16.7831
 30
0.0
 11
212.17
 21
16.7831
 31
0.0
  0
LINE
  8
0
 62
     0
 10
193.12
 20
16.7831
 30
0.0
 11
193.12
 21
16.1837
 31
0.0
  0
LINE
  8
0
 62
     0
 10
193.12
 20
16.1837
 30
0.0
 11
192.319
 21
16.1837
 31
0.0
  0
LINE
  8
0
 62
     0
 10
192.319
 20
16.1837
 30
0.0
 11
192.319
 21
3.38308
 31
0.0
  0
LINE
  8
0
 62
     0
 10
192.319
 20
3.38308
 30
0.0
 11
193.12
 21
3.38308
 31
0.0
  0
LINE
  8
0
 62
     0
 10
193.12
 20
3.38308
 30
0.0
 11
193.12
 21
2.78364
 31
0.0
  0
LINE
  8
0
 62
     0
 10
193.12
 20
2.78364
 30
0.0
 11
207.119
 21
2.78364
 31
0.0
  0
LINE
  8
0
 62
     0
 10
207.119
 20
2.78364
 30
0.0
 11
207.119
 21
3.38308
 31
0.0
  0
LINE
  8
0
 62
     0
 10
207.119
 20
3.38308
 30
0.0
 11
207.92
 21
3.38308
 31
0.0
  0
LINE
  8
0
 62
     0
 10
207.92
 20
3.38308
 30
0.0
 11
207.92
 21
16.1837
 31
0.0
  0
LINE
  8
0
 62
     0
 10
207.92
 20
16.1837
 30
0.0
 11
207.119
 21
16.1837
 31
0.0
  0
LINE
  8
0
 62
     0
 10
207.119
 20
16.1837
 30
0.0
 11
207.119
 21
16.7831
 31
0.0
  0
LINE
  8
0
 62
     0
 10
207.119
 20
16.7831
 30
0.0
 11
193.12
 21
16.7831
 31
0.0
  0
LINE
  8
0
 62
     0
 10
174.07
 20
16.7831
 30
0.0
 11
174.07
 21
16.1837
 31
0.0
  0
LINE
  8
0
 62
     0
 10
174.07
 20
16.1837
 30
0.0
 11
173.269
 21
16.1837
 31
0.0
  0
LINE
  8
0
 62
     0
 10
173.269
 20
16.1837
 30
0.0
 11
173.269
 21
3.38308
 31
0.0
  0
LINE
  8
0
 62
     0
 10
173.269
 20
3.38308
 30
0.0
 11
174.07
 21
3.38308
 31
0.0
  0
LINE
  8
0
 62
     0
 10
174.07
 20
3.38308
 30
0.0
 11
174.07
 21
2.78364
 31
0.0
  0
LINE
  8
0
 62
     0
 10
174.07
 20
2.78364
 30
0.0
 11
188.069
 21
2.78364
 31
0.0
  0
LINE
  8
0
 62
     0
 10
188.069
 20
2.78364
 30
0.0
 11
188.069
 21
3.38308
 31
0.0
  0
LINE
  8
0
 62
     0
 10
188.069
 20
3.38308
 30
0.0
 11
188.87
 21
3.38308
 31
0.0
  0
LINE
  8
0
 62
     0
 10
188.87
 20
3.38308
 30
0.0
 11
188.87
 21
16.1837
 31
0.0
  0
LINE
  8
0
 62
     0
 10
188.87
 20
16.1837
 30
0.0
 11
188.069
 21
16.1837
 31
0.0
  0
LINE
  8
0
 62
     0
 10
188.069
 20
16.1837
 30
0.0
 11
188.069
 21
16.7831
 31
0.0
  0
LINE
  8
0
 62
     0
 10
188.069
 20
16.7831
 30
0.0
 11
174.07
 21
16.7831
 31
0.0
  0
LINE
  8
0
 62
     0
 10
155.02
 20
16.7831
 30
0.0
 11
155.02
 21
16.1837
 31
0.0
  0
LINE
  8
0
 62
     0
 10
155.02
 20
16.1837
 30
0.0
 11
154.219
 21
16.1837
 31
0.0
  0
LINE
  8
0
 62
     0
 10
154.219
 20
16.1837
 30
0.0
 11
154.219
 21
3.38308
 31
0.0
  0
LINE
  8
0
 62
     0
 10
154.219
 20
3.38308
 30
0.0
 11
155.02
 21
3.38308
 31
0.0
  0
LINE
  8
0
 62
     0
 10
155.02
 20
3.38308
 30
0.0
 11
155.02
 21
2.78364
 31
0.0
  0
LINE
  8
0
 62
     0
 10
155.02
 20
2.78364
 30
0.0
 11
169.019
 21
2.78364
 31
0.0
  0
LINE
  8
0
 62
     0
 10
169.019
 20
2.78364
 30
0.0
 11
169.019
 21
3.38308
 31
0.0
  0
LINE
  8
0
 62
     0
 10
169.019
 20
3.38308
 30
0.0
 11
169.82
 21
3.38308
 31
0.0
  0
LINE
  8
0
 62
     0
 10
169.82
 20
3.38308
 30
0.0
 11
169.82
 21
16.1837
 31
0.0
  0
LINE
  8
0
 62
     0
 10
169.82
 20
16.1837
 30
0.0
 11
169.019
 21
16.1837
 31
0.0
  0
LINE
  8
0
 62
     0
 10
169.019
 20
16.1837
 30
0.0
 11
169.019
 21
16.7831
 31
0.0
  0
LINE
  8
0
 62
     0
 10
169.019
 20
16.7831
 30
0.0
 11
155.02
 21
16.7831
 31
0.0
  0
LINE
  8
0
 62
     0
 10
59.7697
 20
16.7831
 30
0.0
 11
59.7697
 21
16.1837
 31
0.0
  0
LINE
  8
0
 62
     0
 10
59.7697
 20
16.1837
 30
0.0
 11
58.9689
 21
16.1837
 31
0.0
  0
LINE
  8
0
 62
     0
 10
58.9689
 20
16.1837
 30
0.0
 11
58.9689
 21
3.38308
 31
0.0
  0
LINE
  8
0
 62
     0
 10
58.9689
 20
3.38308
 30
0.0
 11
59.7697
 21
3.38308
 31
0.0
  0
LINE
  8
0
 62
     0
 10
59.7697
 20
3.38308
 30
0.0
 11
59.7697
 21
2.78364
 31
0.0
  0
LINE
  8
0
 62
     0
 10
59.7697
 20
2.78364
 30
0.0
 11
73.769
 21
2.78364
 31
0.0
  0
LINE
  8
0
 62
     0
 10
73.769
 20
2.78364
 30
0.0
 11
73.769
 21
3.38308
 31
0.0
  0
LINE
  8
0
 62
     0
 10
73.769
 20
3.38308
 30
0.0
 11
74.5698
 21
3.38308
 31
0.0
  0
LINE
  8
0
 62
     0
 10
74.5698
 20
3.38308
 30
0.0
 11
74.5698
 21
16.1837
 31
0.0
  0
LINE
  8
0
 62
     0
 10
74.5698
 20
16.1837
 30
0.0
 11
73.769
 21
16.1837
 31
0.0
  0
LINE
  8
0
 62
     0
 10
73.769
 20
16.1837
 30
0.0
 11
73.769
 21
16.7831
 31
0.0
  0
LINE
  8
0
 62
     0
 10
73.769
 20
16.7831
 30
0.0
 11
59.7697
 21
16.7831
 31
0.0
  0
LINE
  8
0
 62
     0
 10
40.7197
 20
16.7831
 30
0.0
 11
40.7197
 21
16.1837
 31
0.0
  0
LINE
  8
0
 62
     0
 10
40.7197
 20
16.1837
 30
0.0
 11
39.9189
 21
16.1837
 31
0.0
  0
LINE
  8
0
 62
     0
 10
39.9189
 20
16.1837
 30
0.0
 11
39.9189
 21
3.38308
 31
0.0
  0
LINE
  8
0
 62
     0
 10
39.9189
 20
3.38308
 30
0.0
 11
40.7197
 21
3.38308
 31
0.0
  0
LINE
  8
0
 62
     0
 10
40.7197
 20
3.38308
 30
0.0
 11
40.7197
 21
2.78364
 31
0.0
  0
LINE
  8
0
 62
     0
 10
40.7197
 20
2.78364
 30
0.0
 11
54.719
 21
2.78364
 31
0.0
  0
LINE
  8
0
 62
     0
 10
54.719
 20
2.78364
 30
0.0
 11
54.719
 21
3.38308
 31
0.0
  0
LINE
  8
0
 62
     0
 10
54.719
 20
3.38308
 30
0.0
 11
55.5198
 21
3.38308
 31
0.0
  0
LINE
  8
0
 62
     0
 10
55.5198
 20
3.38308
 30
0.0
 11
55.5198
 21
16.1837
 31
0.0
  0
LINE
  8
0
 62
     0
 10
55.5198
 20
16.1837
 30
0.0
 11
54.719
 21
16.1837
 31
0.0
  0
LINE
  8
0
 62
     0
 10
54.719
 20
16.1837
 30
0.0
 11
54.719
 21
16.7831
 31
0.0
  0
LINE
  8
0
 62
     0
 10
54.719
 20
16.7831
 30
0.0
 11
40.7197
 21
16.7831
 31
0.0
  0
LINE
  8
0
 62
     0
 10
21.6697
 20
16.7831
 30
0.0
 11
21.6697
 21
16.1837
 31
0.0
  0
LINE
  8
0
 62
     0
 10
21.6697
 20
16.1837
 30
0.0
 11
20.869
 21
16.1837
 31
0.0
  0
LINE
  8
0
 62
     0
 10
20.869
 20
16.1837
 30
0.0
 11
20.869
 21
3.38308
 31
0.0
  0
LINE
  8
0
 62
     0
 10
20.869
 20
3.38308
 30
0.0
 11
21.6697
 21
3.38308
 31
0.0
  0
LINE
  8
0
 62
     0
 10
21.6697
 20
3.38308
 30
0.0
 11
21.6697
 21
2.78364
 31
0.0
  0
LINE
  8
0
 62
     0
 10
21.6697
 20
2.78364
 30
0.0
 11
35.669
 21
2.78364
 31
0.0
  0
LINE
  8
0
 62
     0
 10
35.669
 20
2.78364
 30
0.0
 11
35.669
 21
3.38308
 31
0.0
  0
LINE
  8
0
 62
     0
 10
35.669
 20
3.38308
 30
0.0
 11
36.4698
 21
3.38308
 31
0.0
  0
LINE
  8
0
 62
     0
 10
36.4698
 20
3.38308
 30
0.0
 11
36.4698
 21
16.1837
 31
0.0
  0
LINE
  8
0
 62
     0
 10
36.4698
 20
16.1837
 30
0.0
 11
35.669
 21
16.1837
 31
0.0
  0
LINE
  8
0
 62
     0
 10
35.669
 20
16.1837
 30
0.0
 11
35.669
 21
16.7831
 31
0.0
  0
LINE
  8
0
 62
     0
 10
35.669
 20
16.7831
 30
0.0
 11
21.6697
 21
16.7831
 31
0.0
  0
LINE
  8
0
 62
     0
 10
2.61965
 20
16.7831
 30
0.0
 11
2.61965
 21
16.1837
 31
0.0
  0
LINE
  8
0
 62
     0
 10
2.61965
 20
16.1837
 30
0.0
 11
1.81901
 21
16.1837
 31
0.0
  0
LINE
  8
0
 62
     0
 10
1.81901
 20
16.1837
 30
0.0
 11
1.81901
 21
3.38308
 31
0.0
  0
LINE
  8
0
 62
     0
 10
1.81901
 20
3.38308
 30
0.0
 11
2.61965
 21
3.38308
 31
0.0
  0
LINE
  8
0
 62
     0
 10
2.61965
 20
3.38308
 30
0.0
 11
2.61965
 21
2.78364
 31
0.0
  0
LINE
  8
0
 62
     0
 10
2.61965
 20
2.78364
 30
0.0
 11
16.6192
 21
2.78364
 31
0.0
  0
LINE
  8
0
 62
     0
 10
16.6192
 20
2.78364
 30
0.0
 11
16.6192
 21
3.38308
 31
0.0
  0
LINE
  8
0
 62
     0
 10
16.6192
 20
3.38308
 30
0.0
 11
17.4198
 21
3.38308
 31
0.0
  0
LINE
  8
0
 62
     0
 10
17.4198
 20
3.38308
 30
0.0
 11
17.4198
 21
16.1837
 31
0.0
  0
LINE
  8
0
 62
     0
 10
17.4198
 20
16.1837
 30
0.0
 11
16.6192
 21
16.1837
 31
0.0
  0
LINE
  8
0
 62
     0
 10
16.6192
 20
16.1837
 30
0.0
 11
16.6192
 21
16.7831
 31
0.0
  0
LINE
  8
0
 62
     0
 10
16.6192
 20
16.7831
 30
0.0
 11
2.61965
 21
16.7831
 31
0.0
  0
LINE
  8
0
 62
     0
 10
250.27
 20
35.833
 30
0.0
 11
250.27
 21
35.2337
 31
0.0
  0
LINE
  8
0
 62
     0
 10
250.27
 20
35.2337
 30
0.0
 11
249.469
 21
35.2337
 31
0.0
  0
LINE
  8
0
 62
     0
 10
249.469
 20
35.2337
 30
0.0
 11
249.469
 21
22.4331
 31
0.0
  0
LINE
  8
0
 62
     0
 10
249.469
 20
22.4331
 30
0.0
 11
250.27
 21
22.4331
 31
0.0
  0
LINE
  8
0
 62
     0
 10
250.27
 20
22.4331
 30
0.0
 11
250.27
 21
21.8336
 31
0.0
  0
LINE
  8
0
 62
     0
 10
250.27
 20
21.8336
 30
0.0
 11
264.269
 21
21.8336
 31
0.0
  0
LINE
  8
0
 62
     0
 10
264.269
 20
21.8336
 30
0.0
 11
264.269
 21
22.4331
 31
0.0
  0
LINE
  8
0
 62
     0
 10
264.269
 20
22.4331
 30
0.0
 11
265.07
 21
22.4331
 31
0.0
  0
LINE
  8
0
 62
     0
 10
265.07
 20
22.4331
 30
0.0
 11
265.07
 21
35.2337
 31
0.0
  0
LINE
  8
0
 62
     0
 10
265.07
 20
35.2337
 30
0.0
 11
264.269
 21
35.2337
 31
0.0
  0
LINE
  8
0
 62
     0
 10
264.269
 20
35.2337
 30
0.0
 11
264.269
 21
35.833
 31
0.0
  0
LINE
  8
0
 62
     0
 10
264.269
 20
35.833
 30
0.0
 11
250.27
 21
35.833
 31
0.0
  0
LINE
  8
0
 62
     0
 10
231.22
 20
35.833
 30
0.0
 11
231.22
 21
35.2337
 31
0.0
  0
LINE
  8
0
 62
     0
 10
231.22
 20
35.2337
 30
0.0
 11
230.419
 21
35.2337
 31
0.0
  0
LINE
  8
0
 62
     0
 10
230.419
 20
35.2337
 30
0.0
 11
230.419
 21
22.4331
 31
0.0
  0
LINE
  8
0
 62
     0
 10
230.419
 20
22.4331
 30
0.0
 11
231.22
 21
22.4331
 31
0.0
  0
LINE
  8
0
 62
     0
 10
231.22
 20
22.4331
 30
0.0
 11
231.22
 21
21.8336
 31
0.0
  0
LINE
  8
0
 62
     0
 10
231.22
 20
21.8336
 30
0.0
 11
245.219
 21
21.8336
 31
0.0
  0
LINE
  8
0
 62
     0
 10
245.219
 20
21.8336
 30
0.0
 11
245.219
 21
22.4331
 31
0.0
  0
LINE
  8
0
 62
     0
 10
245.219
 20
22.4331
 30
0.0
 11
246.02
 21
22.4331
 31
0.0
  0
LINE
  8
0
 62
     0
 10
246.02
 20
22.4331
 30
0.0
 11
246.02
 21
35.2337
 31
0.0
  0
LINE
  8
0
 62
     0
 10
246.02
 20
35.2337
 30
0.0
 11
245.219
 21
35.2337
 31
0.0
  0
LINE
  8
0
 62
     0
 10
245.219
 20
35.2337
 30
0.0
 11
245.219
 21
35.833
 31
0.0
  0
LINE
  8
0
 62
     0
 10
245.219
 20
35.833
 30
0.0
 11
231.22
 21
35.833
 31
0.0
  0
LINE
  8
0
 62
     0
 10
212.17
 20
35.833
 30
0.0
 11
212.17
 21
35.2337
 31
0.0
  0
LINE
  8
0
 62
     0
 10
212.17
 20
35.2337
 30
0.0
 11
211.369
 21
35.2337
 31
0.0
  0
LINE
  8
0
 62
     0
 10
211.369
 20
35.2337
 30
0.0
 11
211.369
 21
22.4331
 31
0.0
  0
LINE
  8
0
 62
     0
 10
211.369
 20
22.4331
 30
0.0
 11
212.17
 21
22.4331
 31
0.0
  0
LINE
  8
0
 62
     0
 10
212.17
 20
22.4331
 30
0.0
 11
212.17
 21
21.8336
 31
0.0
  0
LINE
  8
0
 62
     0
 10
212.17
 20
21.8336
 30
0.0
 11
226.169
 21
21.8336
 31
0.0
  0
LINE
  8
0
 62
     0
 10
226.169
 20
21.8336
 30
0.0
 11
226.169
 21
22.4331
 31
0.0
  0
LINE
  8
0
 62
     0
 10
226.169
 20
22.4331
 30
0.0
 11
226.97
 21
22.4331
 31
0.0
  0
LINE
  8
0
 62
     0
 10
226.97
 20
22.4331
 30
0.0
 11
226.97
 21
35.2337
 31
0.0
  0
LINE
  8
0
 62
     0
 10
226.97
 20
35.2337
 30
0.0
 11
226.169
 21
35.2337
 31
0.0
  0
LINE
  8
0
 62
     0
 10
226.169
 20
35.2337
 30
0.0
 11
226.169
 21
35.833
 31
0.0
  0
LINE
  8
0
 62
     0
 10
226.169
 20
35.833
 30
0.0
 11
212.17
 21
35.833
 31
0.0
  0
LINE
  8
0
 62
     0
 10
193.12
 20
35.833
 30
0.0
 11
193.12
 21
35.2337
 31
0.0
  0
LINE
  8
0
 62
     0
 10
193.12
 20
35.2337
 30
0.0
 11
192.319
 21
35.2337
 31
0.0
  0
LINE
  8
0
 62
     0
 10
192.319
 20
35.2337
 30
0.0
 11
192.319
 21
22.4331
 31
0.0
  0
LINE
  8
0
 62
     0
 10
192.319
 20
22.4331
 30
0.0
 11
193.12
 21
22.4331
 31
0.0
  0
LINE
  8
0
 62
     0
 10
193.12
 20
22.4331
 30
0.0
 11
193.12
 21
21.8336
 31
0.0
  0
LINE
  8
0
 62
     0
 10
193.12
 20
21.8336
 30
0.0
 11
207.119
 21
21.8336
 31
0.0
  0
LINE
  8
0
 62
     0
 10
207.119
 20
21.8336
 30
0.0
 11
207.119
 21
22.4331
 31
0.0
  0
LINE
  8
0
 62
     0
 10
207.119
 20
22.4331
 30
0.0
 11
207.92
 21
22.4331
 31
0.0
  0
LINE
  8
0
 62
     0
 10
207.92
 20
22.4331
 30
0.0
 11
207.92
 21
35.2337
 31
0.0
  0
LINE
  8
0
 62
     0
 10
207.92
 20
35.2337
 30
0.0
 11
207.119
 21
35.2337
 31
0.0
  0
LINE
  8
0
 62
     0
 10
207.119
 20
35.2337
 30
0.0
 11
207.119
 21
35.833
 31
0.0
  0
LINE
  8
0
 62
     0
 10
207.119
 20
35.833
 30
0.0
 11
193.12
 21
35.833
 31
0.0
  0
LINE
  8
0
 62
     0
 10
174.07
 20
35.833
 30
0.0
 11
174.07
 21
35.2337
 31
0.0
  0
LINE
  8
0
 62
     0
 10
174.07
 20
35.2337
 30
0.0
 11
173.269
 21
35.2337
 31
0.0
  0
LINE
  8
0
 62
     0
 10
173.269
 20
35.2337
 30
0.0
 11
173.269
 21
22.4331
 31
0.0
  0
LINE
  8
0
 62
     0
 10
173.269
 20
22.4331
 30
0.0
 11
174.07
 21
22.4331
 31
0.0
  0
LINE
  8
0
 62
     0
 10
174.07
 20
22.4331
 30
0.0
 11
174.07
 21
21.8336
 31
0.0
  0
LINE
  8
0
 62
     0
 10
174.07
 20
21.8336
 30
0.0
 11
188.069
 21
21.8336
 31
0.0
  0
LINE
  8
0
 62
     0
 10
188.069
 20
21.8336
 30
0.0
 11
188.069
 21
22.4331
 31
0.0
  0
LINE
  8
0
 62
     0
 10
188.069
 20
22.4331
 30
0.0
 11
188.87
 21
22.4331
 31
0.0
  0
LINE
  8
0
 62
     0
 10
188.87
 20
22.4331
 30
0.0
 11
188.87
 21
35.2337
 31
0.0
  0
LINE
  8
0
 62
     0
 10
188.87
 20
35.2337
 30
0.0
 11
188.069
 21
35.2337
 31
0.0
  0
LINE
  8
0
 62
     0
 10
188.069
 20
35.2337
 30
0.0
 11
188.069
 21
35.833
 31
0.0
  0
LINE
  8
0
 62
     0
 10
188.069
 20
35.833
 30
0.0
 11
174.07
 21
35.833
 31
0.0
  0
LINE
  8
0
 62
     0
 10
155.02
 20
35.833
 30
0.0
 11
155.02
 21
35.2337
 31
0.0
  0
LINE
  8
0
 62
     0
 10
155.02
 20
35.2337
 30
0.0
 11
154.219
 21
35.2337
 31
0.0
  0
LINE
  8
0
 62
     0
 10
154.219
 20
35.2337
 30
0.0
 11
154.219
 21
22.4331
 31
0.0
  0
LINE
  8
0
 62
     0
 10
154.219
 20
22.4331
 30
0.0
 11
155.02
 21
22.4331
 31
0.0
  0
LINE
  8
0
 62
     0
 10
155.02
 20
22.4331
 30
0.0
 11
155.02
 21
21.8336
 31
0.0
  0
LINE
  8
0
 62
     0
 10
155.02
 20
21.8336
 30
0.0
 11
169.019
 21
21.8336
 31
0.0
  0
LINE
  8
0
 62
     0
 10
169.019
 20
21.8336
 30
0.0
 11
169.019
 21
22.4331
 31
0.0
  0
LINE
  8
0
 62
     0
 10
169.019
 20
22.4331
 30
0.0
 11
169.82
 21
22.4331
 31
0.0
  0
LINE
  8
0
 62
     0
 10
169.82
 20
22.4331
 30
0.0
 11
169.82
 21
35.2337
 31
0.0
  0
LINE
  8
0
 62
     0
 10
169.82
 20
35.2337
 30
0.0
 11
169.019
 21
35.2337
 31
0.0
  0
LINE
  8
0
 62
     0
 10
169.019
 20
35.2337
 30
0.0
 11
169.019
 21
35.833
 31
0.0
  0
LINE
  8
0
 62
     0
 10
169.019
 20
35.833
 30
0.0
 11
155.02
 21
35.833
 31
0.0
  0
LINE
  8
0
 62
     0
 10
135.97
 20
35.833
 30
0.0
 11
135.97
 21
35.2337
 31
0.0
  0
LINE
  8
0
 62
     0
 10
135.97
 20
35.2337
 30
0.0
 11
135.169
 21
35.2337
 31
0.0
  0
LINE
  8
0
 62
     0
 10
135.169
 20
35.2337
 30
0.0
 11
135.169
 21
22.4331
 31
0.0
  0
LINE
  8
0
 62
     0
 10
135.169
 20
22.4331
 30
0.0
 11
135.97
 21
22.4331
 31
0.0
  0
LINE
  8
0
 62
     0
 10
135.97
 20
22.4331
 30
0.0
 11
135.97
 21
21.8336
 31
0.0
  0
LINE
  8
0
 62
     0
 10
135.97
 20
21.8336
 30
0.0
 11
149.969
 21
21.8336
 31
0.0
  0
LINE
  8
0
 62
     0
 10
149.969
 20
21.8336
 30
0.0
 11
149.969
 21
22.4331
 31
0.0
  0
LINE
  8
0
 62
     0
 10
149.969
 20
22.4331
 30
0.0
 11
150.77
 21
22.4331
 31
0.0
  0
LINE
  8
0
 62
     0
 10
150.77
 20
22.4331
 30
0.0
 11
150.77
 21
35.2337
 31
0.0
  0
LINE
  8
0
 62
     0
 10
150.77
 20
35.2337
 30
0.0
 11
149.969
 21
35.2337
 31
0.0
  0
LINE
  8
0
 62
     0
 10
149.969
 20
35.2337
 30
0.0
 11
149.969
 21
35.833
 31
0.0
  0
LINE
  8
0
 62
     0
 10
149.969
 20
35.833
 30
0.0
 11
135.97
 21
35.833
 31
0.0
  0
LINE
  8
0
 62
     0
 10
116.918
 20
35.833
 30
0.0
 11
116.918
 21
35.2337
 31
0.0
  0
LINE
  8
0
 62
     0
 10
116.918
 20
35.2337
 30
0.0
 11
116.119
 21
35.2337
 31
0.0
  0
LINE
  8
0
 62
     0
 10
116.119
 20
35.2337
 30
0.0
 11
116.119
 21
22.4331
 31
0.0
  0
LINE
  8
0
 62
     0
 10
116.119
 20
22.4331
 30
0.0
 11
116.918
 21
22.4331
 31
0.0
  0
LINE
  8
0
 62
     0
 10
116.918
 20
22.4331
 30
0.0
 11
116.918
 21
21.8336
 31
0.0
  0
LINE
  8
0
 62
     0
 10
116.918
 20
21.8336
 30
0.0
 11
130.919
 21
21.8336
 31
0.0
  0
LINE
  8
0
 62
     0
 10
130.919
 20
21.8336
 30
0.0
 11
130.919
 21
22.4331
 31
0.0
  0
LINE
  8
0
 62
     0
 10
130.919
 20
22.4331
 30
0.0
 11
131.72
 21
22.4331
 31
0.0
  0
LINE
  8
0
 62
     0
 10
131.72
 20
22.4331
 30
0.0
 11
131.72
 21
35.2337
 31
0.0
  0
LINE
  8
0
 62
     0
 10
131.72
 20
35.2337
 30
0.0
 11
130.919
 21
35.2337
 31
0.0
  0
LINE
  8
0
 62
     0
 10
130.919
 20
35.2337
 30
0.0
 11
130.919
 21
35.833
 31
0.0
  0
LINE
  8
0
 62
     0
 10
130.919
 20
35.833
 30
0.0
 11
116.918
 21
35.833
 31
0.0
  0
LINE
  8
0
 62
     0
 10
97.8683
 20
35.833
 30
0.0
 11
97.8683
 21
35.2337
 31
0.0
  0
LINE
  8
0
 62
     0
 10
97.8683
 20
35.2337
 30
0.0
 11
97.0689
 21
35.2337
 31
0.0
  0
LINE
  8
0
 62
     0
 10
97.0689
 20
35.2337
 30
0.0
 11
97.0689
 21
22.4331
 31
0.0
  0
LINE
  8
0
 62
     0
 10
97.0689
 20
22.4331
 30
0.0
 11
97.8683
 21
22.4331
 31
0.0
  0
LINE
  8
0
 62
     0
 10
97.8683
 20
22.4331
 30
0.0
 11
97.8683
 21
21.8336
 31
0.0
  0
LINE
  8
0
 62
     0
 10
97.8683
 20
21.8336
 30
0.0
 11
111.869
 21
21.8336
 31
0.0
  0
LINE
  8
0
 62
     0
 10
111.869
 20
21.8336
 30
0.0
 11
111.869
 21
22.4331
 31
0.0
  0
LINE
  8
0
 62
     0
 10
111.869
 20
22.4331
 30
0.0
 11
112.668
 21
22.4331
 31
0.0
  0
LINE
  8
0
 62
     0
 10
112.668
 20
22.4331
 30
0.0
 11
112.668
 21
35.2337
 31
0.0
  0
LINE
  8
0
 62
     0
 10
112.668
 20
35.2337
 30
0.0
 11
111.869
 21
35.2337
 31
0.0
  0
LINE
  8
0
 62
     0
 10
111.869
 20
35.2337
 30
0.0
 11
111.869
 21
35.833
 31
0.0
  0
LINE
  8
0
 62
     0
 10
111.869
 20
35.833
 30
0.0
 11
97.8683
 21
35.833
 31
0.0
  0
LINE
  8
0
 62
     0
 10
78.8197
 20
35.833
 30
0.0
 11
78.8197
 21
35.2337
 31
0.0
  0
LINE
  8
0
 62
     0
 10
78.8197
 20
35.2337
 30
0.0
 11
78.0189
 21
35.2337
 31
0.0
  0
LINE
  8
0
 62
     0
 10
78.0189
 20
35.2337
 30
0.0
 11
78.0189
 21
22.4331
 31
0.0
  0
LINE
  8
0
 62
     0
 10
78.0189
 20
22.4331
 30
0.0
 11
78.8197
 21
22.4331
 31
0.0
  0
LINE
  8
0
 62
     0
 10
78.8197
 20
22.4331
 30
0.0
 11
78.8197
 21
21.8336
 31
0.0
  0
LINE
  8
0
 62
     0
 10
78.8197
 20
21.8336
 30
0.0
 11
92.819
 21
21.8336
 31
0.0
  0
LINE
  8
0
 62
     0
 10
92.819
 20
21.8336
 30
0.0
 11
92.819
 21
22.4331
 31
0.0
  0
LINE
  8
0
 62
     0
 10
92.819
 20
22.4331
 30
0.0
 11
93.6184
 21
22.4331
 31
0.0
  0
LINE
  8
0
 62
     0
 10
93.6184
 20
22.4331
 30
0.0
 11
93.6184
 21
35.2337
 31
0.0
  0
LINE
  8
0
 62
     0
 10
93.6184
 20
35.2337
 30
0.0
 11
92.819
 21
35.2337
 31
0.0
  0
LINE
  8
0
 62
     0
 10
92.819
 20
35.2337
 30
0.0
 11
92.819
 21
35.833
 31
0.0
  0
LINE
  8
0
 62
     0
 10
92.819
 20
35.833
 30
0.0
 11
78.8197
 21
35.833
 31
0.0
  0
LINE
  8
0
 62
     0
 10
59.7697
 20
35.833
 30
0.0
 11
59.7697
 21
35.2337
 31
0.0
  0
LINE
  8
0
 62
     0
 10
59.7697
 20
35.2337
 30
0.0
 11
58.9689
 21
35.2337
 31
0.0
  0
LINE
  8
0
 62
     0
 10
58.9689
 20
35.2337
 30
0.0
 11
58.9689
 21
22.4331
 31
0.0
  0
LINE
  8
0
 62
     0
 10
58.9689
 20
22.4331
 30
0.0
 11
59.7697
 21
22.4331
 31
0.0
  0
LINE
  8
0
 62
     0
 10
59.7697
 20
22.4331
 30
0.0
 11
59.7697
 21
21.8336
 31
0.0
  0
LINE
  8
0
 62
     0
 10
59.7697
 20
21.8336
 30
0.0
 11
73.769
 21
21.8336
 31
0.0
  0
LINE
  8
0
 62
     0
 10
73.769
 20
21.8336
 30
0.0
 11
73.769
 21
22.4331
 31
0.0
  0
LINE
  8
0
 62
     0
 10
73.769
 20
22.4331
 30
0.0
 11
74.5698
 21
22.4331
 31
0.0
  0
LINE
  8
0
 62
     0
 10
74.5698
 20
22.4331
 30
0.0
 11
74.5698
 21
35.2337
 31
0.0
  0
LINE
  8
0
 62
     0
 10
74.5698
 20
35.2337
 30
0.0
 11
73.769
 21
35.2337
 31
0.0
  0
LINE
  8
0
 62
     0
 10
73.769
 20
35.2337
 30
0.0
 11
73.769
 21
35.833
 31
0.0
  0
LINE
  8
0
 62
     0
 10
73.769
 20
35.833
 30
0.0
 11
59.7697
 21
35.833
 31
0.0
  0
LINE
  8
0
 62
     0
 10
40.7197
 20
35.833
 30
0.0
 11
40.7197
 21
35.2337
 31
0.0
  0
LINE
  8
0
 62
     0
 10
40.7197
 20
35.2337
 30
0.0
 11
39.9189
 21
35.2337
 31
0.0
  0
LINE
  8
0
 62
     0
 10
39.9189
 20
35.2337
 30
0.0
 11
39.9189
 21
22.4331
 31
0.0
  0
LINE
  8
0
 62
     0
 10
39.9189
 20
22.4331
 30
0.0
 11
40.7197
 21
22.4331
 31
0.0
  0
LINE
  8
0
 62
     0
 10
40.7197
 20
22.4331
 30
0.0
 11
40.7197
 21
21.8336
 31
0.0
  0
LINE
  8
0
 62
     0
 10
40.7197
 20
21.8336
 30
0.0
 11
54.719
 21
21.8336
 31
0.0
  0
LINE
  8
0
 62
     0
 10
54.719
 20
21.8336
 30
0.0
 11
54.719
 21
22.4331
 31
0.0
  0
LINE
  8
0
 62
     0
 10
54.719
 20
22.4331
 30
0.0
 11
55.5198
 21
22.4331
 31
0.0
  0
LINE
  8
0
 62
     0
 10
55.5198
 20
22.4331
 30
0.0
 11
55.5198
 21
35.2337
 31
0.0
  0
LINE
  8
0
 62
     0
 10
55.5198
 20
35.2337
 30
0.0
 11
54.719
 21
35.2337
 31
0.0
  0
LINE
  8
0
 62
     0
 10
54.719
 20
35.2337
 30
0.0
 11
54.719
 21
35.833
 31
0.0
  0
LINE
  8
0
 62
     0
 10
54.719
 20
35.833
 30
0.0
 11
40.7197
 21
35.833
 31
0.0
  0
LINE
  8
0
 62
     0
 10
21.6697
 20
35.833
 30
0.0
 11
21.6697
 21
35.2337
 31
0.0
  0
LINE
  8
0
 62
     0
 10
21.6697
 20
35.2337
 30
0.0
 11
20.869
 21
35.2337
 31
0.0
  0
LINE
  8
0
 62
     0
 10
20.869
 20
35.2337
 30
0.0
 11
20.869
 21
22.4331
 31
0.0
  0
LINE
  8
0
 62
     0
 10
20.869
 20
22.4331
 30
0.0
 11
21.6697
 21
22.4331
 31
0.0
  0
LINE
  8
0
 62
     0
 10
21.6697
 20
22.4331
 30
0.0
 11
21.6697
 21
21.8336
 31
0.0
  0
LINE
  8
0
 62
     0
 10
21.6697
 20
21.8336
 30
0.0
 11
35.669
 21
21.8336
 31
0.0
  0
LINE
  8
0
 62
     0
 10
35.669
 20
21.8336
 30
0.0
 11
35.669
 21
22.4331
 31
0.0
  0
LINE
  8
0
 62
     0
 10
35.669
 20
22.4331
 30
0.0
 11
36.4698
 21
22.4331
 31
0.0
  0
LINE
  8
0
 62
     0
 10
36.4698
 20
22.4331
 30
0.0
 11
36.4698
 21
35.2337
 31
0.0
  0
LINE
  8
0
 62
     0
 10
36.4698
 20
35.2337
 30
0.0
 11
35.669
 21
35.2337
 31
0.0
  0
LINE
  8
0
 62
     0
 10
35.669
 20
35.2337
 30
0.0
 11
35.669
 21
35.833
 31
0.0
  0
LINE
  8
0
 62
     0
 10
35.669
 20
35.833
 30
0.0
 11
21.6697
 21
35.833
 31
0.0
  0
LINE
  8
0
 62
     0
 10
2.61965
 20
35.833
 30
0.0
 11
2.61965
 21
35.2337
 31
0.0
  0
LINE
  8
0
 62
     0
 10
2.61965
 20
35.2337
 30
0.0
 11
1.81901
 21
35.2337
 31
0.0
  0
LINE
  8
0
 62
     0
 10
1.81901
 20
35.2337
 30
0.0
 11
1.81901
 21
22.4331
 31
0.0
  0
LINE
  8
0
 62
     0
 10
1.81901
 20
22.4331
 30
0.0
 11
2.61965
 21
22.4331
 31
0.0
  0
LINE
  8
0
 62
     0
 10
2.61965
 20
22.4331
 30
0.0
 11
2.61965
 21
21.8336
 31
0.0
  0
LINE
  8
0
 62
     0
 10
2.61965
 20
21.8336
 30
0.0
 11
16.6192
 21
21.8336
 31
0.0
  0
LINE
  8
0
 62
     0
 10
16.6192
 20
21.8336
 30
0.0
 11
16.6192
 21
22.4331
 31
0.0
  0
LINE
  8
0
 62
     0
 10
16.6192
 20
22.4331
 30
0.0
 11
17.4198
 21
22.4331
 31
0.0
  0
LINE
  8
0
 62
     0
 10
17.4198
 20
22.4331
 30
0.0
 11
17.4198
 21
35.2337
 31
0.0
  0
LINE
  8
0
 62
     0
 10
17.4198
 20
35.2337
 30
0.0
 11
16.6192
 21
35.2337
 31
0.0
  0
LINE
  8
0
 62
     0
 10
16.6192
 20
35.2337
 30
0.0
 11
16.6192
 21
35.833
 31
0.0
  0
LINE
  8
0
 62
     0
 10
16.6192
 20
35.833
 30
0.0
 11
2.61965
 21
35.833
 31
0.0
  0
LINE
  8
0
 62
     0
 10
231.22
 20
54.8831
 30
0.0
 11
231.22
 21
54.2837
 31
0.0
  0
LINE
  8
0
 62
     0
 10
231.22
 20
54.2837
 30
0.0
 11
230.419
 21
54.2837
 31
0.0
  0
LINE
  8
0
 62
     0
 10
230.419
 20
54.2837
 30
0.0
 11
230.419
 21
41.4831
 31
0.0
  0
LINE
  8
0
 62
     0
 10
230.419
 20
41.4831
 30
0.0
 11
231.22
 21
41.4831
 31
0.0
  0
LINE
  8
0
 62
     0
 10
231.22
 20
41.4831
 30
0.0
 11
231.22
 21
40.8838
 31
0.0
  0
LINE
  8
0
 62
     0
 10
231.22
 20
40.8838
 30
0.0
 11
245.219
 21
40.8838
 31
0.0
  0
LINE
  8
0
 62
     0
 10
245.219
 20
40.8838
 30
0.0
 11
245.219
 21
41.4831
 31
0.0
  0
LINE
  8
0
 62
     0
 10
245.219
 20
41.4831
 30
0.0
 11
246.02
 21
41.4831
 31
0.0
  0
LINE
  8
0
 62
     0
 10
246.02
 20
41.4831
 30
0.0
 11
246.02
 21
54.2837
 31
0.0
  0
LINE
  8
0
 62
     0
 10
246.02
 20
54.2837
 30
0.0
 11
245.219
 21
54.2837
 31
0.0
  0
LINE
  8
0
 62
     0
 10
245.219
 20
54.2837
 30
0.0
 11
245.219
 21
54.8831
 31
0.0
  0
LINE
  8
0
 62
     0
 10
245.219
 20
54.8831
 30
0.0
 11
231.22
 21
54.8831
 31
0.0
  0
LINE
  8
0
 62
     0
 10
212.17
 20
54.8831
 30
0.0
 11
212.17
 21
54.2837
 31
0.0
  0
LINE
  8
0
 62
     0
 10
212.17
 20
54.2837
 30
0.0
 11
211.369
 21
54.2837
 31
0.0
  0
LINE
  8
0
 62
     0
 10
211.369
 20
54.2837
 30
0.0
 11
211.369
 21
41.4831
 31
0.0
  0
LINE
  8
0
 62
     0
 10
211.369
 20
41.4831
 30
0.0
 11
212.17
 21
41.4831
 31
0.0
  0
LINE
  8
0
 62
     0
 10
212.17
 20
41.4831
 30
0.0
 11
212.17
 21
40.8838
 31
0.0
  0
LINE
  8
0
 62
     0
 10
212.17
 20
40.8838
 30
0.0
 11
226.169
 21
40.8838
 31
0.0
  0
LINE
  8
0
 62
     0
 10
226.169
 20
40.8838
 30
0.0
 11
226.169
 21
41.4831
 31
0.0
  0
LINE
  8
0
 62
     0
 10
226.169
 20
41.4831
 30
0.0
 11
226.97
 21
41.4831
 31
0.0
  0
LINE
  8
0
 62
     0
 10
226.97
 20
41.4831
 30
0.0
 11
226.97
 21
54.2837
 31
0.0
  0
LINE
  8
0
 62
     0
 10
226.97
 20
54.2837
 30
0.0
 11
226.169
 21
54.2837
 31
0.0
  0
LINE
  8
0
 62
     0
 10
226.169
 20
54.2837
 30
0.0
 11
226.169
 21
54.8831
 31
0.0
  0
LINE
  8
0
 62
     0
 10
226.169
 20
54.8831
 30
0.0
 11
212.17
 21
54.8831
 31
0.0
  0
LINE
  8
0
 62
     0
 10
193.12
 20
54.8831
 30
0.0
 11
193.12
 21
54.2837
 31
0.0
  0
LINE
  8
0
 62
     0
 10
193.12
 20
54.2837
 30
0.0
 11
192.319
 21
54.2837
 31
0.0
  0
LINE
  8
0
 62
     0
 10
192.319
 20
54.2837
 30
0.0
 11
192.319
 21
41.4831
 31
0.0
  0
LINE
  8
0
 62
     0
 10
192.319
 20
41.4831
 30
0.0
 11
193.12
 21
41.4831
 31
0.0
  0
LINE
  8
0
 62
     0
 10
193.12
 20
41.4831
 30
0.0
 11
193.12
 21
40.8838
 31
0.0
  0
LINE
  8
0
 62
     0
 10
193.12
 20
40.8838
 30
0.0
 11
207.119
 21
40.8838
 31
0.0
  0
LINE
  8
0
 62
     0
 10
207.119
 20
40.8838
 30
0.0
 11
207.119
 21
41.4831
 31
0.0
  0
LINE
  8
0
 62
     0
 10
207.119
 20
41.4831
 30
0.0
 11
207.92
 21
41.4831
 31
0.0
  0
LINE
  8
0
 62
     0
 10
207.92
 20
41.4831
 30
0.0
 11
207.92
 21
54.2837
 31
0.0
  0
LINE
  8
0
 62
     0
 10
207.92
 20
54.2837
 30
0.0
 11
207.119
 21
54.2837
 31
0.0
  0
LINE
  8
0
 62
     0
 10
207.119
 20
54.2837
 30
0.0
 11
207.119
 21
54.8831
 31
0.0
  0
LINE
  8
0
 62
     0
 10
207.119
 20
54.8831
 30
0.0
 11
193.12
 21
54.8831
 31
0.0
  0
LINE
  8
0
 62
     0
 10
174.07
 20
54.8831
 30
0.0
 11
174.07
 21
54.2837
 31
0.0
  0
LINE
  8
0
 62
     0
 10
174.07
 20
54.2837
 30
0.0
 11
173.269
 21
54.2837
 31
0.0
  0
LINE
  8
0
 62
     0
 10
173.269
 20
54.2837
 30
0.0
 11
173.269
 21
41.4831
 31
0.0
  0
LINE
  8
0
 62
     0
 10
173.269
 20
41.4831
 30
0.0
 11
174.07
 21
41.4831
 31
0.0
  0
LINE
  8
0
 62
     0
 10
174.07
 20
41.4831
 30
0.0
 11
174.07
 21
40.8838
 31
0.0
  0
LINE
  8
0
 62
     0
 10
174.07
 20
40.8838
 30
0.0
 11
188.069
 21
40.8838
 31
0.0
  0
LINE
  8
0
 62
     0
 10
188.069
 20
40.8838
 30
0.0
 11
188.069
 21
41.4831
 31
0.0
  0
LINE
  8
0
 62
     0
 10
188.069
 20
41.4831
 30
0.0
 11
188.87
 21
41.4831
 31
0.0
  0
LINE
  8
0
 62
     0
 10
188.87
 20
41.4831
 30
0.0
 11
188.87
 21
54.2837
 31
0.0
  0
LINE
  8
0
 62
     0
 10
188.87
 20
54.2837
 30
0.0
 11
188.069
 21
54.2837
 31
0.0
  0
LINE
  8
0
 62
     0
 10
188.069
 20
54.2837
 30
0.0
 11
188.069
 21
54.8831
 31
0.0
  0
LINE
  8
0
 62
     0
 10
188.069
 20
54.8831
 30
0.0
 11
174.07
 21
54.8831
 31
0.0
  0
LINE
  8
0
 62
     0
 10
155.02
 20
54.8831
 30
0.0
 11
155.02
 21
54.2837
 31
0.0
  0
LINE
  8
0
 62
     0
 10
155.02
 20
54.2837
 30
0.0
 11
154.219
 21
54.2837
 31
0.0
  0
LINE
  8
0
 62
     0
 10
154.219
 20
54.2837
 30
0.0
 11
154.219
 21
41.4831
 31
0.0
  0
LINE
  8
0
 62
     0
 10
154.219
 20
41.4831
 30
0.0
 11
155.02
 21
41.4831
 31
0.0
  0
LINE
  8
0
 62
     0
 10
155.02
 20
41.4831
 30
0.0
 11
155.02
 21
40.8838
 31
0.0
  0
LINE
  8
0
 62
     0
 10
155.02
 20
40.8838
 30
0.0
 11
169.019
 21
40.8838
 31
0.0
  0
LINE
  8
0
 62
     0
 10
169.019
 20
40.8838
 30
0.0
 11
169.019
 21
41.4831
 31
0.0
  0
LINE
  8
0
 62
     0
 10
169.019
 20
41.4831
 30
0.0
 11
169.82
 21
41.4831
 31
0.0
  0
LINE
  8
0
 62
     0
 10
169.82
 20
41.4831
 30
0.0
 11
169.82
 21
54.2837
 31
0.0
  0
LINE
  8
0
 62
     0
 10
169.82
 20
54.2837
 30
0.0
 11
169.019
 21
54.2837
 31
0.0
  0
LINE
  8
0
 62
     0
 10
169.019
 20
54.2837
 30
0.0
 11
169.019
 21
54.8831
 31
0.0
  0
LINE
  8
0
 62
     0
 10
169.019
 20
54.8831
 30
0.0
 11
155.02
 21
54.8831
 31
0.0
  0
LINE
  8
0
 62
     0
 10
135.97
 20
54.8831
 30
0.0
 11
135.97
 21
54.2837
 31
0.0
  0
LINE
  8
0
 62
     0
 10
135.97
 20
54.2837
 30
0.0
 11
135.169
 21
54.2837
 31
0.0
  0
LINE
  8
0
 62
     0
 10
135.169
 20
54.2837
 30
0.0
 11
135.169
 21
41.4831
 31
0.0
  0
LINE
  8
0
 62
     0
 10
135.169
 20
41.4831
 30
0.0
 11
135.97
 21
41.4831
 31
0.0
  0
LINE
  8
0
 62
     0
 10
135.97
 20
41.4831
 30
0.0
 11
135.97
 21
40.8838
 31
0.0
  0
LINE
  8
0
 62
     0
 10
135.97
 20
40.8838
 30
0.0
 11
149.969
 21
40.8838
 31
0.0
  0
LINE
  8
0
 62
     0
 10
149.969
 20
40.8838
 30
0.0
 11
149.969
 21
41.4831
 31
0.0
  0
LINE
  8
0
 62
     0
 10
149.969
 20
41.4831
 30
0.0
 11
150.77
 21
41.4831
 31
0.0
  0
LINE
  8
0
 62
     0
 10
150.77
 20
41.4831
 30
0.0
 11
150.77
 21
54.2837
 31
0.0
  0
LINE
  8
0
 62
     0
 10
150.77
 20
54.2837
 30
0.0
 11
149.969
 21
54.2837
 31
0.0
  0
LINE
  8
0
 62
     0
 10
149.969
 20
54.2837
 30
0.0
 11
149.969
 21
54.8831
 31
0.0
  0
LINE
  8
0
 62
     0
 10
149.969
 20
54.8831
 30
0.0
 11
135.97
 21
54.8831
 31
0.0
  0
LINE
  8
0
 62
     0
 10
116.918
 20
54.8831
 30
0.0
 11
116.918
 21
54.2837
 31
0.0
  0
LINE
  8
0
 62
     0
 10
116.918
 20
54.2837
 30
0.0
 11
116.119
 21
54.2837
 31
0.0
  0
LINE
  8
0
 62
     0
 10
116.119
 20
54.2837
 30
0.0
 11
116.119
 21
41.4831
 31
0.0
  0
LINE
  8
0
 62
     0
 10
116.119
 20
41.4831
 30
0.0
 11
116.918
 21
41.4831
 31
0.0
  0
LINE
  8
0
 62
     0
 10
116.918
 20
41.4831
 30
0.0
 11
116.918
 21
40.8838
 31
0.0
  0
LINE
  8
0
 62
     0
 10
116.918
 20
40.8838
 30
0.0
 11
130.919
 21
40.8838
 31
0.0
  0
LINE
  8
0
 62
     0
 10
130.919
 20
40.8838
 30
0.0
 11
130.919
 21
41.4831
 31
0.0
  0
LINE
  8
0
 62
     0
 10
130.919
 20
41.4831
 30
0.0
 11
131.72
 21
41.4831
 31
0.0
  0
LINE
  8
0
 62
     0
 10
131.72
 20
41.4831
 30
0.0
 11
131.72
 21
54.2837
 31
0.0
  0
LINE
  8
0
 62
     0
 10
131.72
 20
54.2837
 30
0.0
 11
130.919
 21
54.2837
 31
0.0
  0
LINE
  8
0
 62
     0
 10
130.919
 20
54.2837
 30
0.0
 11
130.919
 21
54.8831
 31
0.0
  0
LINE
  8
0
 62
     0
 10
130.919
 20
54.8831
 30
0.0
 11
116.918
 21
54.8831
 31
0.0
  0
LINE
  8
0
 62
     0
 10
97.8683
 20
54.8831
 30
0.0
 11
97.8683
 21
54.2837
 31
0.0
  0
LINE
  8
0
 62
     0
 10
97.8683
 20
54.2837
 30
0.0
 11
97.0689
 21
54.2837
 31
0.0
  0
LINE
  8
0
 62
     0
 10
97.0689
 20
54.2837
 30
0.0
 11
97.0689
 21
41.4831
 31
0.0
  0
LINE
  8
0
 62
     0
 10
97.0689
 20
41.4831
 30
0.0
 11
97.8683
 21
41.4831
 31
0.0
  0
LINE
  8
0
 62
     0
 10
97.8683
 20
41.4831
 30
0.0
 11
97.8683
 21
40.8838
 31
0.0
  0
LINE
  8
0
 62
     0
 10
97.8683
 20
40.8838
 30
0.0
 11
111.869
 21
40.8838
 31
0.0
  0
LINE
  8
0
 62
     0
 10
111.869
 20
40.8838
 30
0.0
 11
111.869
 21
41.4831
 31
0.0
  0
LINE
  8
0
 62
     0
 10
111.869
 20
41.4831
 30
0.0
 11
112.668
 21
41.4831
 31
0.0
  0
LINE
  8
0
 62
     0
 10
112.668
 20
41.4831
 30
0.0
 11
112.668
 21
54.2837
 31
0.0
  0
LINE
  8
0
 62
     0
 10
112.668
 20
54.2837
 30
0.0
 11
111.869
 21
54.2837
 31
0.0
  0
LINE
  8
0
 62
     0
 10
111.869
 20
54.2837
 30
0.0
 11
111.869
 21
54.8831
 31
0.0
  0
LINE
  8
0
 62
     0
 10
111.869
 20
54.8831
 30
0.0
 11
97.8683
 21
54.8831
 31
0.0
  0
LINE
  8
0
 62
     0
 10
78.8197
 20
54.8831
 30
0.0
 11
78.8197
 21
54.2837
 31
0.0
  0
LINE
  8
0
 62
     0
 10
78.8197
 20
54.2837
 30
0.0
 11
78.0189
 21
54.2837
 31
0.0
  0
LINE
  8
0
 62
     0
 10
78.0189
 20
54.2837
 30
0.0
 11
78.0189
 21
41.4831
 31
0.0
  0
LINE
  8
0
 62
     0
 10
78.0189
 20
41.4831
 30
0.0
 11
78.8197
 21
41.4831
 31
0.0
  0
LINE
  8
0
 62
     0
 10
78.8197
 20
41.4831
 30
0.0
 11
78.8197
 21
40.8838
 31
0.0
  0
LINE
  8
0
 62
     0
 10
78.8197
 20
40.8838
 30
0.0
 11
92.819
 21
40.8838
 31
0.0
  0
LINE
  8
0
 62
     0
 10
92.819
 20
40.8838
 30
0.0
 11
92.819
 21
41.4831
 31
0.0
  0
LINE
  8
0
 62
     0
 10
92.819
 20
41.4831
 30
0.0
 11
93.6184
 21
41.4831
 31
0.0
  0
LINE
  8
0
 62
     0
 10
93.6184
 20
41.4831
 30
0.0
 11
93.6184
 21
54.2837
 31
0.0
  0
LINE
  8
0
 62
     0
 10
93.6184
 20
54.2837
 30
0.0
 11
92.819
 21
54.2837
 31
0.0
  0
LINE
  8
0
 62
     0
 10
92.819
 20
54.2837
 30
0.0
 11
92.819
 21
54.8831
 31
0.0
  0
LINE
  8
0
 62
     0
 10
92.819
 20
54.8831
 30
0.0
 11
78.8197
 21
54.8831
 31
0.0
  0
LINE
  8
0
 62
     0
 10
59.7697
 20
54.8831
 30
0.0
 11
59.7697
 21
54.2837
 31
0.0
  0
LINE
  8
0
 62
     0
 10
59.7697
 20
54.2837
 30
0.0
 11
58.9689
 21
54.2837
 31
0.0
  0
LINE
  8
0
 62
     0
 10
58.9689
 20
54.2837
 30
0.0
 11
58.9689
 21
41.4831
 31
0.0
  0
LINE
  8
0
 62
     0
 10
58.9689
 20
41.4831
 30
0.0
 11
59.7697
 21
41.4831
 31
0.0
  0
LINE
  8
0
 62
     0
 10
59.7697
 20
41.4831
 30
0.0
 11
59.7697
 21
40.8838
 31
0.0
  0
LINE
  8
0
 62
     0
 10
59.7697
 20
40.8838
 30
0.0
 11
73.769
 21
40.8838
 31
0.0
  0
LINE
  8
0
 62
     0
 10
73.769
 20
40.8838
 30
0.0
 11
73.769
 21
41.4831
 31
0.0
  0
LINE
  8
0
 62
     0
 10
73.769
 20
41.4831
 30
0.0
 11
74.5698
 21
41.4831
 31
0.0
  0
LINE
  8
0
 62
     0
 10
74.5698
 20
41.4831
 30
0.0
 11
74.5698
 21
54.2837
 31
0.0
  0
LINE
  8
0
 62
     0
 10
74.5698
 20
54.2837
 30
0.0
 11
73.769
 21
54.2837
 31
0.0
  0
LINE
  8
0
 62
     0
 10
73.769
 20
54.2837
 30
0.0
 11
73.769
 21
54.8831
 31
0.0
  0
LINE
  8
0
 62
     0
 10
73.769
 20
54.8831
 30
0.0
 11
59.7697
 21
54.8831
 31
0.0
  0
LINE
  8
0
 62
     0
 10
40.7197
 20
54.8831
 30
0.0
 11
40.7197
 21
54.2837
 31
0.0
  0
LINE
  8
0
 62
     0
 10
40.7197
 20
54.2837
 30
0.0
 11
39.9189
 21
54.2837
 31
0.0
  0
LINE
  8
0
 62
     0
 10
39.9189
 20
54.2837
 30
0.0
 11
39.9189
 21
41.4831
 31
0.0
  0
LINE
  8
0
 62
     0
 10
39.9189
 20
41.4831
 30
0.0
 11
40.7197
 21
41.4831
 31
0.0
  0
LINE
  8
0
 62
     0
 10
40.7197
 20
41.4831
 30
0.0
 11
40.7197
 21
40.8838
 31
0.0
  0
LINE
  8
0
 62
     0
 10
40.7197
 20
40.8838
 30
0.0
 11
54.719
 21
40.8838
 31
0.0
  0
LINE
  8
0
 62
     0
 10
54.719
 20
40.8838
 30
0.0
 11
54.719
 21
41.4831
 31
0.0
  0
LINE
  8
0
 62
     0
 10
54.719
 20
41.4831
 30
0.0
 11
55.5198
 21
41.4831
 31
0.0
  0
LINE
  8
0
 62
     0
 10
55.5198
 20
41.4831
 30
0.0
 11
55.5198
 21
54.2837
 31
0.0
  0
LINE
  8
0
 62
     0
 10
55.5198
 20
54.2837
 30
0.0
 11
54.719
 21
54.2837
 31
0.0
  0
LINE
  8
0
 62
     0
 10
54.719
 20
54.2837
 30
0.0
 11
54.719
 21
54.8831
 31
0.0
  0
LINE
  8
0
 62
     0
 10
54.719
 20
54.8831
 30
0.0
 11
40.7197
 21
54.8831
 31
0.0
  0
LINE
  8
0
 62
     0
 10
21.6697
 20
54.8831
 30
0.0
 11
21.6697
 21
54.2837
 31
0.0
  0
LINE
  8
0
 62
     0
 10
21.6697
 20
54.2837
 30
0.0
 11
20.869
 21
54.2837
 31
0.0
  0
LINE
  8
0
 62
     0
 10
20.869
 20
54.2837
 30
0.0
 11
20.869
 21
41.4831
 31
0.0
  0
LINE
  8
0
 62
     0
 10
20.869
 20
41.4831
 30
0.0
 11
21.6697
 21
41.4831
 31
0.0
  0
LINE
  8
0
 62
     0
 10
21.6697
 20
41.4831
 30
0.0
 11
21.6697
 21
40.8838
 31
0.0
  0
LINE
  8
0
 62
     0
 10
21.6697
 20
40.8838
 30
0.0
 11
35.669
 21
40.8838
 31
0.0
  0
LINE
  8
0
 62
     0
 10
35.669
 20
40.8838
 30
0.0
 11
35.669
 21
41.4831
 31
0.0
  0
LINE
  8
0
 62
     0
 10
35.669
 20
41.4831
 30
0.0
 11
36.4698
 21
41.4831
 31
0.0
  0
LINE
  8
0
 62
     0
 10
36.4698
 20
41.4831
 30
0.0
 11
36.4698
 21
54.2837
 31
0.0
  0
LINE
  8
0
 62
     0
 10
36.4698
 20
54.2837
 30
0.0
 11
35.669
 21
54.2837
 31
0.0
  0
LINE
  8
0
 62
     0
 10
35.669
 20
54.2837
 30
0.0
 11
35.669
 21
54.8831
 31
0.0
  0
LINE
  8
0
 62
     0
 10
35.669
 20
54.8831
 30
0.0
 11
21.6697
 21
54.8831
 31
0.0
  0
LINE
  8
0
 62
     0
 10
2.61965
 20
54.8831
 30
0.0
 11
2.61965
 21
54.2837
 31
0.0
  0
LINE
  8
0
 62
     0
 10
2.61965
 20
54.2837
 30
0.0
 11
1.81901
 21
54.2837
 31
0.0
  0
LINE
  8
0
 62
     0
 10
1.81901
 20
54.2837
 30
0.0
 11
1.81901
 21
41.4831
 31
0.0
  0
LINE
  8
0
 62
     0
 10
1.81901
 20
41.4831
 30
0.0
 11
2.61965
 21
41.4831
 31
0.0
  0
LINE
  8
0
 62
     0
 10
2.61965
 20
41.4831
 30
0.0
 11
2.61965
 21
40.8838
 31
0.0
  0
LINE
  8
0
 62
     0
 10
2.61965
 20
40.8838
 30
0.0
 11
16.6192
 21
40.8838
 31
0.0
  0
LINE
  8
0
 62
     0
 10
16.6192
 20
40.8838
 30
0.0
 11
16.6192
 21
41.4831
 31
0.0
  0
LINE
  8
0
 62
     0
 10
16.6192
 20
41.4831
 30
0.0
 11
17.4198
 21
41.4831
 31
0.0
  0
LINE
  8
0
 62
     0
 10
17.4198
 20
41.4831
 30
0.0
 11
17.4198
 21
54.2837
 31
0.0
  0
LINE
  8
0
 62
     0
 10
17.4198
 20
54.2837
 30
0.0
 11
16.6192
 21
54.2837
 31
0.0
  0
LINE
  8
0
 62
     0
 10
16.6192
 20
54.2837
 30
0.0
 11
16.6192
 21
54.8831
 31
0.0
  0
LINE
  8
0
 62
     0
 10
16.6192
 20
54.8831
 30
0.0
 11
2.61965
 21
54.8831
 31
0.0
  0
LINE
  8
0
 62
     0
 10
256.77
 20
73.5087
 30
0.0
 11
256.77
 21
72.6832
 31
0.0
  0
LINE
  8
0
 62
     0
 10
256.77
 20
72.6832
 30
0.0
 11
250.5
 21
72.6832
 31
0.0
  0
LINE
  8
0
 62
     0
 10
250.5
 20
72.6832
 30
0.0
 11
250.5
 21
70.9581
 31
0.0
  0
LINE
  8
0
 62
     0
 10
250.5
 20
70.9581
 30
0.0
 11
249.52
 21
70.9581
 31
0.0
  0
LINE
  8
0
 62
     0
 10
249.52
 20
70.9581
 30
0.0
 11
249.52
 21
67.6589
 31
0.0
  0
LINE
  8
0
 62
     0
 10
249.52
 20
67.6589
 30
0.0
 11
250.5
 21
67.6589
 31
0.0
  0
LINE
  8
0
 62
     0
 10
250.5
 20
67.6589
 30
0.0
 11
250.5
 21
65.9335
 31
0.0
  0
LINE
  8
0
 62
     0
 10
250.5
 20
65.9335
 30
0.0
 11
254.97
 21
65.9335
 31
0.0
  0
LINE
  8
0
 62
     0
 10
254.97
 20
65.9335
 30
0.0
 11
254.97
 21
65.2089
 31
0.0
  0
LINE
  8
0
 62
     0
 10
254.97
 20
65.2089
 30
0.0
 11
250.869
 21
65.2089
 31
0.0
  0
LINE
  8
0
 62
     0
 10
250.869
 20
65.2089
 30
0.0
 11
250.869
 21
64.4081
 31
0.0
  0
LINE
  8
0
 62
     0
 10
250.869
 20
64.4081
 30
0.0
 11
250.27
 21
64.4081
 31
0.0
  0
LINE
  8
0
 62
     0
 10
250.27
 20
64.4081
 30
0.0
 11
250.27
 21
50.4088
 31
0.0
  0
LINE
  8
0
 62
     0
 10
250.27
 20
50.4088
 30
0.0
 11
250.869
 21
50.4088
 31
0.0
  0
LINE
  8
0
 62
     0
 10
250.869
 20
50.4088
 30
0.0
 11
250.869
 21
49.608
 31
0.0
  0
LINE
  8
0
 62
     0
 10
250.869
 20
49.608
 30
0.0
 11
254.97
 21
49.608
 31
0.0
  0
LINE
  8
0
 62
     0
 10
254.97
 20
49.608
 30
0.0
 11
254.97
 21
48.883
 31
0.0
  0
LINE
  8
0
 62
     0
 10
254.97
 20
48.883
 30
0.0
 11
250.5
 21
48.883
 31
0.0
  0
LINE
  8
0
 62
     0
 10
250.5
 20
48.883
 30
0.0
 11
250.5
 21
47.1579
 31
0.0
  0
LINE
  8
0
 62
     0
 10
250.5
 20
47.1579
 30
0.0
 11
249.52
 21
47.1579
 31
0.0
  0
LINE
  8
0
 62
     0
 10
249.52
 20
47.1579
 30
0.0
 11
249.52
 21
43.8587
 31
0.0
  0
LINE
  8
0
 62
     0
 10
249.52
 20
43.8587
 30
0.0
 11
250.5
 21
43.8587
 31
0.0
  0
LINE
  8
0
 62
     0
 10
250.5
 20
43.8587
 30
0.0
 11
250.5
 21
42.1337
 31
0.0
  0
LINE
  8
0
 62
     0
 10
250.5
 20
42.1337
 30
0.0
 11
256.77
 21
42.1337
 31
0.0
  0
LINE
  8
0
 62
     0
 10
256.77
 20
42.1337
 30
0.0
 11
256.77
 21
41.3082
 31
0.0
  0
LINE
  8
0
 62
     0
 10
256.77
 20
41.3082
 30
0.0
 11
259.57
 21
41.3082
 31
0.0
  0
LINE
  8
0
 62
     0
 10
259.57
 20
41.3082
 30
0.0
 11
259.57
 21
42.1337
 31
0.0
  0
LINE
  8
0
 62
     0
 10
259.57
 20
42.1337
 30
0.0
 11
262.8
 21
42.1337
 31
0.0
  0
LINE
  8
0
 62
     0
 10
262.8
 20
42.1337
 30
0.0
 11
262.8
 21
43.8587
 31
0.0
  0
LINE
  8
0
 62
     0
 10
262.8
 20
43.8587
 30
0.0
 11
263.719
 21
43.8587
 31
0.0
  0
LINE
  8
0
 62
     0
 10
263.719
 20
43.8587
 30
0.0
 11
263.719
 21
47.1579
 31
0.0
  0
LINE
  8
0
 62
     0
 10
263.719
 20
47.1579
 30
0.0
 11
262.8
 21
47.1579
 31
0.0
  0
LINE
  8
0
 62
     0
 10
262.8
 20
47.1579
 30
0.0
 11
262.8
 21
48.883
 31
0.0
  0
LINE
  8
0
 62
     0
 10
262.8
 20
48.883
 30
0.0
 11
259.57
 21
48.883
 31
0.0
  0
LINE
  8
0
 62
     0
 10
259.57
 20
48.883
 30
0.0
 11
259.57
 21
49.608
 31
0.0
  0
LINE
  8
0
 62
     0
 10
259.57
 20
49.608
 30
0.0
 11
263.67
 21
49.608
 31
0.0
  0
LINE
  8
0
 62
     0
 10
263.67
 20
49.608
 30
0.0
 11
263.67
 21
50.4088
 31
0.0
  0
LINE
  8
0
 62
     0
 10
263.67
 20
50.4088
 30
0.0
 11
264.269
 21
50.4088
 31
0.0
  0
LINE
  8
0
 62
     0
 10
264.269
 20
50.4088
 30
0.0
 11
264.269
 21
64.4081
 31
0.0
  0
LINE
  8
0
 62
     0
 10
264.269
 20
64.4081
 30
0.0
 11
263.67
 21
64.4081
 31
0.0
  0
LINE
  8
0
 62
     0
 10
263.67
 20
64.4081
 30
0.0
 11
263.67
 21
65.2089
 31
0.0
  0
LINE
  8
0
 62
     0
 10
263.67
 20
65.2089
 30
0.0
 11
259.57
 21
65.2089
 31
0.0
  0
LINE
  8
0
 62
     0
 10
259.57
 20
65.2089
 30
0.0
 11
259.57
 21
65.9335
 31
0.0
  0
LINE
  8
0
 62
     0
 10
259.57
 20
65.9335
 30
0.0
 11
262.8
 21
65.9335
 31
0.0
  0
LINE
  8
0
 62
     0
 10
262.8
 20
65.9335
 30
0.0
 11
262.8
 21
67.6589
 31
0.0
  0
LINE
  8
0
 62
     0
 10
262.8
 20
67.6589
 30
0.0
 11
263.719
 21
67.6589
 31
0.0
  0
LINE
  8
0
 62
     0
 10
263.719
 20
67.6589
 30
0.0
 11
263.719
 21
70.9581
 31
0.0
  0
LINE
  8
0
 62
     0
 10
263.719
 20
70.9581
 30
0.0
 11
262.8
 21
70.9581
 31
0.0
  0
LINE
  8
0
 62
     0
 10
262.8
 20
70.9581
 30
0.0
 11
262.8
 21
72.6832
 31
0.0
  0
LINE
  8
0
 62
     0
 10
262.8
 20
72.6832
 30
0.0
 11
259.57
 21
72.6832
 31
0.0
  0
LINE
  8
0
 62
     0
 10
259.57
 20
72.6832
 30
0.0
 11
259.57
 21
73.5087
 31
0.0
  0
LINE
  8
0
 62
     0
 10
259.57
 20
73.5087
 30
0.0
 11
256.77
 21
73.5087
 31
0.0
  0
LINE
  8
0
 62
     0
 10
231.22
 20
73.9331
 30
0.0
 11
231.22
 21
73.3337
 31
0.0
  0
LINE
  8
0
 62
     0
 10
231.22
 20
73.3337
 30
0.0
 11
230.419
 21
73.3337
 31
0.0
  0
LINE
  8
0
 62
     0
 10
230.419
 20
73.3337
 30
0.0
 11
230.419
 21
60.5331
 31
0.0
  0
LINE
  8
0
 62
     0
 10
230.419
 20
60.5331
 30
0.0
 11
231.22
 21
60.5331
 31
0.0
  0
LINE
  8
0
 62
     0
 10
231.22
 20
60.5331
 30
0.0
 11
231.22
 21
59.9338
 31
0.0
  0
LINE
  8
0
 62
     0
 10
231.22
 20
59.9338
 30
0.0
 11
245.219
 21
59.9338
 31
0.0
  0
LINE
  8
0
 62
     0
 10
245.219
 20
59.9338
 30
0.0
 11
245.219
 21
60.5331
 31
0.0
  0
LINE
  8
0
 62
     0
 10
245.219
 20
60.5331
 30
0.0
 11
246.02
 21
60.5331
 31
0.0
  0
LINE
  8
0
 62
     0
 10
246.02
 20
60.5331
 30
0.0
 11
246.02
 21
73.3337
 31
0.0
  0
LINE
  8
0
 62
     0
 10
246.02
 20
73.3337
 30
0.0
 11
245.219
 21
73.3337
 31
0.0
  0
LINE
  8
0
 62
     0
 10
245.219
 20
73.3337
 30
0.0
 11
245.219
 21
73.9331
 31
0.0
  0
LINE
  8
0
 62
     0
 10
245.219
 20
73.9331
 30
0.0
 11
231.22
 21
73.9331
 31
0.0
  0
LINE
  8
0
 62
     0
 10
212.17
 20
73.9331
 30
0.0
 11
212.17
 21
73.3337
 31
0.0
  0
LINE
  8
0
 62
     0
 10
212.17
 20
73.3337
 30
0.0
 11
211.369
 21
73.3337
 31
0.0
  0
LINE
  8
0
 62
     0
 10
211.369
 20
73.3337
 30
0.0
 11
211.369
 21
60.5331
 31
0.0
  0
LINE
  8
0
 62
     0
 10
211.369
 20
60.5331
 30
0.0
 11
212.17
 21
60.5331
 31
0.0
  0
LINE
  8
0
 62
     0
 10
212.17
 20
60.5331
 30
0.0
 11
212.17
 21
59.9338
 31
0.0
  0
LINE
  8
0
 62
     0
 10
212.17
 20
59.9338
 30
0.0
 11
226.169
 21
59.9338
 31
0.0
  0
LINE
  8
0
 62
     0
 10
226.169
 20
59.9338
 30
0.0
 11
226.169
 21
60.5331
 31
0.0
  0
LINE
  8
0
 62
     0
 10
226.169
 20
60.5331
 30
0.0
 11
226.97
 21
60.5331
 31
0.0
  0
LINE
  8
0
 62
     0
 10
226.97
 20
60.5331
 30
0.0
 11
226.97
 21
73.3337
 31
0.0
  0
LINE
  8
0
 62
     0
 10
226.97
 20
73.3337
 30
0.0
 11
226.169
 21
73.3337
 31
0.0
  0
LINE
  8
0
 62
     0
 10
226.169
 20
73.3337
 30
0.0
 11
226.169
 21
73.9331
 31
0.0
  0
LINE
  8
0
 62
     0
 10
226.169
 20
73.9331
 30
0.0
 11
212.17
 21
73.9331
 31
0.0
  0
LINE
  8
0
 62
     0
 10
193.12
 20
73.9331
 30
0.0
 11
193.12
 21
73.3337
 31
0.0
  0
LINE
  8
0
 62
     0
 10
193.12
 20
73.3337
 30
0.0
 11
192.319
 21
73.3337
 31
0.0
  0
LINE
  8
0
 62
     0
 10
192.319
 20
73.3337
 30
0.0
 11
192.319
 21
60.5331
 31
0.0
  0
LINE
  8
0
 62
     0
 10
192.319
 20
60.5331
 30
0.0
 11
193.12
 21
60.5331
 31
0.0
  0
LINE
  8
0
 62
     0
 10
193.12
 20
60.5331
 30
0.0
 11
193.12
 21
59.9338
 31
0.0
  0
LINE
  8
0
 62
     0
 10
193.12
 20
59.9338
 30
0.0
 11
207.119
 21
59.9338
 31
0.0
  0
LINE
  8
0
 62
     0
 10
207.119
 20
59.9338
 30
0.0
 11
207.119
 21
60.5331
 31
0.0
  0
LINE
  8
0
 62
     0
 10
207.119
 20
60.5331
 30
0.0
 11
207.92
 21
60.5331
 31
0.0
  0
LINE
  8
0
 62
     0
 10
207.92
 20
60.5331
 30
0.0
 11
207.92
 21
73.3337
 31
0.0
  0
LINE
  8
0
 62
     0
 10
207.92
 20
73.3337
 30
0.0
 11
207.119
 21
73.3337
 31
0.0
  0
LINE
  8
0
 62
     0
 10
207.119
 20
73.3337
 30
0.0
 11
207.119
 21
73.9331
 31
0.0
  0
LINE
  8
0
 62
     0
 10
207.119
 20
73.9331
 30
0.0
 11
193.12
 21
73.9331
 31
0.0
  0
LINE
  8
0
 62
     0
 10
174.07
 20
73.9331
 30
0.0
 11
174.07
 21
73.3337
 31
0.0
  0
LINE
  8
0
 62
     0
 10
174.07
 20
73.3337
 30
0.0
 11
173.269
 21
73.3337
 31
0.0
  0
LINE
  8
0
 62
     0
 10
173.269
 20
73.3337
 30
0.0
 11
173.269
 21
60.5331
 31
0.0
  0
LINE
  8
0
 62
     0
 10
173.269
 20
60.5331
 30
0.0
 11
174.07
 21
60.5331
 31
0.0
  0
LINE
  8
0
 62
     0
 10
174.07
 20
60.5331
 30
0.0
 11
174.07
 21
59.9338
 31
0.0
  0
LINE
  8
0
 62
     0
 10
174.07
 20
59.9338
 30
0.0
 11
188.069
 21
59.9338
 31
0.0
  0
LINE
  8
0
 62
     0
 10
188.069
 20
59.9338
 30
0.0
 11
188.069
 21
60.5331
 31
0.0
  0
LINE
  8
0
 62
     0
 10
188.069
 20
60.5331
 30
0.0
 11
188.87
 21
60.5331
 31
0.0
  0
LINE
  8
0
 62
     0
 10
188.87
 20
60.5331
 30
0.0
 11
188.87
 21
73.3337
 31
0.0
  0
LINE
  8
0
 62
     0
 10
188.87
 20
73.3337
 30
0.0
 11
188.069
 21
73.3337
 31
0.0
  0
LINE
  8
0
 62
     0
 10
188.069
 20
73.3337
 30
0.0
 11
188.069
 21
73.9331
 31
0.0
  0
LINE
  8
0
 62
     0
 10
188.069
 20
73.9331
 30
0.0
 11
174.07
 21
73.9331
 31
0.0
  0
LINE
  8
0
 62
     0
 10
155.02
 20
73.9331
 30
0.0
 11
155.02
 21
73.3337
 31
0.0
  0
LINE
  8
0
 62
     0
 10
155.02
 20
73.3337
 30
0.0
 11
154.219
 21
73.3337
 31
0.0
  0
LINE
  8
0
 62
     0
 10
154.219
 20
73.3337
 30
0.0
 11
154.219
 21
60.5331
 31
0.0
  0
LINE
  8
0
 62
     0
 10
154.219
 20
60.5331
 30
0.0
 11
155.02
 21
60.5331
 31
0.0
  0
LINE
  8
0
 62
     0
 10
155.02
 20
60.5331
 30
0.0
 11
155.02
 21
59.9338
 31
0.0
  0
LINE
  8
0
 62
     0
 10
155.02
 20
59.9338
 30
0.0
 11
169.019
 21
59.9338
 31
0.0
  0
LINE
  8
0
 62
     0
 10
169.019
 20
59.9338
 30
0.0
 11
169.019
 21
60.5331
 31
0.0
  0
LINE
  8
0
 62
     0
 10
169.019
 20
60.5331
 30
0.0
 11
169.82
 21
60.5331
 31
0.0
  0
LINE
  8
0
 62
     0
 10
169.82
 20
60.5331
 30
0.0
 11
169.82
 21
73.3337
 31
0.0
  0
LINE
  8
0
 62
     0
 10
169.82
 20
73.3337
 30
0.0
 11
169.019
 21
73.3337
 31
0.0
  0
LINE
  8
0
 62
     0
 10
169.019
 20
73.3337
 30
0.0
 11
169.019
 21
73.9331
 31
0.0
  0
LINE
  8
0
 62
     0
 10
169.019
 20
73.9331
 30
0.0
 11
155.02
 21
73.9331
 31
0.0
  0
LINE
  8
0
 62
     0
 10
135.97
 20
73.9331
 30
0.0
 11
135.97
 21
73.3337
 31
0.0
  0
LINE
  8
0
 62
     0
 10
135.97
 20
73.3337
 30
0.0
 11
135.169
 21
73.3337
 31
0.0
  0
LINE
  8
0
 62
     0
 10
135.169
 20
73.3337
 30
0.0
 11
135.169
 21
60.5331
 31
0.0
  0
LINE
  8
0
 62
     0
 10
135.169
 20
60.5331
 30
0.0
 11
135.97
 21
60.5331
 31
0.0
  0
LINE
  8
0
 62
     0
 10
135.97
 20
60.5331
 30
0.0
 11
135.97
 21
59.9338
 31
0.0
  0
LINE
  8
0
 62
     0
 10
135.97
 20
59.9338
 30
0.0
 11
149.969
 21
59.9338
 31
0.0
  0
LINE
  8
0
 62
     0
 10
149.969
 20
59.9338
 30
0.0
 11
149.969
 21
60.5331
 31
0.0
  0
LINE
  8
0
 62
     0
 10
149.969
 20
60.5331
 30
0.0
 11
150.77
 21
60.5331
 31
0.0
  0
LINE
  8
0
 62
     0
 10
150.77
 20
60.5331
 30
0.0
 11
150.77
 21
73.3337
 31
0.0
  0
LINE
  8
0
 62
     0
 10
150.77
 20
73.3337
 30
0.0
 11
149.969
 21
73.3337
 31
0.0
  0
LINE
  8
0
 62
     0
 10
149.969
 20
73.3337
 30
0.0
 11
149.969
 21
73.9331
 31
0.0
  0
LINE
  8
0
 62
     0
 10
149.969
 20
73.9331
 30
0.0
 11
135.97
 21
73.9331
 31
0.0
  0
LINE
  8
0
 62
     0
 10
116.918
 20
73.9331
 30
0.0
 11
116.918
 21
73.3337
 31
0.0
  0
LINE
  8
0
 62
     0
 10
116.918
 20
73.3337
 30
0.0
 11
116.119
 21
73.3337
 31
0.0
  0
LINE
  8
0
 62
     0
 10
116.119
 20
73.3337
 30
0.0
 11
116.119
 21
60.5331
 31
0.0
  0
LINE
  8
0
 62
     0
 10
116.119
 20
60.5331
 30
0.0
 11
116.918
 21
60.5331
 31
0.0
  0
LINE
  8
0
 62
     0
 10
116.918
 20
60.5331
 30
0.0
 11
116.918
 21
59.9338
 31
0.0
  0
LINE
  8
0
 62
     0
 10
116.918
 20
59.9338
 30
0.0
 11
130.919
 21
59.9338
 31
0.0
  0
LINE
  8
0
 62
     0
 10
130.919
 20
59.9338
 30
0.0
 11
130.919
 21
60.5331
 31
0.0
  0
LINE
  8
0
 62
     0
 10
130.919
 20
60.5331
 30
0.0
 11
131.72
 21
60.5331
 31
0.0
  0
LINE
  8
0
 62
     0
 10
131.72
 20
60.5331
 30
0.0
 11
131.72
 21
73.3337
 31
0.0
  0
LINE
  8
0
 62
     0
 10
131.72
 20
73.3337
 30
0.0
 11
130.919
 21
73.3337
 31
0.0
  0
LINE
  8
0
 62
     0
 10
130.919
 20
73.3337
 30
0.0
 11
130.919
 21
73.9331
 31
0.0
  0
LINE
  8
0
 62
     0
 10
130.919
 20
73.9331
 30
0.0
 11
116.918
 21
73.9331
 31
0.0
  0
LINE
  8
0
 62
     0
 10
97.8683
 20
73.9331
 30
0.0
 11
97.8683
 21
73.3337
 31
0.0
  0
LINE
  8
0
 62
     0
 10
97.8683
 20
73.3337
 30
0.0
 11
97.0689
 21
73.3337
 31
0.0
  0
LINE
  8
0
 62
     0
 10
97.0689
 20
73.3337
 30
0.0
 11
97.0689
 21
60.5331
 31
0.0
  0
LINE
  8
0
 62
     0
 10
97.0689
 20
60.5331
 30
0.0
 11
97.8683
 21
60.5331
 31
0.0
  0
LINE
  8
0
 62
     0
 10
97.8683
 20
60.5331
 30
0.0
 11
97.8683
 21
59.9338
 31
0.0
  0
LINE
  8
0
 62
     0
 10
97.8683
 20
59.9338
 30
0.0
 11
111.869
 21
59.9338
 31
0.0
  0
LINE
  8
0
 62
     0
 10
111.869
 20
59.9338
 30
0.0
 11
111.869
 21
60.5331
 31
0.0
  0
LINE
  8
0
 62
     0
 10
111.869
 20
60.5331
 30
0.0
 11
112.668
 21
60.5331
 31
0.0
  0
LINE
  8
0
 62
     0
 10
112.668
 20
60.5331
 30
0.0
 11
112.668
 21
73.3337
 31
0.0
  0
LINE
  8
0
 62
     0
 10
112.668
 20
73.3337
 30
0.0
 11
111.869
 21
73.3337
 31
0.0
  0
LINE
  8
0
 62
     0
 10
111.869
 20
73.3337
 30
0.0
 11
111.869
 21
73.9331
 31
0.0
  0
LINE
  8
0
 62
     0
 10
111.869
 20
73.9331
 30
0.0
 11
97.8683
 21
73.9331
 31
0.0
  0
LINE
  8
0
 62
     0
 10
78.8197
 20
73.9331
 30
0.0
 11
78.8197
 21
73.3337
 31
0.0
  0
LINE
  8
0
 62
     0
 10
78.8197
 20
73.3337
 30
0.0
 11
78.0189
 21
73.3337
 31
0.0
  0
LINE
  8
0
 62
     0
 10
78.0189
 20
73.3337
 30
0.0
 11
78.0189
 21
60.5331
 31
0.0
  0
LINE
  8
0
 62
     0
 10
78.0189
 20
60.5331
 30
0.0
 11
78.8197
 21
60.5331
 31
0.0
  0
LINE
  8
0
 62
     0
 10
78.8197
 20
60.5331
 30
0.0
 11
78.8197
 21
59.9338
 31
0.0
  0
LINE
  8
0
 62
     0
 10
78.8197
 20
59.9338
 30
0.0
 11
92.819
 21
59.9338
 31
0.0
  0
LINE
  8
0
 62
     0
 10
92.819
 20
59.9338
 30
0.0
 11
92.819
 21
60.5331
 31
0.0
  0
LINE
  8
0
 62
     0
 10
92.819
 20
60.5331
 30
0.0
 11
93.6184
 21
60.5331
 31
0.0
  0
LINE
  8
0
 62
     0
 10
93.6184
 20
60.5331
 30
0.0
 11
93.6184
 21
73.3337
 31
0.0
  0
LINE
  8
0
 62
     0
 10
93.6184
 20
73.3337
 30
0.0
 11
92.819
 21
73.3337
 31
0.0
  0
LINE
  8
0
 62
     0
 10
92.819
 20
73.3337
 30
0.0
 11
92.819
 21
73.9331
 31
0.0
  0
LINE
  8
0
 62
     0
 10
92.819
 20
73.9331
 30
0.0
 11
78.8197
 21
73.9331
 31
0.0
  0
LINE
  8
0
 62
     0
 10
59.7697
 20
73.9331
 30
0.0
 11
59.7697
 21
73.3337
 31
0.0
  0
LINE
  8
0
 62
     0
 10
59.7697
 20
73.3337
 30
0.0
 11
58.9689
 21
73.3337
 31
0.0
  0
LINE
  8
0
 62
     0
 10
58.9689
 20
73.3337
 30
0.0
 11
58.9689
 21
60.5331
 31
0.0
  0
LINE
  8
0
 62
     0
 10
58.9689
 20
60.5331
 30
0.0
 11
59.7697
 21
60.5331
 31
0.0
  0
LINE
  8
0
 62
     0
 10
59.7697
 20
60.5331
 30
0.0
 11
59.7697
 21
59.9338
 31
0.0
  0
LINE
  8
0
 62
     0
 10
59.7697
 20
59.9338
 30
0.0
 11
73.769
 21
59.9338
 31
0.0
  0
LINE
  8
0
 62
     0
 10
73.769
 20
59.9338
 30
0.0
 11
73.769
 21
60.5331
 31
0.0
  0
LINE
  8
0
 62
     0
 10
73.769
 20
60.5331
 30
0.0
 11
74.5698
 21
60.5331
 31
0.0
  0
LINE
  8
0
 62
     0
 10
74.5698
 20
60.5331
 30
0.0
 11
74.5698
 21
73.3337
 31
0.0
  0
LINE
  8
0
 62
     0
 10
74.5698
 20
73.3337
 30
0.0
 11
73.769
 21
73.3337
 31
0.0
  0
LINE
  8
0
 62
     0
 10
73.769
 20
73.3337
 30
0.0
 11
73.769
 21
73.9331
 31
0.0
  0
LINE
  8
0
 62
     0
 10
73.769
 20
73.9331
 30
0.0
 11
59.7697
 21
73.9331
 31
0.0
  0
LINE
  8
0
 62
     0
 10
40.7197
 20
73.9331
 30
0.0
 11
40.7197
 21
73.3337
 31
0.0
  0
LINE
  8
0
 62
     0
 10
40.7197
 20
73.3337
 30
0.0
 11
39.9189
 21
73.3337
 31
0.0
  0
LINE
  8
0
 62
     0
 10
39.9189
 20
73.3337
 30
0.0
 11
39.9189
 21
60.5331
 31
0.0
  0
LINE
  8
0
 62
     0
 10
39.9189
 20
60.5331
 30
0.0
 11
40.7197
 21
60.5331
 31
0.0
  0
LINE
  8
0
 62
     0
 10
40.7197
 20
60.5331
 30
0.0
 11
40.7197
 21
59.9338
 31
0.0
  0
LINE
  8
0
 62
     0
 10
40.7197
 20
59.9338
 30
0.0
 11
54.719
 21
59.9338
 31
0.0
  0
LINE
  8
0
 62
     0
 10
54.719
 20
59.9338
 30
0.0
 11
54.719
 21
60.5331
 31
0.0
  0
LINE
  8
0
 62
     0
 10
54.719
 20
60.5331
 30
0.0
 11
55.5198
 21
60.5331
 31
0.0
  0
LINE
  8
0
 62
     0
 10
55.5198
 20
60.5331
 30
0.0
 11
55.5198
 21
73.3337
 31
0.0
  0
LINE
  8
0
 62
     0
 10
55.5198
 20
73.3337
 30
0.0
 11
54.719
 21
73.3337
 31
0.0
  0
LINE
  8
0
 62
     0
 10
54.719
 20
73.3337
 30
0.0
 11
54.719
 21
73.9331
 31
0.0
  0
LINE
  8
0
 62
     0
 10
54.719
 20
73.9331
 30
0.0
 11
40.7197
 21
73.9331
 31
0.0
  0
LINE
  8
0
 62
     0
 10
21.6697
 20
73.9331
 30
0.0
 11
21.6697
 21
73.3337
 31
0.0
  0
LINE
  8
0
 62
     0
 10
21.6697
 20
73.3337
 30
0.0
 11
20.869
 21
73.3337
 31
0.0
  0
LINE
  8
0
 62
     0
 10
20.869
 20
73.3337
 30
0.0
 11
20.869
 21
60.5331
 31
0.0
  0
LINE
  8
0
 62
     0
 10
20.869
 20
60.5331
 30
0.0
 11
21.6697
 21
60.5331
 31
0.0
  0
LINE
  8
0
 62
     0
 10
21.6697
 20
60.5331
 30
0.0
 11
21.6697
 21
59.9338
 31
0.0
  0
LINE
  8
0
 62
     0
 10
21.6697
 20
59.9338
 30
0.0
 11
35.669
 21
59.9338
 31
0.0
  0
LINE
  8
0
 62
     0
 10
35.669
 20
59.9338
 30
0.0
 11
35.669
 21
60.5331
 31
0.0
  0
LINE
  8
0
 62
     0
 10
35.669
 20
60.5331
 30
0.0
 11
36.4698
 21
60.5331
 31
0.0
  0
LINE
  8
0
 62
     0
 10
36.4698
 20
60.5331
 30
0.0
 11
36.4698
 21
73.3337
 31
0.0
  0
LINE
  8
0
 62
     0
 10
36.4698
 20
73.3337
 30
0.0
 11
35.669
 21
73.3337
 31
0.0
  0
LINE
  8
0
 62
     0
 10
35.669
 20
73.3337
 30
0.0
 11
35.669
 21
73.9331
 31
0.0
  0
LINE
  8
0
 62
     0
 10
35.669
 20
73.9331
 30
0.0
 11
21.6697
 21
73.9331
 31
0.0
  0
LINE
  8
0
 62
     0
 10
2.61965
 20
73.9331
 30
0.0
 11
2.61965
 21
73.3337
 31
0.0
  0
LINE
  8
0
 62
     0
 10
2.61965
 20
73.3337
 30
0.0
 11
1.81901
 21
73.3337
 31
0.0
  0
LINE
  8
0
 62
     0
 10
1.81901
 20
73.3337
 30
0.0
 11
1.81901
 21
60.5331
 31
0.0
  0
LINE
  8
0
 62
     0
 10
1.81901
 20
60.5331
 30
0.0
 11
2.61965
 21
60.5331
 31
0.0
  0
LINE
  8
0
 62
     0
 10
2.61965
 20
60.5331
 30
0.0
 11
2.61965
 21
59.9338
 31
0.0
  0
LINE
  8
0
 62
     0
 10
2.61965
 20
59.9338
 30
0.0
 11
16.6192
 21
59.9338
 31
0.0
  0
LINE
  8
0
 62
     0
 10
16.6192
 20
59.9338
 30
0.0
 11
16.6192
 21
60.5331
 31
0.0
  0
LINE
  8
0
 62
     0
 10
16.6192
 20
60.5331
 30
0.0
 11
17.4198
 21
60.5331
 31
0.0
  0
LINE
  8
0
 62
     0
 10
17.4198
 20
60.5331
 30
0.0
 11
17.4198
 21
73.3337
 31
0.0
  0
LINE
  8
0
 62
     0
 10
17.4198
 20
73.3337
 30
0.0
 11
16.6192
 21
73.3337
 31
0.0
  0
LINE
  8
0
 62
     0
 10
16.6192
 20
73.3337
 30
0.0
 11
16.6192
 21
73.9331
 31
0.0
  0
LINE
  8
0
 62
     0
 10
16.6192
 20
73.9331
 30
0.0
 11
2.61965
 21
73.9331
 31
0.0
  0
LINE
  8
0
 62
     0
 10
250.27
 20
92.9831
 30
0.0
 11
250.27
 21
92.3837
 31
0.0
  0
LINE
  8
0
 62
     0
 10
250.27
 20
92.3837
 30
0.0
 11
249.469
 21
92.3837
 31
0.0
  0
LINE
  8
0
 62
     0
 10
249.469
 20
92.3837
 30
0.0
 11
249.469
 21
79.5831
 31
0.0
  0
LINE
  8
0
 62
     0
 10
249.469
 20
79.5831
 30
0.0
 11
250.27
 21
79.5831
 31
0.0
  0
LINE
  8
0
 62
     0
 10
250.27
 20
79.5831
 30
0.0
 11
250.27
 21
78.9838
 31
0.0
  0
LINE
  8
0
 62
     0
 10
250.27
 20
78.9838
 30
0.0
 11
264.269
 21
78.9838
 31
0.0
  0
LINE
  8
0
 62
     0
 10
264.269
 20
78.9838
 30
0.0
 11
264.269
 21
79.5831
 31
0.0
  0
LINE
  8
0
 62
     0
 10
264.269
 20
79.5831
 30
0.0
 11
265.07
 21
79.5831
 31
0.0
  0
LINE
  8
0
 62
     0
 10
265.07
 20
79.5831
 30
0.0
 11
265.07
 21
92.3837
 31
0.0
  0
LINE
  8
0
 62
     0
 10
265.07
 20
92.3837
 30
0.0
 11
264.269
 21
92.3837
 31
0.0
  0
LINE
  8
0
 62
     0
 10
264.269
 20
92.3837
 30
0.0
 11
264.269
 21
92.9831
 31
0.0
  0
LINE
  8
0
 62
     0
 10
264.269
 20
92.9831
 30
0.0
 11
250.27
 21
92.9831
 31
0.0
  0
LINE
  8
0
 62
     0
 10
231.22
 20
92.9831
 30
0.0
 11
231.22
 21
92.3837
 31
0.0
  0
LINE
  8
0
 62
     0
 10
231.22
 20
92.3837
 30
0.0
 11
230.419
 21
92.3837
 31
0.0
  0
LINE
  8
0
 62
     0
 10
230.419
 20
92.3837
 30
0.0
 11
230.419
 21
79.5831
 31
0.0
  0
LINE
  8
0
 62
     0
 10
230.419
 20
79.5831
 30
0.0
 11
231.22
 21
79.5831
 31
0.0
  0
LINE
  8
0
 62
     0
 10
231.22
 20
79.5831
 30
0.0
 11
231.22
 21
78.9838
 31
0.0
  0
LINE
  8
0
 62
     0
 10
231.22
 20
78.9838
 30
0.0
 11
245.219
 21
78.9838
 31
0.0
  0
LINE
  8
0
 62
     0
 10
245.219
 20
78.9838
 30
0.0
 11
245.219
 21
79.5831
 31
0.0
  0
LINE
  8
0
 62
     0
 10
245.219
 20
79.5831
 30
0.0
 11
246.02
 21
79.5831
 31
0.0
  0
LINE
  8
0
 62
     0
 10
246.02
 20
79.5831
 30
0.0
 11
246.02
 21
92.3837
 31
0.0
  0
LINE
  8
0
 62
     0
 10
246.02
 20
92.3837
 30
0.0
 11
245.219
 21
92.3837
 31
0.0
  0
LINE
  8
0
 62
     0
 10
245.219
 20
92.3837
 30
0.0
 11
245.219
 21
92.9831
 31
0.0
  0
LINE
  8
0
 62
     0
 10
245.219
 20
92.9831
 30
0.0
 11
231.22
 21
92.9831
 31
0.0
  0
LINE
  8
0
 62
     0
 10
212.17
 20
92.9831
 30
0.0
 11
212.17
 21
92.3837
 31
0.0
  0
LINE
  8
0
 62
     0
 10
212.17
 20
92.3837
 30
0.0
 11
211.369
 21
92.3837
 31
0.0
  0
LINE
  8
0
 62
     0
 10
211.369
 20
92.3837
 30
0.0
 11
211.369
 21
79.5831
 31
0.0
  0
LINE
  8
0
 62
     0
 10
211.369
 20
79.5831
 30
0.0
 11
212.17
 21
79.5831
 31
0.0
  0
LINE
  8
0
 62
     0
 10
212.17
 20
79.5831
 30
0.0
 11
212.17
 21
78.9838
 31
0.0
  0
LINE
  8
0
 62
     0
 10
212.17
 20
78.9838
 30
0.0
 11
226.169
 21
78.9838
 31
0.0
  0
LINE
  8
0
 62
     0
 10
226.169
 20
78.9838
 30
0.0
 11
226.169
 21
79.5831
 31
0.0
  0
LINE
  8
0
 62
     0
 10
226.169
 20
79.5831
 30
0.0
 11
226.97
 21
79.5831
 31
0.0
  0
LINE
  8
0
 62
     0
 10
226.97
 20
79.5831
 30
0.0
 11
226.97
 21
92.3837
 31
0.0
  0
LINE
  8
0
 62
     0
 10
226.97
 20
92.3837
 30
0.0
 11
226.169
 21
92.3837
 31
0.0
  0
LINE
  8
0
 62
     0
 10
226.169
 20
92.3837
 30
0.0
 11
226.169
 21
92.9831
 31
0.0
  0
LINE
  8
0
 62
     0
 10
226.169
 20
92.9831
 30
0.0
 11
212.17
 21
92.9831
 31
0.0
  0
LINE
  8
0
 62
     0
 10
193.12
 20
92.9831
 30
0.0
 11
193.12
 21
92.3837
 31
0.0
  0
LINE
  8
0
 62
     0
 10
193.12
 20
92.3837
 30
0.0
 11
192.319
 21
92.3837
 31
0.0
  0
LINE
  8
0
 62
     0
 10
192.319
 20
92.3837
 30
0.0
 11
192.319
 21
79.5831
 31
0.0
  0
LINE
  8
0
 62
     0
 10
192.319
 20
79.5831
 30
0.0
 11
193.12
 21
79.5831
 31
0.0
  0
LINE
  8
0
 62
     0
 10
193.12
 20
79.5831
 30
0.0
 11
193.12
 21
78.9838
 31
0.0
  0
LINE
  8
0
 62
     0
 10
193.12
 20
78.9838
 30
0.0
 11
207.119
 21
78.9838
 31
0.0
  0
LINE
  8
0
 62
     0
 10
207.119
 20
78.9838
 30
0.0
 11
207.119
 21
79.5831
 31
0.0
  0
LINE
  8
0
 62
     0
 10
207.119
 20
79.5831
 30
0.0
 11
207.92
 21
79.5831
 31
0.0
  0
LINE
  8
0
 62
     0
 10
207.92
 20
79.5831
 30
0.0
 11
207.92
 21
92.3837
 31
0.0
  0
LINE
  8
0
 62
     0
 10
207.92
 20
92.3837
 30
0.0
 11
207.119
 21
92.3837
 31
0.0
  0
LINE
  8
0
 62
     0
 10
207.119
 20
92.3837
 30
0.0
 11
207.119
 21
92.9831
 31
0.0
  0
LINE
  8
0
 62
     0
 10
207.119
 20
92.9831
 30
0.0
 11
193.12
 21
92.9831
 31
0.0
  0
LINE
  8
0
 62
     0
 10
174.07
 20
92.9831
 30
0.0
 11
174.07
 21
92.3837
 31
0.0
  0
LINE
  8
0
 62
     0
 10
174.07
 20
92.3837
 30
0.0
 11
173.269
 21
92.3837
 31
0.0
  0
LINE
  8
0
 62
     0
 10
173.269
 20
92.3837
 30
0.0
 11
173.269
 21
79.5831
 31
0.0
  0
LINE
  8
0
 62
     0
 10
173.269
 20
79.5831
 30
0.0
 11
174.07
 21
79.5831
 31
0.0
  0
LINE
  8
0
 62
     0
 10
174.07
 20
79.5831
 30
0.0
 11
174.07
 21
78.9838
 31
0.0
  0
LINE
  8
0
 62
     0
 10
174.07
 20
78.9838
 30
0.0
 11
188.069
 21
78.9838
 31
0.0
  0
LINE
  8
0
 62
     0
 10
188.069
 20
78.9838
 30
0.0
 11
188.069
 21
79.5831
 31
0.0
  0
LINE
  8
0
 62
     0
 10
188.069
 20
79.5831
 30
0.0
 11
188.87
 21
79.5831
 31
0.0
  0
LINE
  8
0
 62
     0
 10
188.87
 20
79.5831
 30
0.0
 11
188.87
 21
92.3837
 31
0.0
  0
LINE
  8
0
 62
     0
 10
188.87
 20
92.3837
 30
0.0
 11
188.069
 21
92.3837
 31
0.0
  0
LINE
  8
0
 62
     0
 10
188.069
 20
92.3837
 30
0.0
 11
188.069
 21
92.9831
 31
0.0
  0
LINE
  8
0
 62
     0
 10
188.069
 20
92.9831
 30
0.0
 11
174.07
 21
92.9831
 31
0.0
  0
LINE
  8
0
 62
     0
 10
155.02
 20
92.9831
 30
0.0
 11
155.02
 21
92.3837
 31
0.0
  0
LINE
  8
0
 62
     0
 10
155.02
 20
92.3837
 30
0.0
 11
154.219
 21
92.3837
 31
0.0
  0
LINE
  8
0
 62
     0
 10
154.219
 20
92.3837
 30
0.0
 11
154.219
 21
79.5831
 31
0.0
  0
LINE
  8
0
 62
     0
 10
154.219
 20
79.5831
 30
0.0
 11
155.02
 21
79.5831
 31
0.0
  0
LINE
  8
0
 62
     0
 10
155.02
 20
79.5831
 30
0.0
 11
155.02
 21
78.9838
 31
0.0
  0
LINE
  8
0
 62
     0
 10
155.02
 20
78.9838
 30
0.0
 11
169.019
 21
78.9838
 31
0.0
  0
LINE
  8
0
 62
     0
 10
169.019
 20
78.9838
 30
0.0
 11
169.019
 21
79.5831
 31
0.0
  0
LINE
  8
0
 62
     0
 10
169.019
 20
79.5831
 30
0.0
 11
169.82
 21
79.5831
 31
0.0
  0
LINE
  8
0
 62
     0
 10
169.82
 20
79.5831
 30
0.0
 11
169.82
 21
92.3837
 31
0.0
  0
LINE
  8
0
 62
     0
 10
169.82
 20
92.3837
 30
0.0
 11
169.019
 21
92.3837
 31
0.0
  0
LINE
  8
0
 62
     0
 10
169.019
 20
92.3837
 30
0.0
 11
169.019
 21
92.9831
 31
0.0
  0
LINE
  8
0
 62
     0
 10
169.019
 20
92.9831
 30
0.0
 11
155.02
 21
92.9831
 31
0.0
  0
LINE
  8
0
 62
     0
 10
135.97
 20
92.9831
 30
0.0
 11
135.97
 21
92.3837
 31
0.0
  0
LINE
  8
0
 62
     0
 10
135.97
 20
92.3837
 30
0.0
 11
135.169
 21
92.3837
 31
0.0
  0
LINE
  8
0
 62
     0
 10
135.169
 20
92.3837
 30
0.0
 11
135.169
 21
79.5831
 31
0.0
  0
LINE
  8
0
 62
     0
 10
135.169
 20
79.5831
 30
0.0
 11
135.97
 21
79.5831
 31
0.0
  0
LINE
  8
0
 62
     0
 10
135.97
 20
79.5831
 30
0.0
 11
135.97
 21
78.9838
 31
0.0
  0
LINE
  8
0
 62
     0
 10
135.97
 20
78.9838
 30
0.0
 11
149.969
 21
78.9838
 31
0.0
  0
LINE
  8
0
 62
     0
 10
149.969
 20
78.9838
 30
0.0
 11
149.969
 21
79.5831
 31
0.0
  0
LINE
  8
0
 62
     0
 10
149.969
 20
79.5831
 30
0.0
 11
150.77
 21
79.5831
 31
0.0
  0
LINE
  8
0
 62
     0
 10
150.77
 20
79.5831
 30
0.0
 11
150.77
 21
92.3837
 31
0.0
  0
LINE
  8
0
 62
     0
 10
150.77
 20
92.3837
 30
0.0
 11
149.969
 21
92.3837
 31
0.0
  0
LINE
  8
0
 62
     0
 10
149.969
 20
92.3837
 30
0.0
 11
149.969
 21
92.9831
 31
0.0
  0
LINE
  8
0
 62
     0
 10
149.969
 20
92.9831
 30
0.0
 11
135.97
 21
92.9831
 31
0.0
  0
LINE
  8
0
 62
     0
 10
116.918
 20
92.9831
 30
0.0
 11
116.918
 21
92.3837
 31
0.0
  0
LINE
  8
0
 62
     0
 10
116.918
 20
92.3837
 30
0.0
 11
116.119
 21
92.3837
 31
0.0
  0
LINE
  8
0
 62
     0
 10
116.119
 20
92.3837
 30
0.0
 11
116.119
 21
79.5831
 31
0.0
  0
LINE
  8
0
 62
     0
 10
116.119
 20
79.5831
 30
0.0
 11
116.918
 21
79.5831
 31
0.0
  0
LINE
  8
0
 62
     0
 10
116.918
 20
79.5831
 30
0.0
 11
116.918
 21
78.9838
 31
0.0
  0
LINE
  8
0
 62
     0
 10
116.918
 20
78.9838
 30
0.0
 11
130.919
 21
78.9838
 31
0.0
  0
LINE
  8
0
 62
     0
 10
130.919
 20
78.9838
 30
0.0
 11
130.919
 21
79.5831
 31
0.0
  0
LINE
  8
0
 62
     0
 10
130.919
 20
79.5831
 30
0.0
 11
131.72
 21
79.5831
 31
0.0
  0
LINE
  8
0
 62
     0
 10
131.72
 20
79.5831
 30
0.0
 11
131.72
 21
92.3837
 31
0.0
  0
LINE
  8
0
 62
     0
 10
131.72
 20
92.3837
 30
0.0
 11
130.919
 21
92.3837
 31
0.0
  0
LINE
  8
0
 62
     0
 10
130.919
 20
92.3837
 30
0.0
 11
130.919
 21
92.9831
 31
0.0
  0
LINE
  8
0
 62
     0
 10
130.919
 20
92.9831
 30
0.0
 11
116.918
 21
92.9831
 31
0.0
  0
LINE
  8
0
 62
     0
 10
97.8683
 20
92.9831
 30
0.0
 11
97.8683
 21
92.3837
 31
0.0
  0
LINE
  8
0
 62
     0
 10
97.8683
 20
92.3837
 30
0.0
 11
97.0689
 21
92.3837
 31
0.0
  0
LINE
  8
0
 62
     0
 10
97.0689
 20
92.3837
 30
0.0
 11
97.0689
 21
79.5831
 31
0.0
  0
LINE
  8
0
 62
     0
 10
97.0689
 20
79.5831
 30
0.0
 11
97.8683
 21
79.5831
 31
0.0
  0
LINE
  8
0
 62
     0
 10
97.8683
 20
79.5831
 30
0.0
 11
97.8683
 21
78.9838
 31
0.0
  0
LINE
  8
0
 62
     0
 10
97.8683
 20
78.9838
 30
0.0
 11
111.869
 21
78.9838
 31
0.0
  0
LINE
  8
0
 62
     0
 10
111.869
 20
78.9838
 30
0.0
 11
111.869
 21
79.5831
 31
0.0
  0
LINE
  8
0
 62
     0
 10
111.869
 20
79.5831
 30
0.0
 11
112.668
 21
79.5831
 31
0.0
  0
LINE
  8
0
 62
     0
 10
112.668
 20
79.5831
 30
0.0
 11
112.668
 21
92.3837
 31
0.0
  0
LINE
  8
0
 62
     0
 10
112.668
 20
92.3837
 30
0.0
 11
111.869
 21
92.3837
 31
0.0
  0
LINE
  8
0
 62
     0
 10
111.869
 20
92.3837
 30
0.0
 11
111.869
 21
92.9831
 31
0.0
  0
LINE
  8
0
 62
     0
 10
111.869
 20
92.9831
 30
0.0
 11
97.8683
 21
92.9831
 31
0.0
  0
LINE
  8
0
 62
     0
 10
78.8197
 20
92.9831
 30
0.0
 11
78.8197
 21
92.3837
 31
0.0
  0
LINE
  8
0
 62
     0
 10
78.8197
 20
92.3837
 30
0.0
 11
78.0189
 21
92.3837
 31
0.0
  0
LINE
  8
0
 62
     0
 10
78.0189
 20
92.3837
 30
0.0
 11
78.0189
 21
79.5831
 31
0.0
  0
LINE
  8
0
 62
     0
 10
78.0189
 20
79.5831
 30
0.0
 11
78.8197
 21
79.5831
 31
0.0
  0
LINE
  8
0
 62
     0
 10
78.8197
 20
79.5831
 30
0.0
 11
78.8197
 21
78.9838
 31
0.0
  0
LINE
  8
0
 62
     0
 10
78.8197
 20
78.9838
 30
0.0
 11
92.819
 21
78.9838
 31
0.0
  0
LINE
  8
0
 62
     0
 10
92.819
 20
78.9838
 30
0.0
 11
92.819
 21
79.5831
 31
0.0
  0
LINE
  8
0
 62
     0
 10
92.819
 20
79.5831
 30
0.0
 11
93.6184
 21
79.5831
 31
0.0
  0
LINE
  8
0
 62
     0
 10
93.6184
 20
79.5831
 30
0.0
 11
93.6184
 21
92.3837
 31
0.0
  0
LINE
  8
0
 62
     0
 10
93.6184
 20
92.3837
 30
0.0
 11
92.819
 21
92.3837
 31
0.0
  0
LINE
  8
0
 62
     0
 10
92.819
 20
92.3837
 30
0.0
 11
92.819
 21
92.9831
 31
0.0
  0
LINE
  8
0
 62
     0
 10
92.819
 20
92.9831
 30
0.0
 11
78.8197
 21
92.9831
 31
0.0
  0
LINE
  8
0
 62
     0
 10
59.7697
 20
92.9831
 30
0.0
 11
59.7697
 21
92.3837
 31
0.0
  0
LINE
  8
0
 62
     0
 10
59.7697
 20
92.3837
 30
0.0
 11
58.9689
 21
92.3837
 31
0.0
  0
LINE
  8
0
 62
     0
 10
58.9689
 20
92.3837
 30
0.0
 11
58.9689
 21
79.5831
 31
0.0
  0
LINE
  8
0
 62
     0
 10
58.9689
 20
79.5831
 30
0.0
 11
59.7697
 21
79.5831
 31
0.0
  0
LINE
  8
0
 62
     0
 10
59.7697
 20
79.5831
 30
0.0
 11
59.7697
 21
78.9838
 31
0.0
  0
LINE
  8
0
 62
     0
 10
59.7697
 20
78.9838
 30
0.0
 11
73.769
 21
78.9838
 31
0.0
  0
LINE
  8
0
 62
     0
 10
73.769
 20
78.9838
 30
0.0
 11
73.769
 21
79.5831
 31
0.0
  0
LINE
  8
0
 62
     0
 10
73.769
 20
79.5831
 30
0.0
 11
74.5698
 21
79.5831
 31
0.0
  0
LINE
  8
0
 62
     0
 10
74.5698
 20
79.5831
 30
0.0
 11
74.5698
 21
92.3837
 31
0.0
  0
LINE
  8
0
 62
     0
 10
74.5698
 20
92.3837
 30
0.0
 11
73.769
 21
92.3837
 31
0.0
  0
LINE
  8
0
 62
     0
 10
73.769
 20
92.3837
 30
0.0
 11
73.769
 21
92.9831
 31
0.0
  0
LINE
  8
0
 62
     0
 10
73.769
 20
92.9831
 30
0.0
 11
59.7697
 21
92.9831
 31
0.0
  0
LINE
  8
0
 62
     0
 10
40.7197
 20
92.9831
 30
0.0
 11
40.7197
 21
92.3837
 31
0.0
  0
LINE
  8
0
 62
     0
 10
40.7197
 20
92.3837
 30
0.0
 11
39.9189
 21
92.3837
 31
0.0
  0
LINE
  8
0
 62
     0
 10
39.9189
 20
92.3837
 30
0.0
 11
39.9189
 21
79.5831
 31
0.0
  0
LINE
  8
0
 62
     0
 10
39.9189
 20
79.5831
 30
0.0
 11
40.7197
 21
79.5831
 31
0.0
  0
LINE
  8
0
 62
     0
 10
40.7197
 20
79.5831
 30
0.0
 11
40.7197
 21
78.9838
 31
0.0
  0
LINE
  8
0
 62
     0
 10
40.7197
 20
78.9838
 30
0.0
 11
54.719
 21
78.9838
 31
0.0
  0
LINE
  8
0
 62
     0
 10
54.719
 20
78.9838
 30
0.0
 11
54.719
 21
79.5831
 31
0.0
  0
LINE
  8
0
 62
     0
 10
54.719
 20
79.5831
 30
0.0
 11
55.5198
 21
79.5831
 31
0.0
  0
LINE
  8
0
 62
     0
 10
55.5198
 20
79.5831
 30
0.0
 11
55.5198
 21
92.3837
 31
0.0
  0
LINE
  8
0
 62
     0
 10
55.5198
 20
92.3837
 30
0.0
 11
54.719
 21
92.3837
 31
0.0
  0
LINE
  8
0
 62
     0
 10
54.719
 20
92.3837
 30
0.0
 11
54.719
 21
92.9831
 31
0.0
  0
LINE
  8
0
 62
     0
 10
54.719
 20
92.9831
 30
0.0
 11
40.7197
 21
92.9831
 31
0.0
  0
LINE
  8
0
 62
     0
 10
21.6697
 20
92.9831
 30
0.0
 11
21.6697
 21
92.3837
 31
0.0
  0
LINE
  8
0
 62
     0
 10
21.6697
 20
92.3837
 30
0.0
 11
20.869
 21
92.3837
 31
0.0
  0
LINE
  8
0
 62
     0
 10
20.869
 20
92.3837
 30
0.0
 11
20.869
 21
79.5831
 31
0.0
  0
LINE
  8
0
 62
     0
 10
20.869
 20
79.5831
 30
0.0
 11
21.6697
 21
79.5831
 31
0.0
  0
LINE
  8
0
 62
     0
 10
21.6697
 20
79.5831
 30
0.0
 11
21.6697
 21
78.9838
 31
0.0
  0
LINE
  8
0
 62
     0
 10
21.6697
 20
78.9838
 30
0.0
 11
35.669
 21
78.9838
 31
0.0
  0
LINE
  8
0
 62
     0
 10
35.669
 20
78.9838
 30
0.0
 11
35.669
 21
79.5831
 31
0.0
  0
LINE
  8
0
 62
     0
 10
35.669
 20
79.5831
 30
0.0
 11
36.4698
 21
79.5831
 31
0.0
  0
LINE
  8
0
 62
     0
 10
36.4698
 20
79.5831
 30
0.0
 11
36.4698
 21
92.3837
 31
0.0
  0
LINE
  8
0
 62
     0
 10
36.4698
 20
92.3837
 30
0.0
 11
35.669
 21
92.3837
 31
0.0
  0
LINE
  8
0
 62
     0
 10
35.669
 20
92.3837
 30
0.0
 11
35.669
 21
92.9831
 31
0.0
  0
LINE
  8
0
 62
     0
 10
35.669
 20
92.9831
 30
0.0
 11
21.6697
 21
92.9831
 31
0.0
  0
LINE
  8
0
 62
     0
 10
2.61965
 20
92.9831
 30
0.0
 11
2.61965
 21
92.3837
 31
0.0
  0
LINE
  8
0
 62
     0
 10
2.61965
 20
92.3837
 30
0.0
 11
1.81901
 21
92.3837
 31
0.0
  0
LINE
  8
0
 62
     0
 10
1.81901
 20
92.3837
 30
0.0
 11
1.81901
 21
79.5831
 31
0.0
  0
LINE
  8
0
 62
     0
 10
1.81901
 20
79.5831
 30
0.0
 11
2.61965
 21
79.5831
 31
0.0
  0
LINE
  8
0
 62
     0
 10
2.61965
 20
79.5831
 30
0.0
 11
2.61965
 21
78.9838
 31
0.0
  0
LINE
  8
0
 62
     0
 10
2.61965
 20
78.9838
 30
0.0
 11
16.6192
 21
78.9838
 31
0.0
  0
LINE
  8
0
 62
     0
 10
16.6192
 20
78.9838
 30
0.0
 11
16.6192
 21
79.5831
 31
0.0
  0
LINE
  8
0
 62
     0
 10
16.6192
 20
79.5831
 30
0.0
 11
17.4198
 21
79.5831
 31
0.0
  0
LINE
  8
0
 62
     0
 10
17.4198
 20
79.5831
 30
0.0
 11
17.4198
 21
92.3837
 31
0.0
  0
LINE
  8
0
 62
     0
 10
17.4198
 20
92.3837
 30
0.0
 11
16.6192
 21
92.3837
 31
0.0
  0
LINE
  8
0
 62
     0
 10
16.6192
 20
92.3837
 30
0.0
 11
16.6192
 21
92.9831
 31
0.0
  0
LINE
  8
0
 62
     0
 10
16.6192
 20
92.9831
 30
0.0
 11
2.61965
 21
92.9831
 31
0.0
  0
ENDSEC
  0
EOF
